<svg xmlns="http://www.w3.org/2000/svg" width="628.95593mm" height="500mm" viewBox="0 0 628.95593 500"><path d="M140.25 152.658h22.475c.843-1.027 1.768-1.776 2.396-1.2 0 0 .278.314.123 1.2h52.269a65.46 65.46 0 0 0 1.059-4.8h-79.269c.26 1.678.58 3.273.947 4.8m-1.241-6.96h79.92c.214-1.437.359-2.731.458-3.84H138.65c.087 1.322.209 2.6.359 3.84m60.19 20.639c-1.08 1.68.36 1.68.36 1.68 4.08-.12 3 1.2 3 1.2.12 1.68-3.6.72-3.6.72-1.56-.12-1.8.84-1.8.84-.09.21-.18.408-.272.6h11.481c1.948-2.347 3.557-4.87 4.888-7.44H200.86c-.814 1.31-1.661 2.4-1.661 2.4m20.398-28.558h-81.115c.01.65.03 1.288.055 1.92h81.003c.064-1.222.057-1.92.057-1.92m-56.156 18.599s-1.56 2.04.6 2.4c0 0 1.44.36 1.2 1.44 0 0-.12.72-3.6.48 0 0-1.2-.24-.96.96 0 0-.001.042-.017.12h38.771c1.83-2.514 2.643-2.04 2.643-2.04.41.371.288 1.147-.074 2.04h12.301a54.594 54.594 0 0 0 2.6-6.96h-52.498c-.25.46-.566.978-.966 1.56m28.918 19.319c-.513-.42-.319-1.273.11-2.16h-18.686c-1.95 3.53-3.263 3.36-3.263 3.36-.921-.385-.222-2.143.402-3.36h-19.134c11.828 11.168 27.252 10.8 27.252 10.8 12.677-.15 21.39-4.652 27.38-10.8h-10.795c-1.746 2.375-3.266 2.16-3.266 2.16m-21.839-5.76c-1.92.12-1.68-.96-1.68-.96.12-.96 2.28-.72 2.28-.72 2.04 0 3.24-2.04 3.24-2.04.62-1.123 1.151-1.832 1.588-2.28h-16.827s-2.28 3.72-3.6 3c0 0-.662-.885.899-3h-11.946a38.195 38.195 0 0 0 5.21 7.44h22.17c-.01-1.127-1.334-1.44-1.334-1.44m-13.319-10.44s-2.64-.12-2.28-1.32c0 0 .12-1.08 3.48-.84 0 0 1.56.36 2.28-1.56 0 0 .213-.4.55-.96h-20.418a46.895 46.895 0 0 0 2.582 6.96h14.962c.26-.44.995-1.972-1.156-2.28m19.439 10.92c-1.68 0-1.8.96-1.8.96h18.991c.327-.436.568-.72.568-.72 1.56-1.56-.36-1.92-.36-1.92-2.04.12-2.04-.84-2.04-.84-.24-1.08 2.28-.48 2.28-.48 1.8.36 3-2.04 3-2.04.274-.529.534-1.004.783-1.44h-20.376c.059 1.196-.806 3.36-.806 3.36-.96 1.32.48 1.08.48 1.08 3 .48 2.52 1.56 2.52 1.56-.12.96-3.24.48-3.24.48" style="fill:#382e87;fill-opacity:1;fill-rule:nonzero;stroke:none;stroke-width:.352778" transform="matrix(3.9663 0 0 3.9663 -396.129 -308.51)"/><path d="M138.963 133.46h19.679s5.04-16.8 21.119-16.08c0 0 7.92-.24 12.719 5.04 0 0 4.8-13.2 17.519-11.04 0 0-9.36-15.118-31.918-14.639 0 0-32.158-.24-39.118 36.718" style="fill:#22a232;fill-opacity:1;fill-rule:nonzero;stroke:none;stroke-width:.352778" transform="matrix(3.9663 0 0 3.9663 -396.129 -308.51)"/><g style="fill:#382e87;fill-opacity:1"><path d="M0 0s17.688-19.728 19.048-51.7H-88.436s11.566 21.089 39.457 22.449c0 0 10.884 32.652 48.979 29.251" style="fill:#382e87;fill-opacity:1;fill-rule:nonzero;stroke:none" transform="matrix(1.39923 0 0 -1.39923 446.31 147.538)"/></g><path d="M170.161 89.302s-41.517 5.04-44.157 48.717c0 0-2.4 47.277 46.557 54.236 0 0-40.558-8.639-40.797-53.756 0 0 .72-37.678 38.397-49.197" style="fill:#382e87;fill-opacity:1;fill-rule:nonzero;stroke:none;stroke-width:.352778" transform="matrix(3.9663 0 0 3.9663 -396.129 -308.51)"/><path d="M168.241 83.302s-25.918-2.16-44.637 23.998c0 0-20.399 27.36-2.64 61.197 0 0 14.4 28.558 47.037 29.518 0 0-29.518-4.56-42.717-31.678 0 0-14.639-29.038 2.4-56.637 0 0 12-21.598 40.557-26.398" style="fill:#382e87;fill-opacity:1;fill-rule:nonzero;stroke:none;stroke-width:.352778" transform="matrix(3.9663 0 0 3.9663 -396.129 -308.51)"/><g style="fill:#382e87;fill-opacity:1"><path d="M0 0s-85.714-.68-134.694-78.911c0 0-76.19-113.606 17.687-221.769 0 0 50.34-60.545 127.211-56.463 0 0-74.149 5.443-121.768 74.15 0 0-67.347 87.075-10.205 195.238 0 0 37.415 70.748 121.769 87.755" style="fill:#382e87;fill-opacity:1;fill-rule:nonzero;stroke:none" transform="matrix(1.39923 0 0 -1.39923 229.286 0)"/></g><path d="M188.16 89.302s41.518 5.04 44.157 48.717c0 0 2.4 47.277-46.557 54.236 0 0 40.558-8.639 40.798-53.756 0 0-.72-37.678-38.398-49.197" style="fill:#382e87;fill-opacity:1;fill-rule:nonzero;stroke:none;stroke-width:.352778" transform="matrix(3.9663 0 0 3.9663 -396.129 -308.51)"/><path d="M190.08 83.302S216 81.142 234.717 107.3c0 0 20.4 27.36 2.64 61.197 0 0-14.399 28.558-47.037 29.518 0 0 29.518-4.56 42.718-31.678 0 0 14.638-29.038-2.4-56.637 0 0-12-21.598-40.558-26.398" style="fill:#382e87;fill-opacity:1;fill-rule:nonzero;stroke:none;stroke-width:.352778" transform="matrix(3.9663 0 0 3.9663 -396.129 -308.51)"/><g style="fill:#382e87;fill-opacity:1"><path d="M0 0s85.715-.68 134.694-78.911c0 0 76.191-113.606-17.687-221.769 0 0-50.34-60.545-127.211-56.463 0 0 74.149 5.443 121.768 74.15 0 0 67.348 87.075 10.205 195.238 0 0-37.415 70.748-121.769 87.755" style="fill:#382e87;fill-opacity:1;fill-rule:nonzero;stroke:none" transform="matrix(1.39923 0 0 -1.39923 399.669 0)"/></g></svg>