<svg xmlns="http://www.w3.org/2000/svg" width="632.54492mm" height="500mm" viewBox="0 0 632.54492 500"><defs><clipPath id="a" clipPathUnits="userSpaceOnUse"><path d="M0 2551.18h2551.18V0H0Z"/></clipPath></defs><g clip-path="url(#a)" transform="matrix(4.20886 0 0 -4.20886 -4474.322 5760.73)"><path d="M0 0c25.181 0 45.691-10.801 46.611-24.313L75.359 4.436.215 79.58-74.93 4.435l28.341-28.342C-45.291-10.585-24.931 0 0 0" style="fill:#2e3192;fill-opacity:1;fill-rule:nonzero;stroke:none" transform="translate(1138.003 1289.136)"/><path d="M0 0c0-9.387-14.883-16.995-33.241-16.995-18.361 0-33.243 7.608-33.243 16.995 0 9.388 14.882 16.998 33.243 16.998C-14.883 16.998 0 9.388 0 0" style="fill:#faa61a;fill-opacity:1;fill-rule:nonzero;stroke:none" transform="translate(1171.244 1266.914)"/><path d="M0 0c-10.126-17.118-1.629-36.161-1.629-36.161.074.232.15.466.223.699.65 1.846 2.646 6.4 9.222 11.125 2.881 2.071 7.603 4.081 12.075 5.882 0 0-.01.013-.008.015a13.522 13.522 0 0 1 6.882 6.179c3.594 6.733.931 15.199-5.944 18.906C13.947 10.351 4.927 8.331 0 0" style="fill:#fff;fill-opacity:1;fill-rule:nonzero;stroke:none" transform="translate(1144.648 1307.7)"/><path d="M0 0c-4.265-3.472-4.986-9.679-1.609-13.86a9.519 9.519 0 0 1 5.577-3.363c.001-.002-.004-.011-.004-.011 3.33-.655 6.862-1.42 9.128-2.471 5.173-2.398 7.156-5.283 7.849-6.474l.247-.454s3.357 14.293-5.91 24.792C10.769 3.269 4.264 3.473 0 0" style="fill:#fff;fill-opacity:1;fill-rule:nonzero;stroke:none" transform="translate(1108.496 1317.482)"/></g></svg>