<svg xmlns="http://www.w3.org/2000/svg" width="605.37598pt" height="239.95554pt" fill-rule="evenodd" viewBox="0 0 605.37597 239.95554"><path d="M494.59 23.99C457.01 12.507 399.222 2.838 329.431.63c-43.96-1.852-90.46.56-136.842 4.957C137.328 9.823 64.65 26.014 29.652 48.714c-53.6 34.66-36.573 81.27 67.794 102.192 76.953 15.568 201.974 12.452 273.64-1.508-126.267-5.47-216.39-12.135-258.117-32.728-38.58-19.336-32.972-44.49-18.03-54.197 26.513-17.665 70.147-27.997 102.999-31.84 51.014-6.598 92.197-11.879 131.112-13.214 54.25-2.002 106.287-.26 165.54 6.572z" style="fill:#ffe600;stroke:none;stroke-width:.259933"/><path d="M170.08 104.973c66.05-20.149 157.445-26.105 187.262-27.539 60.178-3.607 146.459 3.51 210.628 31.436 40.352 17.504 65.882 73.827-19.659 102.478-45.232 15.091-83.448 23.928-142.01 26.72-81.744 2.723-137.538 3.5-183.54-4.643 46.423.492 83.966-.121 163.481-8.623 41.201-4.817 98.76-15.136 119.678-29.824 36.714-25.486 16.029-50.937 4.99-59.012-38.445-26.653-113.194-32.924-154.322-33.727-42.488-1.513-118.874-1.368-186.508 2.734z" style="fill:#273785;stroke:none;stroke-width:.259933"/></svg>