<svg xmlns="http://www.w3.org/2000/svg" xmlns:xlink="http://www.w3.org/1999/xlink" width="2867.195" height="1133.858" viewBox="0 0 758.612 300"><defs><linearGradient id="d"><stop offset="0" style="stop-color:#e3c31b;stop-opacity:1"/><stop offset=".736" style="stop-color:#f9da3f;stop-opacity:1"/><stop offset="1" style="stop-color:#eecc28;stop-opacity:1"/></linearGradient><linearGradient id="f"><stop offset="0" style="stop-color:#fff;stop-opacity:1"/><stop offset=".639" style="stop-color:#fff;stop-opacity:1"/><stop offset="1" style="stop-color:#bcdeeb;stop-opacity:1"/></linearGradient><linearGradient id="e"><stop offset="0" style="stop-color:#b1daea;stop-opacity:1"/><stop offset="1" style="stop-color:#5eb8df;stop-opacity:1"/></linearGradient><linearGradient id="c"><stop offset="0" style="stop-color:#89030a;stop-opacity:1"/><stop offset="1" style="stop-color:#e73d24;stop-opacity:1"/></linearGradient><linearGradient id="b" x1="0" x2="1" y1="0" y2="0" gradientTransform="matrix(34.68063 -136.77829 145.85223 75.82548 525.153 302.095)" gradientUnits="userSpaceOnUse" spreadMethod="pad"><stop offset="0" style="stop-opacity:1;stop-color:#850009"/><stop offset=".174" style="stop-opacity:1;stop-color:#d91920"/><stop offset=".506" style="stop-opacity:1;stop-color:#f25b28"/><stop offset=".694" style="stop-opacity:1;stop-color:#d91920"/><stop offset=".847" style="stop-opacity:1;stop-color:#d91920"/><stop offset="1" style="stop-opacity:.94117647;stop-color:#e04213"/></linearGradient><linearGradient xlink:href="#d" id="g" x1="404.224" x2="404.016" y1="112.943" y2="97.683" gradientTransform="translate(.704 .45) scale(1.00226)" gradientUnits="userSpaceOnUse"/><radialGradient xlink:href="#e" id="h" cx="295.935" cy="98.245" r="9.976" fx="295.935" fy="98.245" gradientTransform="matrix(-.34263 -.3238 1.01434 -1.07329 297.677 299.768)" gradientUnits="userSpaceOnUse"/><radialGradient xlink:href="#f" id="j" cx="287.265" cy="100.502" r="9.976" fx="287.265" fy="100.502" gradientTransform="matrix(-.17543 -.18636 4.47738 -4.21487 -51.764 552.859)" gradientUnits="userSpaceOnUse"/><filter id="i" width="1.077" height="1.291" x="-.039" y="-.146"><feGaussianBlur stdDeviation="1.377"/></filter><path id="a" d="M-.36-.06h624v842h-624z"/></defs><path d="M544.4 4.409c.739.181 1.477.36 2.224.56 1.205.329 2.432.668 3.655 1.042 1.12.357 2.252.719 3.393 1.11m-31.064-5.45c-.084 0-.17-.005-.253-.005l.004-.002a83.45 83.45 0 0 0-11.62.84.91.91 0 0 0-.073.003c-.082.013-.163.034-.245.043-.765.111-1.525.244-2.285.377-.8.139-1.598.29-2.392.451-.296.06-.596.105-.89.168-.286.062-.568.137-.853.2a89.482 89.482 0 0 0-3.7.919c-.401.108-.801.217-1.2.331-.346.098-.698.185-1.042.288-24.638 7.318-45.463 24.33-64.462 41.186-.837.743-1.693 1.485-2.523 2.227-1.062.949-2.132 1.924-3.2 2.887l-.972.877a1316.954 1316.954 0 0 0-6.647 6.051c-4.374 4.008-8.808 8.097-13.324 12.228-.499.456-1.003.912-1.503 1.37a1113.604 1113.604 0 0 1-10.627 9.584c-1.08.96-2.167 1.917-3.258 2.876a627.843 627.843 0 0 1-6.793 5.892 555.034 555.034 0 0 1-3.446 2.93c-.689.58-1.377 1.163-2.071 1.742a451.154 451.154 0 0 1-4.899 4.024c-.008.008-.02.012-.03.025a390.855 390.855 0 0 1-17.123 13.1c-7.11 5.119-14.404 9.971-21.908 14.474a269.485 269.485 0 0 1-19.568 10.696 249.266 249.266 0 0 1-7.942 3.725c-.213.095-.423.194-.637.288-.509.226-1.022.444-1.533.667a235.524 235.524 0 0 1-7.934 3.275c-10.318 4.028-20.718 7.233-31.002 9.472a176.655 176.655 0 0 1-7.641 1.487c-.008 0-.017.003-.025.004-.166.025-.333.053-.5.078-.967.162-1.934.318-2.898.462-1.182.175-2.365.338-3.55.487-3.259.417-6.55.731-9.857.933-.102.004-.201.017-.304.021-4.99.292-10.016.325-15.016.044a115.505 115.505 0 0 1-7.55-.672 105.643 105.643 0 0 1-7.727-1.241 97.243 97.243 0 0 1-3.93-.868 93.923 93.923 0 0 1-2.769-.711c-.217-.06-.436-.118-.652-.179a89.825 89.825 0 0 1-3.378-1.02c-.1-.034-.198-.071-.297-.1a87.796 87.796 0 0 1-2.924-1.024c-.343-.126-.68-.257-1.021-.388a84.064 84.064 0 0 1-2.264-.907 80.567 80.567 0 0 1-3.967-1.775c-.042-.021-.084-.038-.126-.059-.124-.06-.244-.125-.366-.185a79.185 79.185 0 0 1-2.574-1.324c-.425-.228-.846-.466-1.267-.702a77.487 77.487 0 0 1-1.688-.977c-.452-.269-.905-.537-1.352-.816-.433-.27-.86-.549-1.286-.828-.337-.22-.675-.434-1.008-.659-11.083-7.528-19.776-17.903-25.873-29.767-.133-.261-.26-.526-.392-.79a90.343 90.343 0 0 1-.968-1.978 97.936 97.936 0 0 1-1.374-3.053 99.26 99.26 0 0 1 7.654-14.777 93.201 93.201 0 0 1 3.12-4.65c2.093-2.935 3.78-5.193 5.608-7.318 1.826-2.122 3.795-4.115 6.453-6.52a204.614 204.614 0 0 1 6.56-5.692c2.66-2.21 5.414-4.365 7.615-5.82a129.888 129.888 0 0 1 3.951-2.487 114.508 114.508 0 0 1 3.092-1.768c.518-.286 1.04-.567 1.568-.844a168.515 168.515 0 0 1 1.585-.813c.304-.162.607-.298.91-.45a98.806 98.806 0 0 1 11.281-4.686 98.676 98.676 0 0 1 11.903-3.289c8.575-1.799 17.534-2.468 26.708-1.882a98.66 98.66 0 0 1 17.57 2.672 97.52 97.52 0 0 1 5.76 1.613 98.512 98.512 0 0 1 5.609 1.939 99.267 99.267 0 0 1 10.712 4.822c0-.056.79.343 1.169.64h.002a55.15 55.15 0 0 1 1.882 1.026 95.099 95.099 0 0 1 5.504 3.36c3.62 1.837 6.911 2.972 9.872 3.424 2.962.452 5.594.22 7.906-.67 4.27-1.637 7.449-5.533 9.523-11.531.306-1.082.656-2.199.98-3.265.055-.258.14-.49.191-.748a130.282 130.282 0 0 1 5.465-14.343 131.648 131.648 0 0 1 26.798-38.872 132.593 132.593 0 0 1 16.643-14.114 131.305 131.305 0 0 1 24.687-13.926h.003c8.837-3.795 18.15-6.642 26.929-8.25 8.777-1.609 16.8-2.329 24.823-2.316 4.813.007 9.627.276 14.415.809 7.087.773 13.99 2.117 20.673 3.982a129.96 129.96 0 0 1 8.873 2.81 129.82 129.82 0 0 1 23.8 11.308 132.798 132.798 0 0 1 11.371 7.735v-.004A135.208 135.208 0 0 1 546.895-.578c.591.618 1.175 1.242 1.658 1.772.87.947 2.145 2.403 2.145 2.403.453.514 2.389 2.485 2.833 3.008l.36.398-.22.118M536.49 2.8a97.57 97.57 0 0 1 7.162 1.42l.747.188M536.49 2.8l-1.966-.299a89.542 89.542 0 0 0-6.309-.647l-5.606-.184" style="fill:#00acda;fill-opacity:1;fill-rule:nonzero;stroke:none;stroke-width:.422004;stroke-miterlimit:4;stroke-dasharray:none;stroke-opacity:1" transform="translate(-9.315 43.025) scale(1.04524)"/><path d="M406.958 122.719c-.187-.873-1.144-1.073-2.09-1.074-.945 0-1.988.244-2.56.352-2.145.41-4.627 1.113-6.448 1.304-.558.06-1.053.07-1.459.011-1.584-.09-1.513-.834-1.084-1.837.871-2.06 2.258-5.526-.024-7.328a2.812 2.812 0 0 0-.145-.102 3.804 3.804 0 0 0-.917-.426 6.03 6.03 0 0 0-1.05-.218 8.909 8.909 0 0 0-1.074-.06c-1.88-.004-4.234.47-7.626 1.535a66.608 66.608 0 0 0-2.526.849 89.469 89.469 0 0 0-2.81 1.053c-1.296.51-2.65 1.075-4.033 1.515-1.384.439-2.799.751-4.092.75-1.293-.001-2.07-.297-2.616-.78a2.979 2.979 0 0 1-.244-.25c-.017-.027-.043-.056-.067-.087a1.34 1.34 0 0 1-.137-.185c-.021-.035-.048-.068-.068-.103a3.194 3.194 0 0 1-.114-.195c-.027-.037-.038-.071-.059-.111a3.292 3.292 0 0 1-.1-.207c-.017-.04-.028-.072-.048-.106-.028-.08-.063-.159-.09-.237-.015-.026-.023-.056-.033-.088-.03-.086-.066-.183-.094-.276-.147-.352-.217-.761-.313-1.132a26 26 0 0 0-.423-1.48c-.013-.035-.022-.065-.032-.09a3.09 3.09 0 0 0-.134-.347.483.483 0 0 0-.043-.095c-.05-.11-.093-.212-.149-.318-.009-.019-.015-.033-.025-.048a3.37 3.37 0 0 0-.155-.284l-.088-.136c-.007-.01-.017-.02-.017-.031a3.895 3.895 0 0 0-.308-.381c-.074-.08-.078-.091-.104-.117-.033-.035-.071-.079-.113-.117-.054-.049-.107-.089-.163-.142a3.749 3.749 0 0 0-1.014-.617 4.297 4.297 0 0 0-.938-.3 8.294 8.294 0 0 0-1.623-.188 11.625 11.625 0 0 0-.546.001c-.242.006-.484.02-.746.039a27.868 27.868 0 0 0-3.377.458c-.98.191-1.953.422-2.919.685-.966.263-1.925.559-2.875.88-.952.32-1.894.666-2.828 1.03-.935.362-1.86.743-2.777 1.133a79.226 79.226 0 0 0-4.63 2.15 81.13 81.13 0 0 0-4.486 2.441 74.745 74.745 0 0 0-4.322 2.736 65.094 65.094 0 0 0-4.11 3.045 74.06 74.06 0 0 0-1.553 1.299 51.565 51.565 0 0 0-2.602 2.415 47.155 47.155 0 0 0-1.474 1.54 41.484 41.484 0 0 0-1.547 1.797 37.932 37.932 0 0 0-1.436 1.888c-.312.439-.613.882-.902 1.33-.29.45-.566.904-.83 1.366a27.516 27.516 0 0 0-1.422 2.87c.883-.173 1.76-.385 2.625-.64a26.038 26.038 0 0 0 2.55-.898 23.423 23.423 0 0 0 2.435-1.169 21.061 21.061 0 0 0 2.276-1.458 18.354 18.354 0 0 0 2.76-2.536 25.514 25.514 0 0 0 2.275-2.985 26.14 26.14 0 0 1 1.323-1.644c1.115-1.27 2.301-2.267 3.603-2.607 1.277-.335 2.668-.04 4.222 1.246.152.143.306.277.467.413.262.237.538.458.814.678a30.33 30.33 0 0 0 4.873 3.183 29.894 29.894 0 0 0 4.415 1.877 30.273 30.273 0 0 0 7.621 1.469c.726.045 1.384.069 2 .071a24.35 24.35 0 0 0 3.357-.208 35.88 35.88 0 0 0 1.638-.256 29.504 29.504 0 0 0 4.178-1.057 29.709 29.709 0 0 0 4.192-1.75 29.96 29.96 0 0 0 3.862-2.347 31.312 31.312 0 0 0 3.258-2.685c.114-.09.222-.189.326-.292l.044-.047a9.689 9.689 0 0 1 1.065-.841c.25-.17.508-.327.78-.472.273-.144.56-.275.867-.394.28-.107.58-.185.893-.233.314-.048.64-.065.973-.055.333.01.671.049 1.009.116a6.42 6.42 0 0 1 1 .286c.444.167.873.384 1.27.651.396.267.76.583 1.071.946.351.41.66.878.913 1.403a19.056 19.056 0 0 0 3.523 4.539c.407.387.832.757 1.273 1.11.18.136.358.271.563.422.378.3.973.535 1.4.75 2.406-1.2 5.677-3.387 7.81-5.645 1.944-2.058 3.35-4.494 3.108-5.92z" style="fill:#338d31;fill-opacity:1;fill-rule:nonzero;stroke:none;stroke-width:.0501132;stroke-miterlimit:4;stroke-dasharray:none;stroke-opacity:1" transform="matrix(4.40101 0 0 4.40101 -1105.845 -315.567)"/><path d="M373.215 81.875a19.95 19.95 0 0 0-4.157.447c-.546.118-1.086.256-1.614.413-6.11 1.815-11.238 6.139-15.91 10.31-3.821 3.416-7.77 7.236-12.155 10.9a96.15 96.15 0 0 1-5.394 4.202 74.636 74.636 0 0 1-5.203 3.437 64.003 64.003 0 0 1-4.647 2.541c-2.634 1.294-5.38 2.406-8.202 3.254a42.45 42.45 0 0 1-6.918 1.483c-3.144.403-6.418.41-9.546-.204-2.366-.462-4.65-1.283-6.732-2.559-3.387-2.08-5.904-5.248-7.456-8.88 0 .1-.107.274-.143.37-.142.37-.275.743-.404 1.118a23.71 23.71 0 0 0-.979 3.944 22.427 22.427 0 0 0-.232 2.13 23.723 23.723 0 0 0 2.125 11.395 23.318 23.318 0 0 0 1.926 3.398 23.564 23.564 0 0 0 6.818 6.58c3.53 2.245 7.642 3.562 11.891 3.702a23.567 23.567 0 0 0 4.93-.35 26.778 26.778 0 0 1 1.678-3.376c1.82-3.114 4.221-5.895 6.837-8.358a57.749 57.749 0 0 1 5.067-4.245 68.685 68.685 0 0 1 6.507-4.301 84.272 84.272 0 0 1 7.587-3.919 81.1 81.1 0 0 1 4.939-2.062 69.617 69.617 0 0 1 4.654-1.583 50.88 50.88 0 0 1 4.198-1.078 30.142 30.142 0 0 1 3.569-.543c.329-.028.66-.046.989-.053.208-.012.588-.016 1.074.01.053-.001 0-.001 0-.001h.053c1.394.083 3.285.433 4.827 1.776.03.02.054.046.102.089.053.043.104.083.147.128.041.039.08.082.124.126.014.017.019.03.034.04.132.145.254.289.364.444l.02.036c.027.045.06.09.1.156.686 1.122.846 2.527 1.22 3.736.007.011.031.022.042.038.028.093.063.19.094.276.01.032.018.061.034.088.027.078.061.157.09.237.02.034.03.067.047.106.311-2.41.216-1.704 0 0 .03.071.065.139.1.207.021.04.032.074.06.111.035.066.073.13.114.195.02.035.045.068.066.103.038.064.09.13.139.185.023.031.049.06.066.087.076.088.152.166.244.25.367.03 1.082.03 1.542-.007 3.152-.257 6.124-1.646 9.051-2.724a75.755 75.755 0 0 1 4.528-1.524c3.355-1.022 9.267-2.905 12.322.547 1.458 1.647.33 4.85-.626 7.057-.086.198-.202.735-.132.91.229 0 .5-.01.72-.038 2.859-.357 5.07-.962 7.61-1.416 2.74-.472 3.81-.286 4.54.14.961.56 1.458 1.605.62 3.333-.483.997-1.426 2.587-2.529 3.74-1.854 1.938-4.555 4-8.006 5.856l.209.109c.58.297 1.27.608 2.08.894 1.34.467 2.755.784 4.23.937 2.065.212 4.315.234 6.335-.233a18.729 18.729 0 0 0 7.551-3.65 19.391 19.391 0 0 0 4.864-5.762c.471-.856.877-1.75 1.213-2.674a18.54 18.54 0 0 0 .973-4.038 18.802 18.802 0 0 0 .128-3.242 18.93 18.93 0 0 0-2.92-9.257 21.052 21.052 0 0 0-1.312-1.852c-.129-.164-.306-.492-.484-.595a14.336 14.336 0 0 1-4.21 5.536 14.592 14.592 0 0 1-5.67 2.787c-.97.237-1.964.378-2.964.41a14.25 14.25 0 0 1-4.073-.464 14.357 14.357 0 0 1-6.066-3.325c-2.342-2.317-3.394-4.107-4.346-7.594-1.071.116-1.865-.068-2.459-.462-1.47-.864-1.69-2.985-2.359-6.472-.84-3.817-2.782-7.353-4.12-9.458a39.357 39.357 0 0 0-1.983-2.707c-.273-.094-.543-.18-.81-.265-.29-.09-.582-.17-.869-.248-2.012-.541-3.926-.789-5.763-.784zm-53.494 44.205z" style="fill:#004290;fill-opacity:1;fill-rule:nonzero;stroke:none;stroke-width:1.22895" transform="matrix(4.40101 0 0 4.40101 -1105.845 -315.567)"/><path d="M404.554 98.483a19.177 19.177 0 0 0-4.128.477 19.044 19.044 0 0 0-4.95 1.888c-1.513.813-2.821 1.282-3.899 1.424.935 3.423 1.969 5.212 4.222 7.468.138.13.274.261.417.386l.018.016c.205.178.415.35.629.516l.059.045c.201.154.407.304.617.448l.043.03c.207.141.418.275.632.406a14.168 14.168 0 0 0 .652.37c.085.045.169.091.254.135.206.105.414.206.625.302l.219.094a14.365 14.365 0 0 0 .74.296c.234.086.47.168.71.242l.003.001a14.25 14.25 0 0 0 4.645.628 14.657 14.657 0 0 0 8.634-3.197 14.335 14.335 0 0 0 4.21-5.536.37.37 0 0 1 .058.042c-.188-.205-.5-.508-.87-.85-.831-.768-1.936-1.713-2.471-2.07a25.853 25.853 0 0 0-1.186-.742 29.745 29.745 0 0 0-1.671-.915 24.05 24.05 0 0 0-1.803-.825c-1.591-.64-3.31-.924-5.022-1.037a18.876 18.876 0 0 0-1.387-.042z" style="fill:url(#g);fill-opacity:1;fill-rule:nonzero;stroke:none;stroke-width:1.22895" transform="matrix(4.40101 0 0 4.40101 -1105.845 -315.567)"/><path d="M264.506 108.5a12.915 12.915 0 0 0-5.81 1.223 12.822 12.822 0 0 0-2.814 1.804 12.943 12.943 0 0 0-1.495 1.48c-.236.273-.46.557-.67.852a12.702 12.702 0 0 0-2.013 4.235 12.589 12.589 0 0 0-.423 2.804c-.032.779.01 1.555.118 2.322a13.053 13.053 0 0 0 .916 3.277 12.814 12.814 0 0 0 1.577 2.723 12.665 12.665 0 0 0 2.015 2.117 12.856 12.856 0 0 0 2.876 1.815c.9.417 1.848.727 2.809.925a12.846 12.846 0 0 0 5.913-.158 12.763 12.763 0 0 0 3.637-1.591 12.813 12.813 0 0 0 3.363-3.108c.291-.387.56-.786.808-1.203.275-.466.52-.949.768-1.52a12.955 12.955 0 0 0 .917-3.276v-.001a12.995 12.995 0 0 0-.077-4.096 12.894 12.894 0 0 0-2.91-6.118 13.425 13.425 0 0 0-1.512-1.494c-.43-.36-.881-.692-1.357-.994a12.888 12.888 0 0 0-6.636-2.017z" style="fill:#e89500;fill-opacity:1;fill-rule:nonzero;stroke:none;stroke-width:1.22895" transform="matrix(4.40101 0 0 4.40101 -1105.845 -315.567)"/><path d="M301.617 93.243c-8.794.377-18.708 11.407-14.144 17.578 2.37 3.207 5.694-2.927 9.662-7.788 4.368-5.35 14.76-10.209 4.482-9.79z" style="fill:url(#h);fill-opacity:1;stroke:none;stroke-width:.263986px;stroke-linecap:butt;stroke-linejoin:miter;stroke-opacity:1;filter:url(#filter1453)" transform="translate(-1102.747 -313.586) scale(4.41096)"/><path d="M319.488 135.885c5.807-8.552 22.233-21.883 38.296-22.238 7.03-.155 3.696 7.555 10.595 7.762 10.22.305 19.695-9.046 23.447-5.294 1.695 1.694-1.872 7.589.566 8.563 3.263 1.304 11.023-2.308 12.028-.568 1.499 2.597-6.34 6.986-7.457 7.443-4.732 1.936-4.571-6.875-10.552-9.257-4.041-1.61-7.41 1.28-8.325 2.195-2.561 2.561-8.476 8.382-19.377 8.382-14.9 0-19.994-11.7-25.598-8.465-1.883 1.087-4.498 4.177-8.046 7.726-2.406 2.405-6.669 5.358-5.577 3.75z" style="fill:#43a936;fill-opacity:1;stroke:none;stroke-width:.264583px;stroke-linecap:butt;stroke-linejoin:miter;stroke-opacity:1;filter:url(#i)" transform="matrix(4.40101 0 0 4.40101 -1105.845 -315.567)"/><path d="M353.99 72.815c-21.612 2.163-28.18 23.36-27.389 23.971 1.855 1.43 7.376-8.316 16.993-15.005 4.64-3.227 13.372-5.218 14.41-7.206.571-1.093-.583-1.9-4.014-1.76z" style="fill:url(#j);fill-opacity:1;stroke:none;stroke-width:.264583px;stroke-linecap:butt;stroke-linejoin:miter;stroke-opacity:1;filter:url(#filter1603)" transform="translate(-1105.844 -315.567) scale(4.40101)"/></svg>