<svg xmlns="http://www.w3.org/2000/svg" width="728.63708pt" height="600pt" fill-rule="evenodd" viewBox="0 0 728.63708 599.99999"><path d="M323.272 521.25c78.624 0 142.776-52.776 142.776-117.504 0-64.8-64.152-117.576-142.776-117.576-78.552 0-142.704 52.776-142.704 117.576 0 64.728 64.152 117.504 142.704 117.504z" style="fill:#fff;stroke:none" transform="matrix(2.55232 0 0 2.55232 -460.868 -730.398)"/><path d="M453.304 417.714c-40.968-5.472-81.648-7.56-122.976-6.12l.36 15.336c38.232 3.96 75.096 9.072 112.32 18.504 4.824-8.64 8.352-18 10.296-27.72zM453.16 389.706a53.165 53.165 0 0 0-8.424-28.008c-36.936 12.312-75.528 19.368-114.48 20.952v16.56h4.176c39.816.432 79.56-2.88 118.728-9.504zM435.736 345.714c-6.408-8.136-14.184-15.264-22.968-21.024a234.84 234.84 0 0 1-82.512 25.2v20.52c36.072-3.6 71.568-11.88 105.48-24.696zM432.928 461.85c-32.4-14.976-66.456-22.392-102.24-23.184l-.36 18.504c28.656 2.232 55.8 11.016 80.496 25.632 8.568-5.544 16.128-12.672 22.104-20.952zM394.768 492.81a199.52 199.52 0 0 0-62.136-20.736l-2.376-.432v38.736c21.528-1.008 41.544-6.48 60.84-16.056.576-.144 1.008-.36 1.584-.576.072 0 .216-.072.36-.072.216-.072.36-.072.504-.216l.936-.072c.072 0 .216-.072.288-.072 0-.072.072-.072.072-.144 0-.145 0-.216-.072-.36zM392.176 312.81c-19.08-9.577-40.608-14.544-61.92-15.912V337.506c.072.072-.072-.144 0 0 .216.072-.072 0 .072 0 .216.072 1.296-.072 1.584-.072.072 0 .216-.072.288-.072.072 0 .288.072.36 0a111.91 111.91 0 0 0 59.616-24.552z" style="fill:#e21c2a;stroke:none" transform="matrix(2.55232 0 0 2.55232 -460.868 -730.398)"/><path d="M316.864 296.97c-5.256.072-10.512.431-15.696 1.08v40.32h15.84l-.072-41.4zm-15.696 211.752c5.112.72 10.224 1.296 15.408 1.584l-.144-37.512c-5.112.288-10.296 1.296-15.264 2.88zm0-45.72a98.238 98.238 0 0 1 15.984-5.112v-.216l-.072-19.584h-15.912zm0-91.152 15.696-.073v-21.383h-15.696zm0 54.36v-14.544h15.84l.144 14.472zm0-25.92v-14.328h15.84v14.184zm0-102.24c-32.976 4.032-63.504 19.296-86.544 43.488l-.144.144-.144.144c-13.464 16.488-21.024 36.72-21.816 57.672v8.712a97.766 97.766 0 0 0 28.512 63.936c22.464 19.656 50.472 32.112 80.136 36.576v-33.048c-4.896 1.512-9.648 3.672-13.896 6.408l-16.416.216c8.64-8.065 19.08-14.688 30.312-19.296V438.09h-30.744l.072-66.096 30.672-.144v-21.456l-29.592.072-.216-12.096h29.808zm0 87.912v14.328l-16.128.072h-.504l.072-14.472zm0 25.704v14.544l-15.984.072-.072-14.616z" style="fill:#273785;stroke:none" transform="matrix(2.55232 0 0 2.55232 -460.868 -730.398)"/></svg>