<svg xmlns="http://www.w3.org/2000/svg" width="685.54724mm" height="600mm" viewBox="0 0 685.54724 600"><g style="fill:#3b297d;fill-opacity:1"><g style="fill:#3b297d;fill-opacity:1"><path d="m0 0-8.135-12.064c38.31 9.455 125.091 44.021 210.804-3.461C289.13-61.846 374.645-31.553 406.907-5.172l-4.637 7.754c-31.841-23.781-114.346-55.275-199.601-5.773C153.34 19.623 109.557 34.424 0 0" style="fill:#3b297d;fill-opacity:1;fill-rule:nonzero;stroke:none" transform="matrix(1.65175 0 0 -1.65175 13.437 534.654)"/></g><g style="fill:#3b297d;fill-opacity:1"><path d="m0 0-15.323 25.175-58.994.086 9.923-16.148 5.68-9.174z" style="fill:#3b297d;fill-opacity:1;fill-rule:nonzero;stroke:none" transform="matrix(1.65175 0 0 -1.65175 590.88 233.464)"/></g><g style="fill:#3b297d;fill-opacity:1"><path d="M0 0h-.097l14.076-22.746 58.375-.029L58.454.063-.027.049Z" style="fill:#3b297d;fill-opacity:1;fill-rule:nonzero;stroke:none" transform="matrix(1.65175 0 0 -1.65175 507.445 255.12)"/></g><g style="fill:#3b297d;fill-opacity:1"><path d="m0 0 14.374-23.225 58.017-.06L58.113.178-.154.252Z" style="fill:#3b297d;fill-opacity:1;fill-rule:nonzero;stroke:none" transform="matrix(1.65175 0 0 -1.65175 546.26 318.164)"/></g><g style="fill:#3b297d;fill-opacity:1"><path d="M0 0c-27.782-16.363-89.126-46.082-175.227-4.375-91.005 49.639-162.705 21.371-193.433 10.096l10.253 16.779c90.108 34.482 151.136 2.742 180.965-11.244 90.73-41.662 147.789-11.358 170.149.525" style="fill:#3b297d;fill-opacity:1;fill-rule:nonzero;stroke:none" transform="matrix(1.65175 0 0 -1.65175 654.486 493.021)"/></g><g style="fill:#3b297d;fill-opacity:1"><path d="M0 0c-49.343-30.416-108.605-45.088-186.632-8.436-84.231 47.17-160.373 22.321-205.822 8.739l8.821 13.781c111.776 38.406 160.726 7.385 195.771-8.98C-97.415-39.184-33.201-6.414-6.738 10.887" style="fill:#3b297d;fill-opacity:1;fill-rule:nonzero;stroke:none" transform="matrix(1.65175 0 0 -1.65175 671.749 520.904)"/></g><g style="fill:#3b297d;fill-opacity:1"><path d="M0 0c-29.829 13.986-90.857 45.727-180.964 11.244l-10.254-16.779C-160.49 5.74-88.79 34.008 2.216-15.631c86.1-41.707 147.444-11.988 175.226 4.375L170.149.525C147.789-11.357 90.73-41.662 0 0" style="fill:#3b297d;fill-opacity:1;fill-rule:nonzero;stroke:none" transform="matrix(1.65175 0 0 -1.65175 361.395 474.43)"/></g><g style="fill:#3b297d;fill-opacity:1"><path d="M0 0c-35.045 16.365-83.995 47.387-195.771 8.98l-8.821-13.781C-159.143 8.781-83 33.631 1.23-13.539 79.257-50.191 138.52-35.52 187.862-5.104l-6.738 10.887C154.661-11.518 90.447-44.287 0 0" style="fill:#3b297d;fill-opacity:1;fill-rule:nonzero;stroke:none" transform="matrix(1.65175 0 0 -1.65175 361.447 512.475)"/></g><g style="fill:#3b297d;fill-opacity:1"><path d="M0 0c45.27-22.027 108.233-38.824 170.208-3.869l-.029.053-39.048 62.531H56.403c-28.896 0-14.563-29.752-7.105-50.258 2.332-7.461-2.797-7.461-5.591-1.4-29.765 59.039-15.269 75.429 3.844 74.963l69.308-.012-.156.252h.195l-9.386 15.17-67.884-.03c-15.277-.224-38.134-25.595-6.439-81.99 2.331-5.129-3.03-4.166-5.361.028-53.132 84.226-1.255 104.802 10.4 104.802l55.203-.064-8.118 13.051-61.535.062c-15.382-.932-63.915-11.859-8.387-105.801 6.055-11.652-3.732-10.254-10.722-1.867-22.372 27.967-47.012 42.34-67.118 42.414h-50.335c-8.857.932-5.593 8.391.465 8.391h30.297c13.98 19.111 29.362 7.922 39.149 1.865 9.045-5.6 33.094-27.5 35.888-30.762 7.462-6.99 5.981.592.469 6.104-1.396 1.398-16.78 22.793-21.442 32.115-19.575 41.018 16.314 72.71 43.812 72.71l53.894-.019-72.65 116.191L-169.468 9.041C-147.698 20.049-71.899 37.25 0 0" style="fill:#3b297d;fill-opacity:1;fill-rule:nonzero;stroke:none" transform="matrix(1.65175 0 0 -1.65175 352.915 453.621)"/></g></g></svg>