<svg xmlns="http://www.w3.org/2000/svg" xml:space="preserve" width="1083.9727" height="700" viewBox="0 0 1083.9726 700"><path d="M431 421.95c28.517-29.76 62.312-43.658 75.481-31.04 4.022 3.855 5.64 9.746 5.156 16.907 24.383-19.678 49.263-27.312 60.12-16.906 11.576 11.089 3.36 38.97-18.158 65.765h61.656c0-83.97-68.074-152.043-152.044-152.043-83.97 0-152.042 68.072-152.042 152.043h94.687c5.67-11.264 14.221-23.33 25.144-34.727" style="fill:#c4122d;fill-opacity:1;fill-rule:nonzero;stroke:none;stroke-width:.133333" transform="matrix(2.38059 0 0 2.38059 -472.283 -725.206)"/><path d="M333.443 483.86c-11.495-2.635-20.764-3.421-22.879-3.833-.292-.05-.452-.102-.461-.151 0 0 160.012-2.16 281.818 42.39l61.807-54.797H542.127c16.45-22.182 13.925-35.598 13.925-35.598-2.17-15.627-25.612-.434-25.612-.434-6.945 3.908-26.047 21.272-26.047 21.272 10.851-16.062 5.643-23.876 5.643-23.876-4.776-13.025-29.956 5.644-29.956 5.644l-20.836 16.931c10.417-9.985 7.813-23.01 7.813-23.01-6.078-13.891-29.953 4.775-29.953 4.775-10.016 5.676-27.972 25.452-35.743 34.296H205.045l-1.953.186-.113.016c-2.628.353-4.59 1.742-4.59 3.404 0 1.805 2.322 3.293 5.296 3.469l.492.073c38.547 5.999 192.698 42.86 300.711 124.062l36.063-31.222c-71.918-41.218-163.314-70.737-199.799-81.576-3.832-1.026-6.463-1.696-7.71-2.021" style="fill:#1d3c85;fill-opacity:1;fill-rule:nonzero;stroke:none;stroke-width:.133333" transform="matrix(2.38059 0 0 2.38059 -472.283 -725.206)"/><path d="m548.452 558.684 31.553-27.975c-95.412-35.773-200.701-45.613-246.49-48.964 6.614 1.444 117.133 26.016 214.937 76.939" style="fill:#1d3c85;fill-opacity:1;fill-rule:nonzero;stroke:none;stroke-width:.133333" transform="matrix(2.38059 0 0 2.38059 -472.283 -725.206)"/></svg>