<svg xmlns="http://www.w3.org/2000/svg" width="755.52795pt" height="450pt" fill-rule="evenodd" viewBox="0 0 755.52795 449.99999"><path d="M150.731 1236.88c-22.312 0-40.474 18.56-41.225 41.76h41.242c-1.335-3.9-8.836-5.59-8.836-5.59-5.942-1.72-6.989-5.71-7.12-7.76h-16.796c.358-8.82 9.012-15.88 19.645-15.88 10.632 0 19.288 7.06 19.645 15.88h-18.758c.623 1.95 2.291 5.04 6.721 6.04 0 0 8.074 2.56 9.513 7.31h37.194c-.751-23.2-18.914-41.76-41.225-41.76zm-14.782 10.6c.184-3.7 4.645-6.66 10.124-6.66 5.48 0 9.941 2.96 10.125 6.66zm34.075 16.97c8.662 0 15.714 5.06 16.005 11.37H154.02c.291-6.31 7.342-11.37 16.004-11.37zM102.137 1281.75v1.38h25.819l.611.1c2.914 1.89 9.274 3.32 17.086 3.79h-35.486v1.25s.645.04 1.766.1h21.936l3.226.57c2.336 1.32 7.411 2.26 13.375 2.34l.136.02h-.229c.021.01.038.01.058.02h-32.274v1.31h20.002l10.394 1.86c1.124.13 1.878.25 2.111.35 0 0 .558-.06 1.522-.16l11.456-2.05h19.721v-.3c.012 0 .028.01.038.01v-1h-.038v-.02h-32.118c.047-.01.095-.01.146-.02h-.193l.108-.02c6.538 0 12.121-1.04 14.394-2.52l2.236-.39h16.031c4.006-.25 6.896-.34 7.448-.1v-1.25h-34.56c7.955-.48 14.403-1.95 17.241-3.89h20.688c1.92-.08 3.365-.08 4.138 0h.523v-1.38z" style="fill:#009240;stroke:none" transform="matrix(7.76398 0 0 7.76398 -792.99 -9603.105)"/><path d="M220.719 1271.67v-8.99H208.98v-4.15h28.189v4.15h-11.774v8.99zm15.488-18.21c0 .93-.199 1.59-.597 1.99-.354.33-.907.5-1.658.5h-21.789c-.752 0-1.305-.17-1.658-.5-.376-.4-.564-1.06-.564-1.99v-10.25h4.643v2.59h16.98v-2.59h4.643zm-21.623-1.62h16.98v-2.36h-16.98zM253.288 1243.21c0 3.32.453 5.79 1.36 7.4 1.061 1.9 2.896 3.02 5.505 3.35v4.44c-1.99-.11-3.814-.63-5.472-1.56-1.703-.95-2.952-2.17-3.748-3.68-.84 1.48-2.178 2.72-4.013 3.72-1.724.93-3.482 1.43-5.272 1.52v-4.41c2.586-.35 4.399-1.48 5.438-3.38.863-1.59 1.293-4.06 1.293-7.4zm-9.186 17.91h4.676v6.14h20.262v4.14h-22.65c-.774 0-1.338-.16-1.692-.49-.398-.4-.596-1.07-.596-1.99zm24.707-7.89v9.38h-4.677v-19.4h4.677v5.84h3.78v4.18zM296.733 1254.69v-11.48h4.677v3.82h3.747v4.14h-3.747v7.63h-27.228v-4.11h4.51v-4.55h4.643v4.55zm-9.153 1.26v-8.62h-12.104v-4.12h16.78v12.74zm9.883 1.86c2.057 1.7 3.084 3.74 3.084 6.13 0 2.52-.994 4.69-2.985 6.5-1.967 1.81-4.355 2.72-7.163 2.72-2.764 0-5.129-.91-7.097-2.72-1.968-1.81-2.951-3.98-2.951-6.5 0-2.39 1.016-4.43 3.051-6.13 1.99-1.68 4.322-2.53 6.997-2.53 2.697 0 5.052.85 7.064 2.53zm-10.712 2.68c-.995.93-1.492 2.08-1.492 3.45 0 1.31.497 2.43 1.492 3.38 1.017.98 2.222 1.46 3.615 1.46 1.415 0 2.642-.48 3.681-1.46 1.061-.95 1.592-2.07 1.592-3.38 0-1.35-.531-2.5-1.592-3.45-1.017-.93-2.244-1.39-3.681-1.39-1.415 0-2.62.46-3.615 1.39zM320.878 1244.31c1.769 1.5 2.653 3.4 2.653 5.7 0 2.26-.884 4.14-2.653 5.64-1.658 1.42-3.582 2.12-5.771 2.12-2.21 0-4.145-.7-5.803-2.12-1.747-1.5-2.62-3.38-2.62-5.64 0-2.3.873-4.2 2.62-5.7 1.658-1.4 3.593-2.09 5.803-2.09 2.189 0 4.113.69 5.771 2.09zm13.133 27.23h-4.676v-7.96h-20.031v-4.15h24.707zm-21.557-24.11c-.773.7-1.16 1.57-1.16 2.58 0 1 .387 1.85 1.16 2.56.752.66 1.637.99 2.653.99a3.85 3.85 0 0 0 2.621-.99c.795-.71 1.194-1.56 1.194-2.56 0-1.01-.399-1.88-1.194-2.58-.752-.67-1.625-1-2.621-1-1.016 0-1.901.33-2.653 1zm16.881-2.43v-1.79h4.676v14.2h-4.676v-2.32h-4.61v-4.05h4.61v-2.06h-4.61V1245ZM351.157 1243.21c0 6.26.586 10.79 1.758 13.6 1.039 2.48 2.731 3.92 5.074 4.34v4.65c-2.188-.27-4.068-.99-5.637-2.16-1.592-1.21-2.798-2.83-3.616-4.84a11.113 11.113 0 0 1-3.88 4.84c-1.591 1.15-3.382 1.87-5.372 2.16v-4.61c2.322-.44 4.013-1.91 5.074-4.41 1.215-2.81 1.824-7.33 1.824-13.57zm10.778 0h4.676v28.62h-4.676zM393.709 1243.21c0 6.26.586 10.79 1.758 13.6 1.039 2.48 2.73 3.92 5.074 4.34v4.65c-2.188-.27-4.068-.99-5.638-2.16-1.592-1.21-2.798-2.83-3.615-4.84a11.134 11.134 0 0 1-3.88 4.84c-1.592 1.15-3.383 1.87-5.373 2.16v-4.61c2.322-.44 4.014-1.91 5.074-4.41 1.216-2.81 1.825-7.33 1.825-13.57zm15.454 13.9v14.43h-4.676v-28.33h4.676v9.75h3.781v4.15zM426.277 1243.21c-.022 2.63.443 4.68 1.394 6.14 1.083 1.63 2.895 2.65 5.438 3.05v4.31a11.865 11.865 0 0 1-5.471-1.59c-1.703-1-2.953-2.24-3.748-3.75-.841 1.51-2.178 2.77-4.013 3.78-1.747.95-3.505 1.47-5.274 1.56v-4.31c2.544-.38 4.345-1.4 5.407-3.08.884-1.4 1.337-3.43 1.359-6.11zm11.31 14.56c2.011 1.71 3.017 3.85 3.017 6.44 0 2.58-1.006 4.74-3.017 6.46-1.858 1.62-4.035 2.42-6.534 2.42-2.52 0-4.699-.8-6.533-2.42-1.968-1.72-2.952-3.88-2.952-6.46 0-2.59.984-4.73 2.952-6.44 1.834-1.61 4.013-2.42 6.533-2.42 2.476 0 4.654.81 6.534 2.42zm-9.751 3.19c-.973.88-1.459 1.96-1.459 3.25 0 1.28.486 2.36 1.459 3.25.929.86 2.012 1.29 3.25 1.29 1.261 0 2.355-.43 3.283-1.29.973-.89 1.46-1.97 1.46-3.25 0-1.29-.487-2.37-1.46-3.25-.928-.84-2.022-1.26-3.283-1.26-1.238 0-2.321.42-3.25 1.26zm13.929-8.86v4.61h-4.676v-13.5h4.676v4.75h3.781v4.14zM458.68 1271.67v-11.58h-11.541v-4.14h28.621v4.14h-12.404v11.58zm11.01-15.22v-9.09h-21.589v-4.15h26.265v13.24zM210.563 1286.05c.018.57.143.99.377 1.27.225.28.539.42.943.42.431 0 .767-.13 1.01-.39.242-.25.363-.61.363-1.07 0-.45-.121-.79-.363-1-.18-.16-.562-.34-1.145-.52a5.737 5.737 0 0 1-1.104-.45c-.404-.23-.727-.49-.97-.79a2.102 2.102 0 0 1-.43-.78 3.104 3.104 0 0 1-.121-.89c0-.91.273-1.66.821-2.23.547-.58 1.252-.87 2.114-.87.798 0 1.449.27 1.952.8.521.56.808 1.33.862 2.33h-1.791c-.027-.46-.135-.8-.323-1.02-.18-.21-.427-.31-.74-.31-.351 0-.62.1-.808.31-.189.22-.283.52-.283.91 0 .15.009.26.027.36.035.1.09.18.161.26.117.12.283.22.498.31.135.06.359.13.674.22l.673.22c.673.26 1.194.65 1.562 1.17.377.51.565 1.12.565 1.83 0 1-.296 1.82-.888 2.46-.593.66-1.356.99-2.289.99-.898 0-1.63-.32-2.195-.96-.584-.65-.875-1.51-.875-2.58zM217.525 1289.4h-2.006l4.012-10.46h1.696l4.013 10.46h-2.06l-1.077-2.9h-3.474zm2.854-7.69-1.064 2.91h2.115zM227.22 1286.05c.018.57.143.99.377 1.27.224.28.539.42.943.42.43 0 .767-.13 1.009-.39.243-.25.364-.61.364-1.07 0-.45-.121-.79-.364-1-.179-.16-.561-.34-1.144-.52a5.737 5.737 0 0 1-1.104-.45c-.404-.23-.727-.49-.97-.79a2.117 2.117 0 0 1-.431-.78 3.14 3.14 0 0 1-.121-.89c0-.91.274-1.66.822-2.23.547-.58 1.251-.87 2.113-.87.799 0 1.45.27 1.953.8.521.56.808 1.33.862 2.33h-1.791c-.027-.46-.135-.8-.323-1.02-.18-.21-.427-.31-.741-.31-.35 0-.619.1-.808.31-.188.22-.283.52-.283.91 0 .15.009.26.027.36.036.1.09.18.162.26.117.12.283.22.498.31.135.06.359.13.673.22l.674.22c.673.26 1.194.65 1.562 1.17.377.51.565 1.12.565 1.83 0 1-.296 1.82-.889 2.46-.592.66-1.355.99-2.289.99-.897 0-1.629-.32-2.194-.96-.584-.65-.875-1.51-.875-2.58zM234.182 1289.4h-2.007l4.013-10.46h1.696l4.013 10.46h-2.06l-1.077-2.9h-3.474zm2.854-7.69-1.064 2.91h2.114zM242.665 1289.4v-10.46h1.804l4.403 6.89v-6.89h1.858v10.46h-1.723l-4.457-7.08v7.08zM262.512 1283.88c-.081 1.73-.615 3.12-1.602 4.17-.97 1.03-2.186 1.54-3.649 1.54-.754 0-1.464-.16-2.128-.47a5.34 5.34 0 0 1-1.763-1.33 5.378 5.378 0 0 1-.97-1.69 5.982 5.982 0 0 1-.336-2c0-.73.134-1.43.403-2.08.27-.66.664-1.25 1.185-1.77a4.83 4.83 0 0 1 1.67-1.14c.619-.25 1.306-.37 2.06-.37 1.041 0 1.957.26 2.747.79.799.54 1.431 1.34 1.898 2.4h-2.221c-.342-.44-.719-.77-1.132-.97-.412-.2-.884-.3-1.413-.3-.44 0-.848.08-1.225.23-.387.17-.732.41-1.037.73-.332.34-.584.72-.754 1.15-.171.43-.256.88-.256 1.34 0 .5.076.96.229 1.39.161.43.395.8.7 1.12.314.34.678.6 1.091.79.394.18.812.27 1.252.27.655 0 1.225-.15 1.71-.47.502-.32.897-.81 1.185-1.45h-3.205v-1.88zM272.894 1285.21h-8.335v-1.63h8.335zM285.457 1283.88c-.081 1.73-.615 3.12-1.603 4.17-.969 1.03-2.185 1.54-3.648 1.54-.755 0-1.464-.16-2.128-.47a5.34 5.34 0 0 1-1.763-1.33 5.397 5.397 0 0 1-.97-1.69 5.957 5.957 0 0 1-.337-2c0-.73.135-1.43.404-2.08.27-.66.664-1.25 1.185-1.77.494-.51 1.05-.89 1.67-1.14.619-.25 1.306-.37 2.06-.37 1.041 0 1.956.26 2.746.79.799.54 1.432 1.34 1.899 2.4h-2.222c-.341-.44-.718-.77-1.131-.97-.413-.2-.884-.3-1.413-.3-.44 0-.849.08-1.226.23a3.22 3.22 0 0 0-1.037.73c-.332.34-.583.72-.753 1.15-.171.43-.256.88-.256 1.34 0 .5.076.96.229 1.39.161.43.395.8.699 1.12.315.34.678.6 1.091.79.396.18.813.27 1.253.27.654 0 1.225-.15 1.71-.47.502-.32.898-.81 1.185-1.45h-3.205v-1.88zM288.621 1278.94v6.57c0 .83.095 1.39.283 1.69.215.34.628.51 1.239.51.556 0 .937-.17 1.144-.51.189-.31.283-.87.283-1.69v-6.57h1.885v6.56c0 .61-.031 1.09-.095 1.44-.071.47-.214.86-.43 1.19-.315.48-.705.84-1.171 1.09-.467.24-.997.37-1.589.37-.647 0-1.208-.12-1.684-.36-.484-.24-.893-.6-1.224-1.1a2.906 2.906 0 0 1-.472-1.26c-.036-.28-.054-.74-.054-1.37v-6.56zM304.08 1279.71c.592.52.889 1.26.889 2.21 0 .34-.068.66-.202.96-.135.3-.332.58-.593.82.413.24.731.57.956 1 .233.43.35.9.35 1.42 0 .48-.099.95-.296 1.41-.189.44-.44.8-.754 1.08-.369.31-.79.53-1.266.65-.368.09-.857.14-1.468.14h-2.571v-10.46h2.424c1.086 0 1.929.26 2.531.77zm-2.141 7.88c.61 0 1.045-.11 1.306-.31.26-.2.391-.53.391-1 0-.51-.14-.89-.418-1.14-.278-.24-.704-.37-1.279-.37h-.969v2.82zm-.727-4.48c.7 0 1.185-.08 1.454-.24.278-.18.417-.5.417-.96 0-.43-.112-.73-.336-.9-.225-.16-.606-.24-1.144-.24h-.62v2.34zM308.658 1278.94v6.57c0 .83.095 1.39.283 1.69.215.34.628.51 1.239.51.556 0 .937-.17 1.144-.51.189-.31.283-.87.283-1.69v-6.57h1.885v6.56c0 .61-.031 1.09-.095 1.44-.071.47-.214.86-.43 1.19-.315.48-.705.84-1.171 1.09-.467.24-.997.37-1.589.37-.647 0-1.208-.12-1.684-.36-.484-.24-.893-.6-1.224-1.1a2.906 2.906 0 0 1-.472-1.26c-.036-.28-.054-.74-.054-1.37v-6.56zM316.334 1286.05c.018.57.144.99.377 1.27.224.28.538.42.942.42.431 0 .768-.13 1.01-.39.242-.25.363-.61.363-1.07 0-.45-.121-.79-.363-1-.18-.16-.561-.34-1.144-.52a5.721 5.721 0 0 1-1.105-.45c-.403-.23-.726-.49-.969-.79a2.102 2.102 0 0 1-.43-.78 3.104 3.104 0 0 1-.122-.89c0-.91.274-1.66.821-2.23.548-.58 1.253-.87 2.114-.87.799 0 1.449.27 1.952.8.521.56.809 1.33.863 2.33h-1.791c-.028-.46-.135-.8-.324-1.02-.179-.21-.426-.31-.74-.31-.35 0-.619.1-.808.31-.189.22-.283.52-.283.91 0 .15.009.26.028.36.035.1.089.18.161.26.116.12.283.22.498.31.135.06.359.13.674.22l.672.22c.673.26 1.194.65 1.562 1.17.377.51.565 1.12.565 1.83 0 1-.296 1.82-.888 2.46-.592.66-1.356.99-2.289.99-.898 0-1.629-.32-2.195-.96-.584-.65-.875-1.51-.875-2.58zM323.296 1289.4h-2.006l4.012-10.46h1.697l4.012 10.46h-2.06l-1.077-2.9H324.4Zm2.854-7.69-1.063 2.91h2.113zM331.779 1289.4v-10.46h1.804l4.403 6.89v-6.89h1.859v10.46h-1.724l-4.457-7.08v7.08zM345.514 1289.4v-10.46h2.491l2.692 7.29 2.666-7.29h2.478v10.46h-1.791v-7.37l-2.693 7.37h-1.333l-2.679-7.33v7.33zM357.471 1289.4v-10.46h5.588v1.8h-3.704v2.51h3.704v1.78h-3.704v2.51h3.704v1.86zM365.577 1289.4v-8.64h-1.993v-1.82h5.871v1.82h-2.007v8.64zM376.335 1283.99c-.413.55-.982.95-1.71 1.19l3.057 4.22h-2.357l-2.827-4.02h-.107v4.02h-1.859v-10.46h2.504c.602 0 1.046.02 1.333.06.441.06.813.19 1.118.38.44.25.789.63 1.05 1.13.27.48.404 1.01.404 1.58 0 .73-.202 1.36-.606 1.9zm-1.71-2.93c-.278-.21-.74-.32-1.387-.32h-.847v2.84h.807c.664 0 1.135-.11 1.413-.32.297-.21.445-.57.445-1.08 0-.53-.144-.9-.431-1.12zM378.518 1282.02c.259-.66.65-1.25 1.171-1.77.502-.5 1.054-.87 1.656-1.13a5.31 5.31 0 0 1 1.979-.38c.7 0 1.365.13 1.993.38.619.26 1.18.64 1.683 1.14a5.5 5.5 0 0 1 1.172 1.76c.277.65.417 1.35.417 2.08 0 .72-.121 1.41-.363 2.04-.234.64-.571 1.2-1.01 1.69-.531.57-1.122 1-1.777 1.3-.666.31-1.374.46-2.129.46a4.97 4.97 0 0 1-2.126-.47 5.354 5.354 0 0 1-1.764-1.33 5.417 5.417 0 0 1-.97-1.69 5.982 5.982 0 0 1-.337-2c0-.73.135-1.43.405-2.08zm1.75 3.48c.162.43.395.8.7 1.12.314.34.678.6 1.091.79.394.18.812.27 1.251.27.962 0 1.76-.34 2.398-1.03.637-.67.955-1.53.955-2.56 0-.44-.08-.85-.242-1.24a3.415 3.415 0 0 0-.687-1.08c-.349-.39-.713-.68-1.09-.85a3.28 3.28 0 0 0-1.334-.26c-.448 0-.861.08-1.238.23-.386.17-.727.41-1.023.73-.332.34-.584.72-.754 1.15-.171.43-.256.88-.256 1.34 0 .5.076.96.229 1.39zM389.923 1289.4v-10.46h2.504c.601 0 1.046.02 1.333.06.44.06.812.19 1.118.38.439.25.789.63 1.05 1.13.269.48.404 1.01.404 1.58 0 .96-.328 1.74-.983 2.35-.664.63-1.548.94-2.653.94h-.915v4.02zm2.666-5.82c.664 0 1.135-.11 1.413-.32.297-.21.444-.57.444-1.08 0-.53-.143-.9-.43-1.12-.279-.21-.741-.32-1.387-.32h-.848v2.84zM397.8 1282.02c.26-.66.65-1.25 1.171-1.77a5.32 5.32 0 0 1 1.656-1.13 5.31 5.31 0 0 1 1.979-.38c.701 0 1.365.13 1.994.38.619.26 1.179.64 1.682 1.14.512.52.903 1.11 1.172 1.76.277.65.417 1.35.417 2.08 0 .72-.121 1.41-.363 2.04-.234.64-.57 1.2-1.01 1.69-.53.57-1.122 1-1.777 1.3a4.97 4.97 0 0 1-2.128.46 4.97 4.97 0 0 1-2.127-.47 5.354 5.354 0 0 1-1.764-1.33 5.417 5.417 0 0 1-.97-1.69 5.982 5.982 0 0 1-.336-2c0-.73.134-1.43.404-2.08zm1.75 3.48c.162.43.395.8.7 1.12.315.34.678.6 1.091.79.394.18.812.27 1.252.27.961 0 1.76-.34 2.397-1.03.637-.67.955-1.53.955-2.56 0-.44-.08-.85-.242-1.24a3.43 3.43 0 0 0-.686-1.08c-.35-.39-.714-.68-1.091-.85-.386-.17-.83-.26-1.333-.26-.448 0-.862.08-1.239.23-.385.17-.727.41-1.023.73-.332.34-.584.72-.754 1.15-.171.43-.256.88-.256 1.34 0 .5.076.96.229 1.39zM409.205 1289.4v-10.46h1.885v8.6h3.205v1.86zM415.426 1289.4v-10.46h1.884v10.46zM420.341 1289.4v-8.64h-1.993v-1.82h5.871v1.82h-2.007v8.64zM426.428 1289.4h-2.006l4.012-10.46h1.697l4.012 10.46h-2.06l-1.077-2.9h-3.474zm2.854-7.69-1.063 2.91h2.113zM434.911 1289.4v-10.46h1.804l4.403 6.89v-6.89h1.859v10.46h-1.724l-4.457-7.08v7.08zM456.267 1288.81c-.79.52-1.702.78-2.734.78-.763 0-1.476-.16-2.141-.47a5.095 5.095 0 0 1-1.764-1.33 5.395 5.395 0 0 1-.969-1.69 5.982 5.982 0 0 1-.337-2c0-.73.135-1.42.405-2.07.268-.66.664-1.25 1.184-1.78a5.12 5.12 0 0 1 1.656-1.13c.619-.25 1.28-.38 1.98-.38 1.05 0 1.975.27 2.773.81.826.56 1.472 1.37 1.939 2.44h-2.127c-.332-.47-.714-.81-1.145-1.03-.422-.2-.907-.3-1.454-.3-.449 0-.862.08-1.239.23-.386.17-.727.41-1.023.73a3.35 3.35 0 0 0-.767 1.15c-.171.43-.256.88-.256 1.34 0 .5.076.96.229 1.39.161.43.399.8.713 1.12.305.34.664.6 1.078.79.403.18.825.27 1.265.27.529 0 1.001-.1 1.413-.31.422-.21.79-.53 1.105-.95h2.221c-.52 1.05-1.189 1.85-2.005 2.39zM459.58 1289.4v-10.46h1.885v10.46zM464.495 1289.4v-8.64h-1.993v-1.82h5.871v1.82h-2.007v8.64zM473.597 1289.4h-1.885v-3.86l-3.151-6.6h2.114l2.007 4.48 1.979-4.48h2.101l-3.165 6.68z" style="fill:#2c2c2b;stroke:none" transform="matrix(7.76398 0 0 7.76398 -792.99 -9603.105)"/></svg>