<svg xmlns="http://www.w3.org/2000/svg" width="657.60297mm" height="686.76538mm" viewBox="0 0 657.60297 686.76538"><defs><clipPath id="a" clipPathUnits="userSpaceOnUse"><path d="M0 841.89h595.275V0H0Z"/></clipPath><clipPath id="b" clipPathUnits="userSpaceOnUse"><path d="M162.402 579.416c-2.867-5.235-4.682-11.386-4.499-17.385a48.724 48.724 0 0 1 1.158-9.139c.041-.249.1-.499.034-.519-.06-.017-.126.177-.209.391-1.685 5.811-4.385 20.385 5.231 34.138.384.589.118.639-.194.561-2.473-.905-6.15-3.245-8.047-5.59-4.417-5.466-5.104-12.231-4.72-19.037.083-1.461.251-2.939.583-4.374.066-.438-.057-.436-.195-.207-1.806 4.179-2.58 11.609-.547 19.056.06.347-.064.673-.618.109-1.631-1.975-2.994-4.175-3.963-6.679-2.924-7.526-2.781-16.559.693-23.771 3.64-7.557 10.828-13.34 18.767-15.838 8.845-2.78 18.959-3.642 28.08-1.853 4.158.815 8.146 2.292 11.55 4.867 3.817 2.886 5.561 7.454 5.811 12.17.494 9.273-7.937 12.301-15.099 15.005-2.411.912-5.027 1.869-7.226 3.229-4.358 2.7-5.08 8.086-1.802 12.093 2.749 3.362 6.872 4.582 11.062 3.699 3.853-.816 6.73-2.134 10.41-3.827 2.592-1.193 3.481-1.002 1.831.334-.949.766-2.412 1.333-3.173 3.813-1.97 6.419-9.678 9.254-15.512 8.77-9.231-.765-14.576-4.474-18.246-10.472-1.919-3.136-2.627-7.967-1.46-11.533 1.571-4.805 5.95-7.412 10.197-9.579 2.548-1.297 5.135-2.527 7.666-3.864 5.786-3.055 6.735-10.054 1.425-13.996-5.247-3.889-13.32-2.444-18.387 1.195-5.701 4.096-8.699 11.121-8.698 18.12.004 13.629 6.71 25.141 18.818 29.545 1.816.773 1.34 1.345-.148 1.449-.299.007-.597.01-.892.01-8.567 0-15.349-2.985-19.681-10.891"/></clipPath><clipPath id="d" clipPathUnits="userSpaceOnUse"><path d="M160.575 454.318c-2.865-5.236-4.682-11.387-4.5-17.385.09-2.994.486-6.141 1.159-9.138.04-.25.1-.5.035-.52-.06-.017-.127.177-.21.392-1.684 5.81-4.384 20.383 5.231 34.136.385.59.118.64-.194.561-2.472-.904-6.149-3.244-8.046-5.59-4.417-5.465-5.103-12.231-4.72-19.037.082-1.459.251-2.938.582-4.374.066-.437-.055-.434-.193-.207-1.808 4.18-2.581 11.61-.548 19.056.059.347-.065.674-.619.11-1.631-1.976-2.993-4.175-3.963-6.679-2.924-7.526-2.78-16.559.693-23.77 3.64-7.558 10.827-13.341 18.767-15.84 8.846-2.779 18.96-3.641 28.081-1.851 4.157.813 8.146 2.29 11.551 4.866 3.816 2.887 5.559 7.454 5.81 12.17.493 9.274-7.939 12.301-15.1 15.006-2.41.91-5.025 1.868-7.224 3.229-4.361 2.7-5.082 8.085-1.804 12.092 2.75 3.361 6.873 4.583 11.062 3.698 3.853-.815 6.731-2.133 10.41-3.826 2.592-1.193 3.481-1.002 1.831.333-.948.768-2.411 1.334-3.172 3.813-1.971 6.419-9.679 9.255-15.513 8.771-9.231-.764-14.575-4.475-18.245-10.471-1.92-3.138-2.628-7.968-1.461-11.535 1.571-4.804 5.95-7.411 10.198-9.578 2.547-1.298 5.134-2.527 7.665-3.865 5.786-3.054 6.736-10.053 1.424-13.996-5.245-3.889-13.319-2.442-18.386 1.196-5.7 4.095-8.698 11.12-8.698 18.12.003 13.629 6.71 25.141 18.818 29.545 1.816.772 1.341 1.345-.147 1.448-.298.007-.595.011-.889.011-8.568 0-15.352-2.984-19.685-10.891"/></clipPath><clipPath id="f" clipPathUnits="userSpaceOnUse"><path d="M0 841.89h595.275V0H0Z"/></clipPath><clipPath id="g" clipPathUnits="userSpaceOnUse"><path d="M37.826 303.052c-2.116-3.863-3.455-8.404-3.322-12.833.066-2.209.358-4.533.856-6.745.029-.185.075-.368.024-.384-.043-.012-.092.132-.154.288-1.243 4.29-3.236 15.048 3.861 25.2.284.436.087.473-.143.415-1.825-.669-4.539-2.395-5.938-4.127-3.262-4.034-3.768-9.027-3.485-14.053.061-1.078.186-2.169.43-3.228.048-.323-.042-.321-.145-.156-1.333 3.09-1.904 8.573-.401 14.07.043.256-.049.496-.459.08-1.203-1.46-2.209-3.082-2.926-4.931-2.158-5.555-2.051-12.222.512-17.545 2.688-5.579 7.995-9.849 13.854-11.69 6.529-2.054 13.994-2.691 20.729-1.369 3.068.601 6.012 1.692 8.526 3.592 2.817 2.131 4.104 5.503 4.289 8.984.364 6.845-5.861 9.08-11.146 11.077-1.781.671-3.71 1.378-5.333 2.383-3.218 1.992-3.751 5.968-1.333 8.926 2.031 2.48 5.074 3.383 8.167 2.73 2.844-.602 4.968-1.575 7.685-2.824 1.912-.881 2.569-.74 1.351.246-.7.565-1.78.984-2.343 2.813-1.454 4.739-7.143 6.832-11.451 6.475-6.812-.565-10.756-3.302-13.466-7.729-1.419-2.316-1.941-5.882-1.079-8.514 1.16-3.547 4.392-5.471 7.528-7.071 1.88-.958 3.788-1.865 5.658-2.852 4.272-2.256 4.973-7.423 1.052-10.331-3.873-2.872-9.832-1.804-13.573.881-4.208 3.023-6.421 8.209-6.42 13.376.003 10.059 4.953 18.559 13.89 21.809 1.341.57.99.992-.107 1.07-.218.005-.435.008-.65.008-6.328 0-11.339-2.202-14.538-8.041"/></clipPath><clipPath id="i" clipPathUnits="userSpaceOnUse"><path d="M0 841.89h595.275V0H0Z"/></clipPath><clipPath id="j" clipPathUnits="userSpaceOnUse"><path d="M291.396 301.198c-2.155-3.929-3.516-8.546-3.38-13.05.071-2.25.366-4.612.871-6.863.03-.185.075-.374.024-.386-.043-.015-.094.131-.156.291-1.264 4.363-3.29 15.298 3.926 25.625.289.446.087.482-.146.421-1.857-.68-4.615-2.435-6.04-4.193-3.315-4.106-3.83-9.184-3.543-14.292.062-1.097.19-2.207.437-3.286.05-.33-.04-.324-.146-.155-1.354 3.139-1.934 8.718-.408 14.306.043.264-.051.506-.466.082-1.224-1.483-2.249-3.135-2.977-5.012-2.191-5.65-2.085-12.431.522-17.844 2.735-5.673 8.127-10.013 14.087-11.889 6.642-2.089 14.233-2.737 21.08-1.394 3.123.613 6.114 1.725 8.671 3.655 2.865 2.164 4.174 5.594 4.362 9.137.368 6.959-5.959 9.231-11.336 11.262-1.809.684-3.771 1.402-5.421 2.426-3.272 2.025-3.814 6.069-1.356 9.077 2.064 2.522 5.159 3.439 8.305 2.775 2.891-.612 5.055-1.6 7.814-2.872 1.945-.895 2.614-.753 1.374.249-.712.575-1.808 1.002-2.382 2.863-1.478 4.818-7.265 6.949-11.642 6.587-6.928-.575-10.943-3.361-13.696-7.862-1.443-2.355-1.978-5.981-1.096-8.657 1.177-3.607 4.465-5.565 7.653-7.193 1.913-.975 3.851-1.897 5.755-2.9 4.347-2.294 5.056-7.547 1.068-10.508-3.937-2.919-9.997-1.834-13.802.901-4.279 3.072-6.529 8.348-6.529 13.597.002 10.231 5.036 18.875 14.126 22.179 1.362.581 1.006 1.011-.111 1.089a29.42 29.42 0 0 1-.661.008c-6.435 0-11.529-2.239-14.781-8.174"/></clipPath><linearGradient id="c" x1="0" x2="1" y1="0" y2="0" gradientTransform="scale(63.37683 -63.37683) rotate(-60.849 -5.866 -6.451)" gradientUnits="userSpaceOnUse" spreadMethod="pad"><stop offset="0" style="stop-opacity:1;stop-color:#c4161d"/><stop offset="0.505618" style="stop-opacity:1;stop-color:#ef3620"/><stop offset="1" style="stop-opacity:1;stop-color:#fbc707"/></linearGradient><linearGradient id="e" x1="0" x2="1" y1="0" y2="0" gradientTransform="scale(63.37683 -63.37683) rotate(-60.849 -4.2 -5.44)" gradientUnits="userSpaceOnUse" spreadMethod="pad"><stop offset="0" style="stop-opacity:1;stop-color:#c4161d"/><stop offset="0.505618" style="stop-opacity:1;stop-color:#ef3620"/><stop offset="1" style="stop-opacity:1;stop-color:#fbc707"/></linearGradient><linearGradient id="h" x1="0" x2="1" y1="0" y2="0" gradientTransform="scale(46.78193 -46.78193) rotate(-60.849 -4.474 -3.626)" gradientUnits="userSpaceOnUse" spreadMethod="pad"><stop offset="0" style="stop-opacity:1;stop-color:#c4161d"/><stop offset="0.505618" style="stop-opacity:1;stop-color:#ef3620"/><stop offset="1" style="stop-opacity:1;stop-color:#fbc707"/></linearGradient><linearGradient id="k" x1="0" x2="1" y1="0" y2="0" gradientTransform="scale(47.5736 -47.5736) rotate(-60.849 -1.691 -8.079)" gradientUnits="userSpaceOnUse" spreadMethod="pad"><stop offset="0" style="stop-opacity:1;stop-color:#c4161d"/><stop offset="0.505618" style="stop-opacity:1;stop-color:#ef3620"/><stop offset="1" style="stop-opacity:1;stop-color:#fbc707"/></linearGradient></defs><g clip-path="url(#a)" transform="matrix(8.84356 0 0 -8.84356 -1243.096 4114.104)"><path d="M0 0c-2.054.854-7.771-.104-7.992-2.66-.099-1.141 1.646-1.36 2.395-1.445 1.97-.229 3.93-.052 5.898.069.561.034 1.233.035 1.5.632.3.668.272 1.528-.067 2.177C1.369-.527.718-.244 0 0" style="fill:#1aae48;fill-opacity:1;fill-rule:nonzero;stroke:none" transform="translate(171.318 519.621)"/><path d="M0 0c-1.449 1.104-3.001 1.9-4.618 2.501-4.663-6.632-13.432-9.308-21.176-9.794-6.044-.379-12.123.097-18.07 1.21-7.387 1.378-14.613 4.786-19.956 10.128A27.265 27.265 0 0 1-66.8 2.75c-2.349-1.194-5.587-3.687-5.825-6.53-.457-5.477 9.042-5.801 12.622-6.076 2.528-.195 5.056-.24 7.589-.304 2.959-.074 5.931.242 8.886-.026 1.558-.139 4.459-.541 5.136-2.302.86-2.228-1.598-4.171-.327-6.181 1.737-2.744 8.613-2.495 19.431.209C-8.504-15.765 6.903-5.26 0 0" style="fill:#1aae48;fill-opacity:1;fill-rule:nonzero;stroke:none" transform="translate(215.032 533.261)"/></g><g clip-path="url(#b)" transform="matrix(8.84356 0 0 -8.84356 -1243.096 4114.104)"><path d="M162.402 579.416c-2.867-5.235-4.682-11.386-4.499-17.385a48.724 48.724 0 0 1 1.158-9.139c.041-.249.1-.499.034-.519-.06-.017-.126.177-.209.391-1.685 5.811-4.385 20.385 5.231 34.138.384.589.118.639-.194.561-2.473-.905-6.15-3.245-8.047-5.59-4.417-5.466-5.104-12.231-4.72-19.037.083-1.461.251-2.939.583-4.374.066-.438-.057-.436-.195-.207-1.806 4.179-2.58 11.609-.547 19.056.06.347-.064.673-.618.109-1.631-1.975-2.994-4.175-3.963-6.679-2.924-7.526-2.781-16.559.693-23.771 3.64-7.557 10.828-13.34 18.767-15.838 8.845-2.78 18.959-3.642 28.08-1.853 4.158.815 8.146 2.292 11.55 4.867 3.817 2.886 5.561 7.454 5.811 12.17.494 9.273-7.937 12.301-15.099 15.005-2.411.912-5.027 1.869-7.226 3.229-4.358 2.7-5.08 8.086-1.802 12.093 2.749 3.362 6.872 4.582 11.062 3.699 3.853-.816 6.73-2.134 10.41-3.827 2.592-1.193 3.481-1.002 1.831.334-.949.766-2.412 1.333-3.173 3.813-1.97 6.419-9.678 9.254-15.512 8.77-9.231-.765-14.576-4.474-18.246-10.472-1.919-3.136-2.627-7.967-1.46-11.533 1.571-4.805 5.95-7.412 10.197-9.579 2.548-1.297 5.135-2.527 7.666-3.864 5.786-3.055 6.735-10.054 1.425-13.996-5.247-3.889-13.32-2.444-18.387 1.195-5.701 4.096-8.699 11.121-8.698 18.12.004 13.629 6.71 25.141 18.818 29.545 1.816.773 1.34 1.345-.148 1.449-.299.007-.597.01-.892.01-8.567 0-15.349-2.985-19.681-10.891" style="fill:url(#c);stroke:none"/></g><path d="M0 0v-25.249h-8.151v49.56H0V7.246h6.617V0Zm-26.97 23.531c0-10.952 1.024-15.798 3.075-20.711 1.818-4.336 4.779-6.871 8.882-7.605v-8.127c-3.831.463-7.121 1.721-9.867 3.773-2.787 2.127-4.894 4.952-6.325 8.475-1.47-3.485-3.733-6.309-6.79-8.475-2.786-2.012-5.921-3.271-9.402-3.773v8.069c4.063.773 7.022 3.345 8.881 7.72 2.128 4.914 3.193 9.742 3.193 20.654z" style="fill:#254aa5;fill-opacity:1;fill-rule:nonzero;stroke:none" transform="matrix(8.84356 0 0 -8.84356 1268.25 -742.626)"/><path d="M0 0v-25.249h-8.15V24.31H0V7.246h6.617V0Zm-36.001 11.895c-1.157-1.78-1.735-3.986-1.735-6.617 0-2.555.578-4.702 1.735-6.444 1.311-1.974 3.084-2.96 5.321-2.96 2.237 0 4.03.986 5.381 2.96 1.233 1.78 1.85 3.929 1.85 6.444 0 2.591-.617 4.798-1.85 6.617-1.351 2.013-3.144 3.02-5.381 3.02s-4.01-1.007-5.321-3.02m17.292 3.3a16.748 16.748 0 0 0 2.593-4.737c.612-1.695.921-3.449.921-5.259 0-4.546-1.293-8.399-3.875-11.556-2.857-3.545-6.696-5.317-11.515-5.317-4.899 0-8.775 1.772-11.63 5.317C-44.8-3.161-46.09.691-46.09 5.199c0 1.771.287 3.525.866 5.259a16.574 16.574 0 0 0 2.538 4.737h-4.391v7.245h11.955v5.672h8.755V22.44h12.158v-7.245z" style="fill:#254aa5;fill-opacity:1;fill-rule:nonzero;stroke:none" transform="matrix(8.84356 0 0 -8.84356 1793.76 -742.474)"/><path d="M0 0v21.869c-.073 3.115-1.591 4.913-5.074 5.039h-36.302v-7.246H-8.15V0h-37.141v-7.246h20.202v-15.691h8.15v15.691h21.71V0Z" style="fill:#254aa5;fill-opacity:1;fill-rule:nonzero;stroke:none" transform="matrix(8.84356 0 0 -8.84356 2299.19 -719.886)"/><path d="M0 0c-2.054.854-7.771-.104-7.992-2.659C-8.09-3.8-6.346-4.02-5.598-4.105c1.971-.229 3.93-.051 5.899.069.561.034 1.233.035 1.5.633a2.598 2.598 0 0 1-.066 2.176C1.369-.526.719-.243 0 0" style="fill:#1aae48;fill-opacity:1;fill-rule:nonzero;stroke:none" transform="matrix(8.84356 0 0 -8.84356 255.814 625.12)"/><path d="M0 0c-1.45 1.104-3.002 1.9-4.619 2.501-4.663-6.633-13.431-9.308-21.177-9.794-6.043-.379-12.122.097-18.069 1.209-7.387 1.38-14.613 4.786-19.956 10.129a27.545 27.545 0 0 1-2.98-1.295c-2.349-1.193-5.586-3.687-5.824-6.53-.458-5.477 9.041-5.8 12.621-6.075 2.528-.196 5.056-.242 7.589-.305 2.959-.074 5.931.241 8.887-.026 1.557-.139 4.457-.541 5.136-2.302.859-2.228-1.599-4.171-.328-6.181 1.737-2.744 8.613-2.495 19.43.208C-8.505-15.766 6.902-5.26 0 0" style="fill:#1aae48;fill-opacity:1;fill-rule:nonzero;stroke:none" transform="matrix(8.84356 0 0 -8.84356 642.405 504.489)"/><g clip-path="url(#d)" transform="matrix(8.84356 0 0 -8.84356 -1243.096 4114.104)"><path d="M160.575 454.318c-2.865-5.236-4.682-11.387-4.5-17.385.09-2.994.486-6.141 1.159-9.138.04-.25.1-.5.035-.52-.06-.017-.127.177-.21.392-1.684 5.81-4.384 20.383 5.231 34.136.385.59.118.64-.194.561-2.472-.904-6.149-3.244-8.046-5.59-4.417-5.465-5.103-12.231-4.72-19.037.082-1.459.251-2.938.582-4.374.066-.437-.055-.434-.193-.207-1.808 4.18-2.581 11.61-.548 19.056.059.347-.065.674-.619.11-1.631-1.976-2.993-4.175-3.963-6.679-2.924-7.526-2.78-16.559.693-23.77 3.64-7.558 10.827-13.341 18.767-15.84 8.846-2.779 18.96-3.641 28.081-1.851 4.157.813 8.146 2.29 11.551 4.866 3.816 2.887 5.559 7.454 5.81 12.17.493 9.274-7.939 12.301-15.1 15.006-2.41.91-5.025 1.868-7.224 3.229-4.361 2.7-5.082 8.085-1.804 12.092 2.75 3.361 6.873 4.583 11.062 3.698 3.853-.815 6.731-2.133 10.41-3.826 2.592-1.193 3.481-1.002 1.831.333-.948.768-2.411 1.334-3.172 3.813-1.971 6.419-9.679 9.255-15.513 8.771-9.231-.764-14.575-4.475-18.245-10.471-1.92-3.138-2.628-7.968-1.461-11.535 1.571-4.804 5.95-7.411 10.198-9.578 2.547-1.298 5.134-2.527 7.665-3.865 5.786-3.054 6.736-10.053 1.424-13.996-5.245-3.889-13.319-2.442-18.386 1.196-5.7 4.095-8.698 11.12-8.698 18.12.003 13.629 6.71 25.141 18.818 29.545 1.816.772 1.341 1.345-.147 1.448-.298.007-.595.011-.889.011-8.568 0-15.352-2.984-19.685-10.891" style="fill:url(#e);stroke:none"/></g><g clip-path="url(#f)" transform="matrix(8.84356 0 0 -8.84356 -1243.096 4114.104)"><path d="M0 0c-6.873 2.287-8.08 3.786-8.08 6.083 0 1.918 1.753 4.155 6.691 4.155 2.124 0 3.871-.312 5.181-.668C5.866 9.094 7.828 8.448 9.3 7.903l3.044 7.743-1.692.853c-2.923 1.473-7.233 2.317-11.825 2.317-10.45 0-18.034-4.63-18.034-13.349 0-6.61 4.692-10.758 14.343-13.776 6.281-2.019 7.513-3.821 7.513-6.252 0-4.526-5.379-5.013-7.692-5.013-.859 0-1.732.054-2.6.161-3.995.445-8.272 2.037-10.181 2.811l-2.817-7.692s6.937-3.921 15.167-3.921c13.299 0 19.252 7.074 19.252 14.088C13.778-5.799 6.813-2.313 0 0" style="fill:#254aa5;fill-opacity:1;fill-rule:nonzero;stroke:none" transform="translate(258.791 433.353)"/><path d="m0 0 .011-.03.01.03Z" style="fill:#254aa5;fill-opacity:1;fill-rule:nonzero;stroke:none" transform="translate(297.85 441.96)"/><path d="M0 0h10.22v-17.271h19.008V0H39.447v-46.091H29.228v20.849H10.22v-20.849H0Z" style="fill:#254aa5;fill-opacity:1;fill-rule:nonzero;stroke:none" transform="translate(325.323 452.231)"/><path d="m0 0 .013-.03.008.03Z" style="fill:#254aa5;fill-opacity:1;fill-rule:nonzero;stroke:none" transform="translate(391.868 441.96)"/><path d="M0 0c-.006.02-.016.04-.021.06l-.1.263c-1.111 2.81-3.733 4.851-6.877 5.072h-1.791c-3.118-.218-5.72-2.226-6.848-4.997l-15.362-41.094h10.508L-8.033-4.907l-.011.03h.021l-.01-.03L4.424-40.696h10.791z" style="fill:#254aa5;fill-opacity:1;fill-rule:nonzero;stroke:none" transform="translate(305.894 446.836)"/><path d="M0 0h-.001l-.062.173-.051.135c-1.109 2.818-3.734 4.866-6.884 5.087H-8.79c-3.109-.218-5.708-2.216-6.84-4.978l-15.368-41.113h10.506L-8.033-4.907l-.013.03h.022l-.009-.03L4.423-40.696h10.79z" style="fill:#254aa5;fill-opacity:1;fill-rule:nonzero;stroke:none" transform="translate(399.914 446.836)"/><path d="M0 0c-1.516.631-5.737-.076-5.899-1.963-.073-.843 1.214-1.005 1.767-1.068 1.454-.168 2.901-.037 4.354.051.414.026.91.027 1.107.467A1.913 1.913 0 0 1 1.28-.906C1.01-.389.531-.18 0 0" style="fill:#1aae48;fill-opacity:1;fill-rule:nonzero;stroke:none" transform="translate(44.408 258.914)"/><path d="M0 0c-1.07.815-2.216 1.403-3.408 1.848-3.442-4.897-9.915-6.871-15.632-7.23-4.462-.281-8.949.07-13.339.892-5.452 1.018-10.786 3.533-14.731 7.476a20.452 20.452 0 0 1-2.2-.956c-1.733-.882-4.124-2.722-4.299-4.82-.337-4.043 6.674-4.281 9.317-4.483 1.866-.146 3.732-.179 5.603-.225 2.184-.056 4.376.178 6.558-.02 1.15-.104 3.291-.399 3.792-1.7.632-1.644-1.18-3.079-.242-4.563 1.281-2.025 6.358-1.841 14.344.155C-6.276-11.636 5.095-3.881 0 0" style="fill:#1aae48;fill-opacity:1;fill-rule:nonzero;stroke:none" transform="translate(76.675 268.982)"/></g><g clip-path="url(#g)" transform="matrix(8.84356 0 0 -8.84356 -1243.096 4114.104)"><path d="M37.826 303.052c-2.116-3.863-3.455-8.404-3.322-12.833.066-2.209.358-4.533.856-6.745.029-.185.075-.368.024-.384-.043-.012-.092.132-.154.288-1.243 4.29-3.236 15.048 3.861 25.2.284.436.087.473-.143.415-1.825-.669-4.539-2.395-5.938-4.127-3.262-4.034-3.768-9.027-3.485-14.053.061-1.078.186-2.169.43-3.228.048-.323-.042-.321-.145-.156-1.333 3.09-1.904 8.573-.401 14.07.043.256-.049.496-.459.08-1.203-1.46-2.209-3.082-2.926-4.931-2.158-5.555-2.051-12.222.512-17.545 2.688-5.579 7.995-9.849 13.854-11.69 6.529-2.054 13.994-2.691 20.729-1.369 3.068.601 6.012 1.692 8.526 3.592 2.817 2.131 4.104 5.503 4.289 8.984.364 6.845-5.861 9.08-11.146 11.077-1.781.671-3.71 1.378-5.333 2.383-3.218 1.992-3.751 5.968-1.333 8.926 2.031 2.48 5.074 3.383 8.167 2.73 2.844-.602 4.968-1.575 7.685-2.824 1.912-.881 2.569-.74 1.351.246-.7.565-1.78.984-2.343 2.813-1.454 4.739-7.143 6.832-11.451 6.475-6.812-.565-10.756-3.302-13.466-7.729-1.419-2.316-1.941-5.882-1.079-8.514 1.16-3.547 4.392-5.471 7.528-7.071 1.88-.958 3.788-1.865 5.658-2.852 4.272-2.256 4.973-7.423 1.052-10.331-3.873-2.872-9.832-1.804-13.573.881-4.208 3.023-6.421 8.209-6.42 13.376.003 10.059 4.953 18.559 13.89 21.809 1.341.57.99.992-.107 1.07-.218.005-.435.008-.65.008-6.328 0-11.339-2.202-14.538-8.041" style="fill:url(#h);stroke:none"/></g><g clip-path="url(#i)" transform="matrix(8.84356 0 0 -8.84356 -1243.096 4114.104)"><path d="M0 0v-16.131h-5.207V15.53H0V4.628h4.228V0Zm-17.229 15.032c0-6.996.654-10.093 1.964-13.231 1.161-2.771 3.054-4.389 5.674-4.859V-8.25c-2.447.296-4.549 1.1-6.303 2.411-1.78 1.359-3.127 3.164-4.041 5.414-.939-2.226-2.385-4.03-4.337-5.414-1.781-1.285-3.784-2.089-6.007-2.411v5.155c2.595.494 4.486 2.138 5.674 4.932 1.36 3.14 2.04 6.224 2.04 13.195z" style="fill:#254aa5;fill-opacity:1;fill-rule:nonzero;stroke:none" transform="translate(122.225 272.663)"/><path d="M0 0v-16.13h-5.208v31.661H0V4.629h4.227V0Zm-23 7.599c-.739-1.136-1.108-2.546-1.108-4.227 0-1.633.369-3.004 1.108-4.117.839-1.261 1.971-1.892 3.401-1.892 1.428 0 2.574.631 3.437 1.892.787 1.138 1.182 2.51 1.182 4.117 0 1.655-.395 3.065-1.182 4.227-.863 1.286-2.009 1.928-3.437 1.928-1.43 0-2.562-.642-3.401-1.928m11.048 2.109a10.69 10.69 0 0 0 1.656-3.026 9.808 9.808 0 0 0 .588-3.361c0-2.904-.825-5.366-2.475-7.383-1.825-2.263-4.276-3.395-7.356-3.395-3.13 0-5.607 1.132-7.43 3.395-1.651 2.043-2.476 4.504-2.476 7.383 0 1.132.184 2.252.554 3.361.368 1.082.909 2.09 1.621 3.026h-2.805v4.628h7.638v3.623h5.592v-3.623h7.767V9.708Z" style="fill:#254aa5;fill-opacity:1;fill-rule:nonzero;stroke:none" transform="translate(160.188 272.651)"/><path d="M0 0v13.971c-.047 1.99-1.017 3.138-3.242 3.218h-23.192v-4.627h21.227V0h-23.727v-4.628h12.906v-10.024h5.207v10.024h13.87V0Z" style="fill:#254aa5;fill-opacity:1;fill-rule:nonzero;stroke:none" transform="translate(196.7 271.02)"/><path d="M0 0c-1.748.582-2.055.963-2.055 1.547 0 .487.447 1.056 1.702 1.056.54 0 .983-.08 1.317-.17a11.859 11.859 0 0 0 1.4-.423l.774 1.968-.43.216c-.743.375-1.839.59-3.006.59-2.658 0-4.585-1.178-4.585-3.394 0-1.681 1.192-2.735 3.646-3.502C.36-2.626.673-3.084.673-3.702c0-1.151-1.368-1.275-1.956-1.275-.217 0-.44.014-.66.042-1.016.113-2.103.517-2.589.714l-.716-1.956s1.764-.997 3.856-.997c3.381 0 4.895 1.8 4.895 3.581C3.503-1.475 1.732-.589 0 0" style="fill:#254aa5;fill-opacity:1;fill-rule:nonzero;stroke:none" transform="translate(128.247 305.517)"/><path d="m0 0 .003-.008L.006 0Z" style="fill:#254aa5;fill-opacity:1;fill-rule:nonzero;stroke:none" transform="translate(138.177 307.704)"/><path d="M0 0h2.598v-4.391h4.833V0h2.598v-11.719H7.431v5.301H2.598v-5.301H0Z" style="fill:#254aa5;fill-opacity:1;fill-rule:nonzero;stroke:none" transform="translate(145.162 310.316)"/><path d="m0 0 .003-.008L.005 0Z" style="fill:#254aa5;fill-opacity:1;fill-rule:nonzero;stroke:none" transform="translate(162.08 307.704)"/><path d="m0 0-.006.016-.025.066a2.038 2.038 0 0 1-1.749 1.29h-.455A2.04 2.04 0 0 1-3.976.102l-3.906-10.449h2.672l3.167 9.099-.003.008h.006l-.003-.008 3.168-9.099H3.868z" style="fill:#254aa5;fill-opacity:1;fill-rule:nonzero;stroke:none" transform="translate(140.223 308.944)"/><path d="m0 0-.017.044-.012.035A2.04 2.04 0 0 1-1.78 1.372h-.455A2.038 2.038 0 0 1-3.974.106l-3.907-10.453H-5.21l3.167 9.099-.003.008h.005l-.002-.008 3.168-9.099h2.742z" style="fill:#254aa5;fill-opacity:1;fill-rule:nonzero;stroke:none" transform="translate(164.126 308.944)"/><path d="M0 0v-18.888h-4.728v36.151H0V4.402h4.771V0Zm-18.871 17.263c0-8.034.756-13.917 2.263-17.647 1.344-3.333 3.462-5.257 6.345-5.769v-5.127c-2.481.312-4.637 1.263-6.467 2.862-1.994 1.738-3.542 4.173-4.646 7.308-1.135-3.05-2.791-5.486-4.97-7.308-1.889-1.57-3.95-2.521-6.187-2.862v5.082c2.885.57 5.022 2.508 6.428 5.814 1.562 3.73 2.345 9.613 2.345 17.647z" style="fill:#254aa5;fill-opacity:1;fill-rule:nonzero;stroke:none" transform="translate(476.584 280.191)"/><path d="M0 0v-18.888h-4.728v36.151H0V4.402h4.768V0Zm-25.785 8.76c-.944-1.512-1.417-3.292-1.417-5.343 0-2.022.473-3.745 1.417-5.169 1.076-1.624 2.52-2.435 4.323-2.435 1.777 0 3.219.811 4.324 2.435.995 1.452 1.497 3.175 1.497 5.169 0 2.051-.502 3.831-1.497 5.343-1.105 1.65-2.547 2.478-4.324 2.478-1.803 0-3.247-.828-4.323-2.478m11.88 2.692c.945-1.025 1.685-2.251 2.222-3.676.537-1.396.812-2.847.812-4.359 0-3.305-.876-6.096-2.626-8.374-1.941-2.506-4.57-3.76-7.885-3.76-3.341 0-5.994 1.267-7.959 3.802-1.753 2.278-2.629 5.056-2.629 8.332 0 1.481.256 2.936.767 4.359a11.546 11.546 0 0 0 2.266 3.676h-3.76v4.357h8.687v3.462h5.096v-3.462h8.727v-4.357z" style="fill:#254aa5;fill-opacity:1;fill-rule:nonzero;stroke:none" transform="translate(517.973 280.191)"/><path d="M0 0v-4.444h-15.561v-15.168h-4.692v15.168h-14.465V0h28.25v12.349h-27.038v4.358h31.767V0Z" style="fill:#254aa5;fill-opacity:1;fill-rule:nonzero;stroke:none" transform="translate(561.096 280.747)"/><path d="M0 0v-1.426h-4.854v-4.863h-1.46v4.863h-4.516V0h8.813v3.96h-8.435v1.399h9.911V0Z" style="fill:#393536;fill-opacity:1;fill-rule:nonzero;stroke:none" transform="translate(351.179 293.882)"/><path d="M362.071 299.241h1.477v-7.826h-1.477zm-3.642-1.385h-3.368v-3.22h3.368zm-4.314-6.153h1.476v-2.576h8.043v-1.412h-8.636c-.295 0-.513.079-.656.233-.151.164-.227.431-.227.796zm-.478 7.538h6.216v-4.932c0-.423-.078-.71-.228-.865-.127-.129-.342-.192-.644-.192h-4.474c-.311 0-.526.063-.643.192-.15.155-.227.447-.227.876z" style="fill:#393536;fill-opacity:1;fill-rule:nonzero;stroke:none"/><path d="M0 0v8.36h1.475V4.837H2.95V3.428H1.475v-6.66H0v1.822h-8.813V0h1.868v3.961h1.46V0h1.905v6.948h-4.728V8.36h6.191V0Z" style="fill:#393536;fill-opacity:1;fill-rule:nonzero;stroke:none" transform="translate(374.98 290.88)"/><path d="M0 0v-2.151h-1.477v5.564H0V1.426h1.486V0Zm-1.464-4.563h-6.518v-2.152h6.518zm-6.239 5.782A1.287 1.287 0 0 1-8.108.26c0-.365.134-.681.405-.946a1.28 1.28 0 0 1 .942-.397c.355 0 .675.134.96.397.286.275.43.59.43.946 0 .376-.144.695-.43.959a1.398 1.398 0 0 1-.96.371 1.32 1.32 0 0 1-.942-.371m-1.728-4.371H0v-3.932c0-.374-.082-.642-.24-.796-.133-.154-.349-.233-.645-.233h-7.662c-.296 0-.514.074-.66.22-.148.164-.224.43-.224.796zm5.004 4.768c.144-.18.255-.379.339-.589.094-.228.14-.465.14-.711 0-.815-.286-1.481-.859-2.002-.528-.484-1.17-.725-1.926-.725-.758 0-1.41.241-1.955.725-.581.521-.87 1.187-.87 2.002 0 .246.042.483.127.711.082.21.202.409.352.589h-.92v1.33h2.471v1.111h1.59V2.946h2.407v-1.33z" style="fill:#393536;fill-opacity:1;fill-rule:nonzero;stroke:none" transform="translate(393.666 295.828)"/><path d="M405.252 299.241h1.335v-11.593h-1.335zm-4.755-8.263c-.513-.54-1.222-.865-2.13-.973v1.452c.898.109 1.529.722 1.889 1.836.319.959.482 2.471.482 4.536h-1.121v1.412h2.405v-1.592c0-.346-.004-.653-.011-.917-.018-.31-.034-.597-.051-.864h1.136v3.373h1.309v-11.593h-1.309v6.742h-1.287c-.227-1.58-.663-2.717-1.312-3.412m-1.31 8.263v-1.453c0-2.641-.398-4.583-1.186-5.823-.546-.86-1.203-1.318-1.967-1.371v1.478c.639.112 1.11.64 1.412 1.591.304.941.454 2.33.454 4.166h-1.627v1.412z" style="fill:#393536;fill-opacity:1;fill-rule:nonzero;stroke:none"/><path d="M0 0v-6.056h-1.476V5.537H0V1.411h1.489V0Zm-8.042 2.811c-.295-.486-.441-1.057-.441-1.715 0-.648.146-1.201.441-1.658.334-.519.786-.782 1.349-.782.553 0 1.003.263 1.348.782.311.466.466 1.02.466 1.658 0 .658-.155 1.229-.466 1.715-.345.529-.795.794-1.348.794-.563 0-1.015-.265-1.349-.794m3.706.861c.293-.329.523-.721.691-1.178.169-.448.254-.914.254-1.398 0-1.06-.274-1.955-.82-2.685-.603-.806-1.424-1.208-2.458-1.208-1.042 0-1.871.408-2.483 1.221-.546.731-.818 1.621-.818 2.672 0 .475.078.942.238 1.398.167.448.403.841.705 1.178h-1.172V5.07h2.712v1.111h1.588V5.07h2.722V3.672Z" style="fill:#393536;fill-opacity:1;fill-rule:nonzero;stroke:none" transform="translate(419.483 293.704)"/><path d="M0 0h8.435v-1.412H-.593c-.302 0-.522.079-.656.233-.15.164-.224.435-.224.809v2.727H0Zm2.509 6.358H-.606c-.302 0-.521.078-.657.233-.142.165-.21.438-.21.823v2.7H0V7.771h8.435V6.358h-4.01Zm6.304-2.809H-1.855v1.412H8.813Z" style="fill:#393536;fill-opacity:1;fill-rule:nonzero;stroke:none" transform="translate(423.96 289.127)"/><path d="M0 0c-.462-.737-.691-1.606-.691-2.608 0-.988.229-1.829.691-2.522.526-.793 1.23-1.191 2.111-1.191.868 0 1.572.398 2.111 1.191.485.706.73 1.549.73 2.522 0 1.002-.245 1.871-.73 2.608-.539.807-1.243 1.21-2.111 1.21C1.23 1.21.526.807 0 0m5.8 1.314A5.456 5.456 0 0 0 6.883-.479a5.845 5.845 0 0 0 .396-2.129c0-1.613-.425-2.974-1.28-4.088-.947-1.223-2.23-1.834-3.85-1.834-1.629 0-2.927.616-3.882 1.855-.858 1.113-1.285 2.467-1.285 4.067 0 .724.125 1.434.375 2.129a5.56 5.56 0 0 0 1.106 1.793h-1.837v2.128H.868v1.69h2.486v-1.69h4.261V1.314Z" style="fill:#f57728;fill-opacity:1;fill-rule:nonzero;stroke:none" transform="translate(343.688 279.492)"/><path d="M0 0h-2.093v-4.164h-2.498V5.923h2.498v-3.26H0v3.26h2.595V-4.164H0Zm-6.639-9.059c-.778-.587-1.166-1.296-1.166-2.125 0-.814.388-1.516 1.166-2.103.761-.575 1.634-.861 2.618-.861 1 0 1.873.286 2.618.861.793.574 1.189 1.274 1.189 2.103 0 .842-.396 1.551-1.189 2.125-.745.563-1.618.842-2.618.842-.984 0-1.857-.279-2.618-.842M.524-7.434c1.396-.991 2.095-2.238 2.095-3.75 0-1.496-.699-2.738-2.095-3.725-1.3-.924-2.832-1.385-4.593-1.385-1.745 0-3.26.461-4.544 1.385-1.349.987-2.023 2.229-2.023 3.725 0 1.512.674 2.759 2.023 3.75 1.284.908 2.799 1.363 4.544 1.363 1.761 0 3.293-.455 4.593-1.363" style="fill:#f57728;fill-opacity:1;fill-rule:nonzero;stroke:none" transform="translate(357.112 277.585)"/><path d="M368.153 279.578h13.137v-1.372h-13.137zm7.902-6.079v2.121h6.378c.554 0 .958.137 1.212.413.286.312.428.837.428 1.58v5.895h-2.783v-1.446h-13.137v1.446h-2.783v-5.895c0-.743.142-1.268.429-1.58.253-.276.658-.413 1.214-.413h6.304v-2.121h-8.66v-2.665h20.13v2.665z" style="fill:#f57728;fill-opacity:1;fill-rule:nonzero;stroke:none"/><path d="M0 0v-2.638h-14.731v-6.206H0v-2.639h-7.4v-6.518h8.71v-2.69h-20.133v2.69h8.71v6.518h-5.783c-.571 0-.982.146-1.236.439-.272.294-.405.794-.405 1.501V0Z" style="fill:#f57728;fill-opacity:1;fill-rule:nonzero;stroke:none" transform="translate(407.846 283.508)"/><path d="M430.025 283.508h2.782V261.42h-2.782zm-8.33 0c0-4.862.443-8.422 1.331-10.681.797-2.016 2.04-3.182 3.739-3.491v-3.105c-1.46.19-2.731.767-3.809 1.731-1.176 1.053-2.087 2.528-2.735 4.425-.668-1.846-1.644-3.322-2.928-4.425-1.111-.946-2.324-1.525-3.643-1.731v3.078c1.701.344 2.96 1.515 3.787 3.518.918 2.259 1.378 5.819 1.378 10.681z" style="fill:#f57728;fill-opacity:1;fill-rule:nonzero;stroke:none"/><path d="M0 0s1.126-.11 1.126-1.311v-5.878h-2.783v4.552h-15.92V0Z" style="fill:#f57728;fill-opacity:1;fill-rule:nonzero;stroke:none" transform="translate(382.947 268.816)"/><path d="M0 0c-1.543.642-5.834-.079-6.001-1.997-.075-.855 1.235-1.024 1.8-1.083 1.478-.169 2.948-.039 4.426.054.422.022.923.022 1.125.472a1.934 1.934 0 0 1-.048 1.631C1.026-.395.538-.183 0 0" style="fill:#1aae48;fill-opacity:1;fill-rule:nonzero;stroke:none" transform="translate(298.089 256.31)"/><path d="M0 0c-1.089.828-2.253 1.425-3.467 1.879-3.497-4.978-10.08-6.988-15.895-7.355-4.537-.286-9.1.076-13.564.908-5.547 1.039-10.97 3.593-14.982 7.603-.76-.28-1.509-.599-2.235-.97-1.763-.899-4.196-2.768-4.371-4.9-.343-4.111 6.785-4.351 9.472-4.562 1.898-.147 3.796-.182 5.698-.228 2.221-.057 4.451.182 6.669-.021 1.17-.103 3.347-.409 3.859-1.73.64-1.672-1.201-3.129-.248-4.635 1.305-2.065 6.466-1.877 14.586.154C-6.381-11.834 5.182-3.949 0 0" style="fill:#1aae48;fill-opacity:1;fill-rule:nonzero;stroke:none" transform="translate(330.901 266.55)"/></g><g clip-path="url(#j)" transform="matrix(8.84356 0 0 -8.84356 -1243.096 4114.104)"><path d="M291.396 301.198c-2.155-3.929-3.516-8.546-3.38-13.05.071-2.25.366-4.612.871-6.863.03-.185.075-.374.024-.386-.043-.015-.094.131-.156.291-1.264 4.363-3.29 15.298 3.926 25.625.289.446.087.482-.146.421-1.857-.68-4.615-2.435-6.04-4.193-3.315-4.106-3.83-9.184-3.543-14.292.062-1.097.19-2.207.437-3.286.05-.33-.04-.324-.146-.155-1.354 3.139-1.934 8.718-.408 14.306.043.264-.051.506-.466.082-1.224-1.483-2.249-3.135-2.977-5.012-2.191-5.65-2.085-12.431.522-17.844 2.735-5.673 8.127-10.013 14.087-11.889 6.642-2.089 14.233-2.737 21.08-1.394 3.123.613 6.114 1.725 8.671 3.655 2.865 2.164 4.174 5.594 4.362 9.137.368 6.959-5.959 9.231-11.336 11.262-1.809.684-3.771 1.402-5.421 2.426-3.272 2.025-3.814 6.069-1.356 9.077 2.064 2.522 5.159 3.439 8.305 2.775 2.891-.612 5.055-1.6 7.814-2.872 1.945-.895 2.614-.753 1.374.249-.712.575-1.808 1.002-2.382 2.863-1.478 4.818-7.265 6.949-11.642 6.587-6.928-.575-10.943-3.361-13.696-7.862-1.443-2.355-1.978-5.981-1.096-8.657 1.177-3.607 4.465-5.565 7.653-7.193 1.913-.975 3.851-1.897 5.755-2.9 4.347-2.294 5.056-7.547 1.068-10.508-3.937-2.919-9.997-1.834-13.802.901-4.279 3.072-6.529 8.348-6.529 13.597.002 10.231 5.036 18.875 14.126 22.179 1.362.581 1.006 1.011-.111 1.089a29.42 29.42 0 0 1-.661.008c-6.435 0-11.529-2.239-14.781-8.174" style="fill:url(#k);stroke:none"/></g></svg>