<svg xmlns="http://www.w3.org/2000/svg" width="428.31439mm" height="500mm" viewBox="0 0 428.31439 500"><path d="M0 0c14.212 6.962 29.484 6.139 36.898-1.325 3.78 6.348 4.698 13.102 1.863 18.681-5.544 10.914-23.33 13.241-39.727 5.212-16.4-8.031-25.191-23.389-19.648-34.301a14.967 14.967 0 0 1 2.831-3.891C-14.186-9.592-7.998-3.921 0 0" style="fill:#13a438;fill-opacity:1;fill-rule:nonzero;stroke:none" transform="matrix(6.68351 0 0 -6.68351 148.868 182.762)"/><path d="M0 0c-4.269-5.656-5.794-14.172-2.723-20.213 5.601-11.019 23.562-13.373 40.124-5.262C53.961-17.362 62.85-1.847 57.239 9.168a15.375 15.375 0 0 1-2.855 3.932C50.749 7.006 44.503 1.28 36.417-2.678a49.181 49.181 0 0 0-9.168-3.418c2.062 2.103 2.477 5.775 1.454 8.476-2.127 5.651-9.555 9.291-19.085 5.39C5.278 5.998 2.016 2.932 0 0" style="fill:#005ea9;fill-opacity:1;fill-rule:nonzero;stroke:none" transform="matrix(6.68351 0 0 -6.68351 34.518 297.488)"/><path d="M0 0v-3.427h10.453v-6.419h4.11v6.419H24.95V0Z" style="fill:#1d1d1b;fill-opacity:1;fill-rule:nonzero;stroke:none" transform="matrix(6.68351 0 0 -6.68351 547.689 334.544)"/><path d="M0 0c0-1.034.938-1.882 2.092-1.882l19.588-.017.004 13.24h-4.111V8.56H4.116v2.781H.005Zm17.573 5.156V1.52L4.392 1.512c-.154 0-.276.113-.276.247v3.397z" style="fill:#1d1d1b;fill-opacity:1;fill-rule:nonzero;stroke:none" transform="matrix(6.68351 0 0 -6.68351 558.599 298.222)"/><path d="M0 0h-4.105v-2.545h-5.754C-11.376-.87-13.692.201-16.292.201c-4.578 0-8.27-3.307-8.27-7.395 0-4.081 3.692-7.389 8.27-7.389 2.6 0 4.916 1.071 6.438 2.748h5.749v-4.902h-16.532v-3.395h16.298s.229 0 .229-.23v-6.272H.024zm-16.292-11.108c-2.318 0-4.204 1.756-4.204 3.914 0 2.163 1.886 3.919 4.204 3.919 2.315 0 4.201-1.756 4.201-3.919 0-2.158-1.886-3.914-4.201-3.914m8.148 2.674c.075.408.119.822.119 1.24 0 .424-.044.842-.119 1.253h4.039v-2.493z" style="fill:#1d1d1b;fill-opacity:1;fill-rule:nonzero;stroke:none" transform="matrix(6.68351 0 0 -6.68351 1309.078 222.423)"/><path d="M0 0v4.502h-4.113V-6.395h-3.573v8.618c0 1.049-.943 1.882-2.093 1.882h-12.694V.714h10.419s.241 0 .241-.229v-6.88h-3.742v4.29h-4.106v-4.29h-4.13v-3.399h6.93c-1.304-1.39-2.095-3.162-2.095-5.085 0-4.442 4.142-8.033 9.251-8.033 5.113 0 9.247 3.591 9.247 8.033 0 1.927-.783 3.7-2.094 5.09H0v6.388h3.714V0Zm-9.687-19.525c-2.871 0-5.195 2.169-5.195 4.857 0 2.681 2.324 4.858 5.195 4.858 2.869 0 5.19-2.177 5.19-4.858 0-2.688-2.321-4.857-5.19-4.857" style="fill:#1d1d1b;fill-opacity:1;fill-rule:nonzero;stroke:none" transform="matrix(6.68351 0 0 -6.68351 1101.739 252.514)"/><path d="M0 0v4.454h-4.114v-22.867h-12.29s-.232 0-.232.23v6.002h-4.13l.008-7.746c0-1.044.929-1.885 2.085-1.885H-.004L0-3.4h3.712V0Z" style="fill:#1d1d1b;fill-opacity:1;fill-rule:nonzero;stroke:none" transform="matrix(6.68351 0 0 -6.68351 898.932 252.188)"/><path d="m0 0 3.273 1.953-8.67 11.956a.377.377 0 0 1-.321.179.377.377 0 0 1-.315-.156l-8.683-11.979L-11.447 0l5.729 7.893Z" style="fill:#1d1d1b;fill-opacity:1;fill-rule:nonzero;stroke:none" transform="matrix(6.68351 0 0 -6.68351 830.466 315.414)"/><path d="M1383.434 384.885h28.271V206.956h-28.271z" style="fill:#1d1d1b;fill-opacity:1;fill-rule:nonzero;stroke:none;stroke-width:6.68351" transform="translate(91.857 15.467)"/><path d="M0 0a.296.296 0 0 1-.232-.12l-9.437-15.354 3.474-1.728L-.003-7.105l6.207-10.097 3.456 1.728L.217-.093A.296.296 0 0 1 0 0" style="fill:#1d1d1b;fill-opacity:1;fill-rule:nonzero;stroke:none" transform="matrix(6.68351 0 0 -6.68351 1396.476 221.499)"/><path d="M0 0a2.208 2.208 0 0 1-2.226 2.208h-8.922V-6.23c0-11.412-5.226-20.676-11.714-20.676v-4.873c6.909 0 13.079 3.646 17.303 9.404 4.168-5.758 10.36-9.404 17.265-9.404v4.873C5.24-26.906 0-17.642 0-6.23Z" style="fill:#1d1d1b;fill-opacity:1;fill-rule:nonzero;stroke:none" transform="matrix(6.68351 0 0 -6.68351 1726.986 135.527)"/><path d="M0 0a2.22 2.22 0 0 1-2.207 2.211h-8.886v-15.043h-9.08v-4.709h9.08v-22.538H.01Z" style="fill:#1d1d1b;fill-opacity:1;fill-rule:nonzero;stroke:none" transform="matrix(6.68351 0 0 -6.68351 1900.314 132.312)"/><path d="M0 0a3.213 3.213 0 0 0 3.206-3.204l.009-4.151s.405-9.516-4.2-15.907h7.814v-4.703h-20.406v-13.823h-11.086v13.823h-19.895v4.703h34.721c2.229 3.908 1.822 12.607 1.822 12.607v5.786h-33.838v4.861z" style="fill:#1d1d1b;fill-opacity:1;fill-rule:nonzero;stroke:none" transform="matrix(6.68351 0 0 -6.68351 2260.493 120.89)"/><path d="M0 0h1.513v-1.256H0v-5.172h-6.342v-.471H.072v-1.155h-7.266c-.257 0-.443.056-.559.168-.116.112-.174.288-.174.527v2.053h6.342v.482h-6.342v1.156h6.342v5.239H0Zm-6.414 1.245c.096.105.182.18.259.225a.484.484 0 0 0 .246.067c.088 0 .17-.026.246-.079.076-.052.158-.123.246-.213l3.351-3.533-1.309-.898-2.534 2.805-2.546-2.805-1.298.898z" style="fill:#001151;fill-opacity:1;fill-rule:nonzero;stroke:none" transform="matrix(6.68351 0 0 -6.68351 827.73 125.262)"/><path d="M832.158 99.298h10.673v64.329h-10.673zm-20.071 2.473c2.032 0 3.495.428 4.378 1.277.882.848 1.323 2.152 1.323 3.896v35.015h-10.68v-31.713h-28.412v-8.475z" style="fill:#001151;fill-opacity:1;fill-rule:nonzero;stroke:none;stroke-width:6.68351" transform="translate(91.857 15.467)"/><path d="M0 0c.216 0 .416.03.601.09.184.06.344.142.48.246.136.105.242.232.318.382.076.149.114.31.114.482 0 .18-.038.344-.114.494a1.179 1.179 0 0 1-.318.387 1.535 1.535 0 0 1-.474.252 1.88 1.88 0 0 1-.595.09c-.208 0-.4-.03-.576-.09a1.543 1.543 0 0 1-.469-.252 1.179 1.179 0 0 1-.318-.387 1.075 1.075 0 0 1-.114-.494 1 1 0 0 1 .12-.488 1.29 1.29 0 0 1 .318-.381C-.895.222-.739.14-.558.084-.378.028-.192 0 0 0m-4.648 6.54 3.087 1.268h-2.607v1.177h8.516V7.808H1.742L4.78 6.551 3.651 5.62.072 7.146-3.531 5.62Zm.769-4.072v1.155h3.134v.673H-4.78v1.178h4.047v1.055H.853V5.474h4.095V4.296H.841v-.673H3.88V2.468H2.606A2.13 2.13 0 0 0 3.015 1.2c0-.321-.066-.626-.199-.914a2.218 2.218 0 0 0-.582-.763 2.907 2.907 0 0 0-.949-.527A3.938 3.938 0 0 0-.012-1.2c-.448 0-.855.065-1.219.196a2.94 2.94 0 0 0-.931.527 2.373 2.373 0 0 0-.594.763 2.136 2.136 0 0 0 .198 2.182z" style="fill:#001151;fill-opacity:1;fill-rule:nonzero;stroke:none" transform="matrix(6.68351 0 0 -6.68351 1076.683 175.72)"/><path d="M0 0a1.744 1.744 0 0 1 1.165.426 1.302 1.302 0 0 1 .444.965c0 .194-.04.378-.12.55-.08.172-.192.323-.336.454a1.597 1.597 0 0 1-.51.309A1.813 1.813 0 0 1 0 2.816a1.8 1.8 0 0 1-.649-.112 1.471 1.471 0 0 1-.492-.309 1.346 1.346 0 0 1-.312-.454 1.412 1.412 0 0 1-.108-.55 1.32 1.32 0 0 1 .42-.965c.136-.127.3-.23.492-.308C-.456.039-.24 0 0 0m-2.618-4.622h6.882v-1.256h-7.603c-.576 0-.865.228-.865.684v2.704h1.586zm-2.246 3.96h2.918a2.586 2.586 0 0 0-.864.914 2.32 2.32 0 0 0-.301 1.139c0 .344.072.675.217.993.144.318.352.598.624.841s.598.436.979.578c.38.142.811.213 1.291.213.472 0 .903-.071 1.291-.213.388-.142.721-.335.997-.578.276-.243.49-.523.643-.841.152-.318.228-.649.228-.993 0-.404-.102-.787-.306-1.15a2.516 2.516 0 0 0-.883-.903h2.906v-1.256h-9.74z" style="fill:#001151;fill-opacity:1;fill-rule:nonzero;stroke:none" transform="matrix(6.68351 0 0 -6.68351 1182.117 139.883)"/><path d="M0 0h4.083v-1.256h-9.728V0h4.06v2.176H-4.06c-.616 0-.924.258-.924.774v4.431h8.407V6.114h-6.822v-2.67h6.822V2.176H0Z" style="fill:#001151;fill-opacity:1;fill-rule:nonzero;stroke:none" transform="matrix(6.68351 0 0 -6.68351 1363.847 165.974)"/><path d="M1403.671 163.627h-10.52V99.298h10.52zm-58.2-23.767-9.07-5.848 22.638-32.762c.535-.749 1.11-1.297 1.724-1.651.615-.348 1.19-.521 1.731-.521.482 0 1.043.187 1.685.56.641.375 1.203.91 1.684 1.612l22.877 32.836-8.989 5.774-17.257-25.49z" style="fill:#001151;fill-opacity:1;fill-rule:nonzero;stroke:none;stroke-width:6.68351" transform="translate(91.857 15.467)"/><path d="M0 0c.113-.077.306-.051.35-.229C.317-.332.349-.388.348-.467.347-.586.326-.719.362-.809L.343-.94C.274-.93.31-1.076.284-1.13.207-1.138.26-1.333.189-1.35.18-1.522.06-1.537.069-1.736c-.117-.009-.012-.107-.065-.228-.022-.062-.078-.075-.085-.158-.046-.017-.069-.065-.082-.127-.039-.172-.15-.246-.162-.459-.029-.027-.045-.072-.051-.131-.076-.124-.111-.304-.135-.501-.071.002-.034-.142-.061-.2l-.015-.102c-.096-.022.004-.11-.024-.169-.036-.006-.031-.066-.073-.064l-.01-.068c-.004-.033.035-.028.059-.037.014-.237-.149-.335-.063-.441-.16-.013-.169-.48-.041-.508l-.02-.135c-.048.024-.075-.16-.019-.135-.01-.029.008-.032.027-.033-.04-.097.032-.086.008-.168.027-.102-.122-.191-.034-.236.01-.058-.067-.2.003-.2.01-.057-.067-.201.004-.198-.035-.079.02-.257-.099-.242-.026.042-.039.097-.077.128l.009.068c.004.032-.035.024-.059.031-.022-.021-.099-.164-.025-.17l-.009-.068-.02-.136a.398.398 0 0 0-.005-.034c-.045-.013-.039-.087-.052-.138-.017-.045-.065-.056-.08-.105-.057-.066-.174-.055-.186-.175.002-.029-.018-.033-.038-.034-.027-.006-.037-.035-.069-.034l.005.035c.047.069-.028.165-.055.071-.069-.111-.012-.133-.04-.276l-.01-.069c-.142-.005-.199-.121-.342-.114.01.029-.008.034-.027.039-.004.121-.1.05-.131-.015-.106-.011-.09.074-.147.102-.095.053-.122-.002-.165-.031-.054.002-.053.044-.051.088.035-.017.056-.009.067.017-.115.072-.091.246-.101.395-.007.09.074.241.01.29.072.136.035.224.061.418-.056.045.036.192-.029.23l.01.07c.026.149.071.216.021.359.053.134.03.151.045.313-.009.057.061.168-.004.185l.035.244.051.348c.039-.005.054.091.015.105l.02.139c.045-.042.073.148.02.139-.009.056.061.168-.005.185l.006.034c.071.003.04.192.07.269l.035.244c-.008.055.062.168-.004.183l.025.174.045.314c.102.066-.074.215.046.313.012.082-.037.118 0 .218.034-.001.03.063.071.051.007.127-.071.111 0 .218.028.024.044.069.05.131.021.116.088.166.005.252l-.03.009a.238.238 0 0 0-.01.148l.03-.009c.056.134-.045.155-.026.261.146-.032.11.4.111.548-.046.168.053.3.122.401.062-.032.085.002.128.002l.185-.049.03-.008c.243-.071.367-.028.534-.068.059.018.155-.028.195.021.031.063.171-.053.194.021.026 0 .036.027.067.019.047.007.153-.082.159-.007.025-.013.031.006.035.027L0 0" style="fill:#005ea9;fill-opacity:1;fill-rule:evenodd;stroke:none" transform="matrix(6.68351 0 0 -6.68351 685.29 106.48)"/><path d="M0 0c.003-.046.078-.022.126-.022C.088-.139.164-.14.239-.139l.033.006A.467.467 0 0 1 .336-.35C.345-.426.26-.604.331-.611L.326-.645C.318-.738.264-.884.358-.862a.376.376 0 0 0-.005-.033c-.05.009-.076-.174-.019-.134a.11.11 0 0 0 .018-.09c-.055-.022-.087-.248-.033-.234.009-.054-.003-.134.042-.144.011-.041-.063-.187.009-.154a.376.376 0 0 0-.005-.033c-.005-.051-.034-.134.014-.119a.347.347 0 0 0-.005-.034L.341-1.85c.014-.095-.067-.124-.09-.193l-.033-.012c-.105-.061-.116-.008-.195-.032-.111-.005-.147-.074-.21-.118-.191-.036-.198-.009-.366-.049l-.034-.002c-.05-.022-.164.038-.169-.037-.144.051-.11-.132-.188-.165l-.065.007c-.045.125-.083.258-.139.379.025.082-.046.089-.006.182-.001.029-.026.042-.021.077-.007.076.072.22.005.251-.002.03-.026.043-.021.078.047.211-.006.349.051.568.073.327.202.552.419.665.079-.017.108.04.143.088.106-.009.137.086.269.052C-.188-.1-.158.023 0 0" style="fill:#005ea9;fill-opacity:1;fill-rule:evenodd;stroke:none" transform="matrix(6.68351 0 0 -6.68351 674.928 162.663)"/><path d="M0 0a4.798 4.798 0 0 1-.04-.031l.053-.058.064.041L0 0" style="fill:#005ea9;fill-opacity:1;fill-rule:evenodd;stroke:none" transform="matrix(6.68351 0 0 -6.68351 629.299 161.962)"/><path d="m0 0-.001-.001Z" style="fill:#005ea9;fill-opacity:1;fill-rule:evenodd;stroke:none" transform="matrix(6.68351 0 0 -6.68351 638.696 186.103)"/><path d="m0 0 .002.003v.001Z" style="fill:#005ea9;fill-opacity:1;fill-rule:evenodd;stroke:none" transform="matrix(6.68351 0 0 -6.68351 610.118 157.319)"/><path d="m0 0-.031.053-.015.067.029.005.005-.07L.03.019 0 0m-.948-.191c-.032.066-.032.066.008.116l-.008-.116m.131 3.618h-.102l-.001.02h.106l-.003-.02m-.222.131c-.007-.016-.016-.032-.019-.048-.005-.036-.026-.041-.059-.028-.009-.003-.016-.006-.025-.007.021-.021.045-.041.061-.066.007-.01 0-.028-.001-.042l-.058-.088a5.755 5.755 0 0 0-.056.112l-.019-.001a1.394 1.394 0 0 0-.064-.041l-.066-.008a31.574 31.574 0 0 0-.124-.021.918.918 0 0 0-.003.02l.058.007c.002.035.016.062.059.069a.11.11 0 0 1 .023-.009l.04.031.017.018.003.026-.06.002-.055-.011-.071-.015a3.512 3.512 0 0 0-.099-.022l-.009.023.083.024.13.054c.053.059.103.001.155-.005l.079-.021c.023.032.008.09.08.087l.121.009a.16.16 0 0 1 .005-.021l-.126-.028m2.233-.448c-.007.017-.023.037-.019.053.058.258.048.52.045.78a.362.362 0 0 1-.098.209c-.071.081-.139.175-.267.2a.107.107 0 0 0-.056.028c-.112.127-.264.103-.415.09a.546.546 0 0 0-.21.007.198.198 0 0 1-.16-.017.39.39 0 0 0-.223-.048c-.027.003-.057-.013-.085-.02l-.003-.017.095-.028a2.535 2.535 0 0 1-.03-.095 1.645 1.645 0 0 1-.047.02c-.071.004-.077.049-.08.096-.031-.005-.078-.026-.091-.016-.07.061-.143.022-.217.015.016-.025.026-.051-.023-.056a1.25 1.25 0 0 0-.088-.008c-.187-.052-.381-.043-.574-.05a.15.15 0 0 1-.051-.01c-.198-.076-.415-.062-.622-.093-.133-.02-.274.002-.412.003-.029.001-.06-.009-.089-.011-.039-.002-.079-.006-.117-.002-.058.007-.115.024-.173.03-.033.003-.065-.017-.099.017-.013.014-.069-.005-.078-.006-.098.027-.173.062-.249.066a1.08 1.08 0 0 0-.446.124c-.099-.024-.187-.054-.279-.066-.077-.011-.128-.035-.151-.102-.009-.024-.027-.046-.042-.067.022-.079.03-.156-.061-.205-.035-.019-.08-.024-.117-.034-.08-.092-.009-.189-.012-.282-.005-.117.09-.201.14-.299.018-.034.049-.061.068-.094.036-.064.054-.135.138-.173.033-.015.059-.059.069-.094.014-.055.056-.084.105-.103a.39.39 0 0 0 .166-.126c.02-.023.072-.049.096-.041.106.036.212.004.318.013.039.003.087-.003.114.016.107.072.238.067.358.093a.54.54 0 0 1 .2.085c.036-.077.114-.078.199-.063.037.007.069.017.103-.02.031-.034.06-.003.08.025-.017.054.008.09.063.111.037.014.076.023.097-.022.038.005.071.01.087-.036.005-.014.045-.019.068-.028a.026.026 0 0 0 .004.019V3c.038-.012.078-.013.092-.03.027-.036.017-.074-.034-.096-.006-.032.013-.044.046-.045.053.039.12.008.177.028a4.353 4.353 0 0 0-.016.132l.127-.019c.058.081.095.088.162.03.018-.016.033-.034.049-.052.017.011.038.018.049.032.014.018.019.041.028.063.016.057.069.063.121.067.03.002.06.001.089.001l.023.025c.014.039.042.06.084.038.029-.015.039-.042-.003-.06A.95.95 0 0 0-.9 3.065a.991.991 0 0 1 .022-.047l.099.025.022.102c.105-.057.108-.062.087-.175l-.177-.625c-.014-.045-.033-.089-.049-.133-.057-.16-.116-.32-.17-.481a8.785 8.785 0 0 1-.156-.475c-.035-.119-.055-.241-.082-.362-.003-.015.002-.035-.007-.045C-1.377.776-1.375.683-1.409.6-1.466.459-1.53.319-1.564.173a1.354 1.354 0 0 1-.032-.5c.009-.063.04-.142-.031-.205-.014-.013.001-.057.012-.084.019-.049.045-.097.074-.155l.27.147-.016.096c.045-.009.065.073.15.021-.03-.022-.056-.036-.074-.056-.005-.005.012-.026.018-.039.042-.006.057-.027.053-.066a.437.437 0 0 1 .009-.141c.055.08.138.021.2.047a2.169 2.169 0 0 0-.003.114c-.079.021-.046.066-.031.12l.056-.064c.012-.005.028-.007.035-.016.018-.02.032-.043.048-.065.055.029.114.055.098.125.036 0 .083-.011.096.003.026.026.031.067.045.102l.075.078c.036.048.071.022.107 0l.058-.053.092-.048.05.107.142.024c.013-.054-.029-.115.032-.178l.042.126a7.157 7.157 0 0 0-.018.09l.022.024c.064.005.052-.036.052-.07A3.77 3.77 0 0 1 .092-.46a.205.205 0 0 1 .102.131c.013.046.002.083-.048.106l-.101.004c-.005.049.03.048.069.045l.021.079.059-.039C.222-.19.272-.182.322-.172c.086.074-.05.134-.005.212C.391.028.444.047.44.132.439.155.467.178.483.204.468.234.451.264.44.288.458.329.483.364.488.4a.277.277 0 0 0 .069.144c.03.039.04.09.059.136C.589.724.594.784.528.808c-.003.001.01.037.016.057.03.108.061.217.089.327.017.069.035.14.036.211.001.036-.036.072-.063.12.031.075.138.098.195.164l.032.044-.005.165c-.02.066.011.126.046.175.045.061.078.125.121.186.06.086.097.167.052.269-.012.026 0 .07.016.097.06.092.05.197.081.294.019.06.034.12.05.179-.005.004-.005.009 0 .014" style="fill:#005ea9;fill-opacity:1;fill-rule:evenodd;stroke:none" transform="matrix(6.68351 0 0 -6.68351 637.933 184.938)"/><path d="m0 0 .001.001Z" style="fill:#005ea9;fill-opacity:1;fill-rule:evenodd;stroke:none" transform="matrix(6.68351 0 0 -6.68351 579.998 121.44)"/><path d="M0 0h.001l.001.002z" style="fill:#005ea9;fill-opacity:1;fill-rule:evenodd;stroke:none" transform="matrix(6.68351 0 0 -6.68351 579.708 143.758)"/><path d="m0 0-.002-.002v-.001z" style="fill:#005ea9;fill-opacity:1;fill-rule:evenodd;stroke:none" transform="matrix(6.68351 0 0 -6.68351 596.17 145.983)"/><path d="M0 0Z" style="fill:#005ea9;fill-opacity:1;fill-rule:evenodd;stroke:none" transform="matrix(6.68351 0 0 -6.68351 597.874 115.42)"/><path d="m0 0 .003.001.003.002z" style="fill:#005ea9;fill-opacity:1;fill-rule:evenodd;stroke:none" transform="matrix(6.68351 0 0 -6.68351 578.632 144.17)"/><path d="m0 0-.013.013.034.027.011-.014L0 0m-.261-.149c-.058.022-.031.039-.014.057l.025-.005-.011-.052m-.787-.823c-.042-.007-.069-.024-.069-.065l-.072.021c.046.054.083.116.163.137a3.129 3.129 0 0 0-.022-.093M-2.587.532V.531l-.002-.002a3.21 3.21 0 0 1-.004-.098c-.039.056-.039.057.004.098v.003h.002l.029.148.058-.05.058.014a2.399 2.399 0 0 0-.036-.056l.051-.075-.096.039-.064-.02m-.059-.26-.006.054c.008 0 .014.002.022.003l.012-.054a2.48 2.48 0 0 0-.028-.003m.114 1.899.024-.007-.019-.14c-.042.05-.042.05-.005.147m.042-1.08-.012-.057-.028-.066c-.047.04-.005.063.005.088l.035.035m-.222.165-.018-.002-.009.052.027.001zm-.27-.042v.064l.021.001.008-.064-.029-.001M-3.09.029l-.037-.119c-.034.062.008.111-.004.157l-.004.039c.057-.025.057-.025.045-.077M.695.628C.614.625.596.655.622.709.59.728.544.739.559.788L.525.861C.483.845.466.871.446.897.408.944.371.993.293.973L.29.977.289.972.285.971.264.948c-.018.019-.048.06-.109.046C.101.982.049.965-.004.951L-.206.849-.302.777A1.861 1.861 0 0 0-.368.749L-.595.628A.128.128 0 0 0-.707.587L-.845.512-.929.466l-.209-.12a16.14 16.14 0 0 0-.156-.119l-.162-.116-.047-.023c-.056-.038-.09-.109-.178-.105-.044-.023-.086-.05-.132-.068-.066-.027-.136-.047-.203-.071-.046-.027-.066-.094-.142-.076l-.039-.024-.12-.044.005.002c-.059-.017-.059-.017-.077.058-.016-.007-.03-.017-.046-.021-.011-.003-.024 0-.037 0l.017.03-.008.058-.035.018-.012.089c.055-.027.097-.057.144-.023l.044.057c-.006.075-.016.15-.017.225-.002.076.022.15.042.225.001.101-.044.202.011.306.021.041.009.095.012.144l-.063-.016-.008.096.072.007c.007.082.015.164.019.247 0 .011-.021.022-.03.035-.013.018-.024.037-.035.056a.385.385 0 0 0-.023.019l-.066.001a1.134 1.134 0 0 1-.058-.005l.013.046.072.035.046.046a.043.043 0 0 0-.006.018c-.037.02-.073.04-.079.087l.061-.028.018.103a.945.945 0 0 0-.053-.004c.055.047.013.125.076.165.027.058-.009.108-.027.16-.004.014-.011.027-.017.041-.009.03-.059.068.019.081h.002c-.013.023-.03.045-.04.069-.012.031-.003.053.04.051l.006.041c-.12.02-.126.03-.073.112.004.012.005.026.013.035.028.03.049.058.01.093-.033.003-.06.012-.058.047.004.039.011.079.016.118l.103.04.002-.003v.153c.087.017.158.07.251.051.012-.003.021-.015.032-.022.179-.001.357.046.536.003.143.039.3-.016.44.047.089-.025.171.025.261.024.083 0 .168.06.251.095.032.013.061.032.093.05a.534.534 0 0 0 .22.24c.009.068.018.126.027.183-.004.032-.004.065-.013.096-.008.027-.016.05.019.065a1.12 1.12 0 0 1-.032.04c-.05.005-.049.034-.037.065.02.049.02.089-.04.118-.064.033-.035.094-.045.142l-.242.07c-.006.06-.009.117-.019.173-.003.021-.018.048-.036.055a1.251 1.251 0 0 1-.173.057c-.055.016-.111.036-.168.043-.118.014-.237.021-.356.033-.1.011-.2.028-.3.04-.045.006-.084.01-.121.041-.052.043-.095-.005-.139-.035l-.065.038H-2c-.031-.026-.046 0-.064.016-.028-.055-.086-.036-.133-.038-.041-.002-.083.012-.121.004-.058-.012-.108-.022-.154.024-.009.009-.037.01-.051.005-.024-.008-.04-.014-.056.01-.022.035-.064.031-.088.013-.037-.026-.064-.021-.1-.005-.126.056-.264.071-.401.089-.073.01-.146.023-.219.032-.051.007-.102.01-.153.014l-.247-.043-.186-.057c-.061-.047-.134-.01-.199-.025l-.09-.135c.024-.056.052-.112.07-.17.013-.038.011-.079.016-.119.066-.027.054-.087.073-.134.01-.004.023-.005.03-.012.063-.066.128-.13.187-.199.017-.019.02-.048.029-.073.057-.022.055-.075.073-.117a.242.242 0 0 0 .075-.103c.026-.063.08-.116.113-.16-.012-.051-.023-.09-.029-.129-.005-.032.002-.069-.049-.078.084-.193.098-.394.09-.598l-.002-.079c.007-.094.03-.187.007-.283-.016-.07-.007-.144-.012-.215-.002-.036-.008-.072-.013-.108l-.001.001-.028-.37c-.001-.012-.012-.023-.018-.035-.008-.042-.017-.085-.023-.127a11.237 11.237 0 0 1-.041-.314c-.004-.026.004-.052.007-.078.004-.032.013-.058-.021-.09a.086.086 0 0 1-.014-.109C-3.73.71-3.753.673-3.75.644c.004-.036.019-.07.03-.108a6.256 6.256 0 0 1-.072-.043.35.35 0 0 1-.006-.046l-.023-.001a1.346 1.346 0 0 0-.01.067.759.759 0 0 1-.228.016l-.115-.057a.423.423 0 0 0-.222-.045c-.048-.009-.083-.056-.14-.04a.564.564 0 0 0-.245-.084c-.032-.062-.101-.05-.159-.061a2.575 2.575 0 0 0-.052-.051C-5.115.241-5.2.145-5.307.13-5.319.124-5.33.114-5.343.112-5.408.104-5.474.095-5.54.09c-.058-.003-.113-.018-.173.013-.05.024-.116.022-.185.033V.2a1.767 1.767 0 0 0-.1-.009.075.075 0 0 0-.008.018l.089.038.043.058-.067.009c-.027.004-.058.003-.08.015s-.015.033.013.042l-.002.033c-.05.033.002.056.014.08.007.013.036.018.055.026l.024.019-.104.054.059.027c0 .054.039.064.089.061.013.069.026.137.041.206.001.006.018.01.028.014-.008.047-.046.093-.008.142l.07.083c-.018.03-.019.057-.003.093.029.062.043.13.058.198.01.044.004.092.017.136.046.166.089.333.183.485.009.014.005.035.006.053l.007.108c.073-.007.124-.004.179.029.039.024.111.005.186.005l.051-.04c.008 0 .018-.002.022.002.047.042.101.055.169.059.08.004.159.031.239.048l.131.029c.059.045.123.086.174.138a.315.315 0 0 1 .061.126c.013.044.013.092.019.138.006.05.022.088.069.127.062.054.102.126.065.215a1.605 1.605 0 0 1-.202.358c-.021.029-.046.05-.081.04-.062-.019-.062.072-.134.049-.039-.013-.082.025-.113.062-.023.029-.066.046-.1.068l-.021-.021.016-.06-.016-.007-.051.053-.01.004-.092.045c-.011-.049-.046.017-.067-.01-.005-.007-.04-.006-.046.001-.029.034-.068.032-.109.038-.022.003-.042.023-.063.035-.049.009-.098.025-.148.025-.047.001-.094-.014-.138-.022-.026.026-.048.065-.074.068-.026.003-.057-.031-.1-.058-.01.006-.051.016-.054.032-.016.089-.106.113-.17.159-.083.059-.168.067-.252-.015-.022.026-.04.046-.055.067-.023.033-.033.076-.093.075-.011-.001-.031.012-.034.021-.025.077-.094.075-.161.074-.036 0-.07-.002-.079.038l-.087-.018c-.036-.039-.073-.011-.109 0-.035-.05-.073-.053-.117.007l-.047-.077c-.151-.027-.228-.121-.268-.245-.009-.028-.016-.057-.024-.086l-.002-.02c.013-.065.014-.134.044-.192.03-.059-.03-.133.05-.174-.05-.072-.042-.067.002-.129.033-.046.045-.105.064-.158.011-.034.008-.075.075-.064.012.002.039-.033.051-.055.058-.11.114-.221.17-.332.002-.005.002-.012.003-.018.085.004.124-.051.145-.106.023-.062.067-.093.137-.111-.023-.086-.023-.173-.085-.245a.086.086 0 0 1-.019-.035c-.068-.268-.139-.536-.202-.805-.015-.064-.002-.133-.044-.192-.019-.077-.058-.155-.054-.23.008-.156-.096-.286-.107-.439-.008-.123-.068-.243-.106-.364-.013-.041-.043-.079-.011-.123.004-.007.004-.021-.001-.028-.049-.093-.004-.187 0-.279.002-.055.014-.107.074-.148.031-.02.035-.076.046-.117.04-.16.162-.255.321-.319a.822.822 0 0 1 .313-.042c.074.001.149.002.222.01.039.004.076.023.114.035-.013.032-.007.057.03.077l.039-.08c.04.017.079.029.128.022.046-.007.095.009.142.011.092.005.184.005.275.01.021.001.041.013.062.019.014.011.029.032.041.031.084-.008.164.009.247.013.11.007.224-.005.304.08l.089-.041c.048.017.086.051.15.042.035-.005.087.023.115.05a.395.395 0 0 0 .164.087c.017.042.043.065.1.049.017-.005.04.007.06.012a.826.826 0 0 1 .113.265c.012.047.029.092.044.138l.012.043.021-.001h.003c.021-.094.006-.191.012-.287.001-.016.011-.039.003-.049-.064-.074-.03-.165-.056-.245-.001-.005.007-.012.011-.018.024-.037.025-.074-.003-.111.01-.06.053-.116.005-.181-.016-.021.01-.066.017-.1.054-.024.054-.059.026-.1l.023-.099c.029-.071.064-.141.045-.22.015-.019.04-.038.041-.058.002-.063.047-.107.077-.157.038-.062.084-.117.167-.139.026-.008.075-.003.071-.05.031-.005.062-.015.093-.016h.242c.012 0 .024-.014.035-.022l.074-.027c.069.038.137.078.211.113.018.009.048-.002.073-.004-.013.072.048.053.09.057l.089-.018.138-.002c.01.004.02.012.03.012a.446.446 0 0 1 .274.119.167.167 0 0 0 .096.039c.086.006.191.133.166.207-.017.047.002.073.022.106l.073.035c.072.012.012.051.03.068.02.018.041.034.058.054.023.027.034.072.09.039.048-.034.043-.077.025-.122-.016-.032-.033-.063-.048-.095V-1.4c.037.015.083.022.11.045.038.032.062.077.091.117.023.032.042.066-.02.083v.074l.152.039c-.004-.032-.033-.066.006-.096l.029.02c.015.011.032.021.046.034.014.014.026.03.038.046v-.001l.09.042h.046c0 .042.018.088-.025.124.013.015.023.037.039.043a.91.91 0 0 1 .232.137c.016.013.047.012.072.017l.136.06.09.081c.018.015.04.028.053.046.027.037.04.001.06-.006.058.023.106.053.134.108.017.034.053.061.085.095l.065-.051.038.043.085.026c.033.031.062.066.099.09.022.015.047.027.072.039l.001.004c.048.03.066.151.124.161.07.011.05.087.118.114l.017.013C.536.169.559.191.58.214c.091.101.133.21.071.335l.044.079" style="fill:#005ea9;fill-opacity:1;fill-rule:evenodd;stroke:none" transform="matrix(6.68351 0 0 -6.68351 611.67 145.783)"/><path d="m0 0-.09-.008c.036-.067.066-.05.09.008m-2.107-.084c-.053-.003-.065-.038-.072-.076a41.535 41.535 0 0 1-.065-.374c-.018-.108-.037-.215-.051-.323-.025-.184-.037-.369-.068-.552a9.227 9.227 0 0 0-.143-.676c-.021-.082-.071-.16-.114-.237-.014-.024-.049-.042-.077-.059-.034-.02-.077-.03-.106-.054-.124-.098-.275-.114-.43-.143-.16-.03-.301.001-.449.032-.105.021-.216.023-.323.034a.21.21 0 0 0-.013-.026 8.338 8.338 0 0 1-.089.106c-.011.014-.022.038-.036.04-.153.019-.16.134-.187.229-.035.126-.057.255-.083.382-.004.017-.004.038.005.052.097.179.024.364.028.545 0 .023-.014.046-.009.067.037.184-.023.358-.057.536-.029.149-.094.295-.046.451.006.019-.006.044-.01.066.083.077.029.166.031.251.006.007.009.015.007.024.015.026.037.051.045.079.033.126-.001.259.057.384.012.025-.006.061-.009.093-.004.067-.011.135-.012.202-.001.194.001.389.002.585.011.033.034.068.032.101-.01.129-.018.258-.043.385a3.308 3.308 0 0 1-.124.499c-.052.151-.137.292-.207.437l-.083.174c.045.058.106.11.079.191 0 .002.024.01.037.016.003-.062.041-.063.094-.043.002.041.005.081.006.122.068.029.135.06.204.088.016.007.038.006.055.009.079-.138.1-.145.2-.083.076-.056.146-.113.223-.161.157-.098.159-.097.255-.234.139-.003.239-.053.28-.18a.324.324 0 0 1 .178-.21c.066-.03.077-.081.061-.133l.105-.066a4.67 4.67 0 0 0-.079-.083.383.383 0 0 1 .176-.123c.121-.041.148-.117.095-.223-.027-.052.009-.171.069-.183.052-.011.061-.036.076-.069.078-.161.159-.321.238-.482l-.024-.129.157.017c.079-.069.121-.073.249-.021.161-.046.323-.079.491-.031l.053-.028.008-.076-.099-.072a.143.143 0 0 0 .014-.02l.088.037a.033.033 0 0 1 .019-.006.165.165 0 0 1 .194.002c.053.035.1.042.166.031.056-.009.119.013.178.022l.336.032.09.001c.116.009.116.009.096.106.106.027.208.01.308-.02l.149-.057c.108-.006.135.062.157.135.087.026.087.026.176-.076.14.149.283.088.431.007.059-.032.13-.045.214-.073l.017-.307.113-.049A.51.51 0 0 1 .999.347L.743.168l.09-.059a3.213 3.213 0 0 0-.04-.094C.816-.016.892-.017.85-.076.836-.081.822-.091.808-.091.689-.093.583-.201.454-.128.31-.183.157-.149.009-.162c-.058-.005-.117-.005-.174-.007l-.076.056.041.075c-.081.042-.091.045-.122.019-.032-.029-.058-.063-.086-.095l-.063-.053-.072-.044c-.033.049-.033.049-.086.047A.062.062 0 0 1-.655-.17c-.04.045-.084.08-.155.055l.007.005.031.084c-.054.031-.075-.004-.1-.031a6.413 6.413 0 0 1-.121-.112h-.063c-.038.049-.089.052-.147.032-.112.016-.227.027-.339.05-.05.01-.116-.056-.153.023-.002.004-.035.003-.04-.004-.037-.056-.083-.019-.125-.012l-.124.024-.123-.028" style="fill:#005ea9;fill-opacity:1;fill-rule:evenodd;stroke:none" transform="matrix(6.68351 0 0 -6.68351 648.63 129.343)"/></svg>