<svg xmlns="http://www.w3.org/2000/svg" xml:space="preserve" width="427.79758" height="400" viewBox="0 0 427.79758 400"><path d="M0 0c-25.856 34.037-69.335 44.2-114.111 33.574-46.891-11.128-92.944-56.842-70.007-131.454L17.551-49.339C16.613-32.045 11.329-14.917 0 0" style="fill:#2056ae;fill-opacity:1;fill-rule:nonzero;stroke:none" transform="matrix(1.84655 0 0 -1.84655 351.208 69.425)"/><path d="m0 0-201.668-48.541c.226-.712.454-1.426.696-2.145 0 0 1.028-3.139 2.855-7.55L-4.478-38.238C-1.025-25.972.705-12.94 0 0" style="fill:#fff;fill-opacity:1;fill-rule:nonzero;stroke:none" transform="matrix(1.84655 0 0 -1.84655 383.616 160.533)"/><path d="m0 0-.168-.006L0 0" style="fill:#2056ae;fill-opacity:1;fill-rule:nonzero;stroke:none" transform="matrix(1.84655 0 0 -1.84655 170.444 309.63)"/><path d="M0 0c-.228-.014-.455-.025-.681-.043.226.018.453.029.681.043" style="fill:#2056ae;fill-opacity:1;fill-rule:nonzero;stroke:none" transform="matrix(1.84655 0 0 -1.84655 163.827 309.948)"/><path d="M0 0c-.208-.021-.412-.047-.618-.068.205.021.41.047.618.068" style="fill:#2056ae;fill-opacity:1;fill-rule:nonzero;stroke:none" transform="matrix(1.84655 0 0 -1.84655 156.32 310.553)"/><path d="M0 0c-.073-.01-.147-.018-.22-.029.073.011.147.019.22.029" style="fill:#2056ae;fill-opacity:1;fill-rule:nonzero;stroke:none" transform="matrix(1.84655 0 0 -1.84655 149.202 311.434)"/><path d="M0 0c-.076.02-.147.039-.223.057C-.147.039-.076.02 0 0" style="fill:#2056ae;fill-opacity:1;fill-rule:nonzero;stroke:none" transform="matrix(1.84655 0 0 -1.84655 236.152 316.266)"/><path d="M0 0c-.192.012-.386.02-.579.031C-.386.02-.192.012 0 0" style="fill:#2056ae;fill-opacity:1;fill-rule:nonzero;stroke:none" transform="matrix(1.84655 0 0 -1.84655 192.977 309.99)"/><path d="M0 0c-.228.008-.455.018-.684.023C-.457.018-.228.008 0 0" style="fill:#2056ae;fill-opacity:1;fill-rule:nonzero;stroke:none" transform="matrix(1.84655 0 0 -1.84655 186.09 309.673)"/><path d="M0 0" style="fill:#2056ae;fill-opacity:1;fill-rule:nonzero;stroke:none" transform="matrix(1.84655 0 0 -1.84655 67.887 325.719)"/><path d="M0 0" style="fill:#2056ae;fill-opacity:1;fill-rule:nonzero;stroke:none" transform="matrix(1.84655 0 0 -1.84655 71.75 326.833)"/><path d="M0 0" style="fill:#2056ae;fill-opacity:1;fill-rule:nonzero;stroke:none" transform="matrix(1.84655 0 0 -1.84655 75.766 327.594)"/><path d="M0 0c-.05.014-.096.029-.146.045C-.096.029-.05.014 0 0" style="fill:#2056ae;fill-opacity:1;fill-rule:nonzero;stroke:none" transform="matrix(1.84655 0 0 -1.84655 242.813 318.051)"/><path d="M0 0" style="fill:#2056ae;fill-opacity:1;fill-rule:nonzero;stroke:none" transform="matrix(1.84655 0 0 -1.84655 116.583 320.612)"/><path d="M0 0c-.883-.332-1.771-.666-2.606-.963C-1.771-.666-.883-.33 0 0" style="fill:#2056ae;fill-opacity:1;fill-rule:nonzero;stroke:none" transform="matrix(1.84655 0 0 -1.84655 122.038 318.614)"/><path d="M0 0" style="fill:#2056ae;fill-opacity:1;fill-rule:nonzero;stroke:none" transform="matrix(1.84655 0 0 -1.84655 79.988 327.988)"/><path d="M0 0c-.623-.178-1.207-.324-1.8-.475.593.151 1.178.297 1.8.475" style="fill:#2056ae;fill-opacity:1;fill-rule:nonzero;stroke:none" transform="matrix(1.84655 0 0 -1.84655 105.01 324.33)"/><path d="M0 0" style="fill:#2056ae;fill-opacity:1;fill-rule:nonzero;stroke:none" transform="matrix(1.84655 0 0 -1.84655 64.126 324.27)"/><path d="M0 0" style="fill:#2056ae;fill-opacity:1;fill-rule:nonzero;stroke:none" transform="matrix(1.84655 0 0 -1.84655 318.268 323.285)"/><path d="M0 0" style="fill:#2056ae;fill-opacity:1;fill-rule:nonzero;stroke:none" transform="matrix(1.84655 0 0 -1.84655 321.937 321.013)"/><path d="M0 0" style="fill:#2056ae;fill-opacity:1;fill-rule:nonzero;stroke:none" transform="matrix(1.84655 0 0 -1.84655 314.711 325.17)"/><path d="M0 0" style="fill:#2056ae;fill-opacity:1;fill-rule:nonzero;stroke:none" transform="matrix(1.84655 0 0 -1.84655 311.197 326.74)"/><path d="M0 0" style="fill:#2056ae;fill-opacity:1;fill-rule:nonzero;stroke:none" transform="matrix(1.84655 0 0 -1.84655 333.49 311.44)"/><path d="M0 0" style="fill:#2056ae;fill-opacity:1;fill-rule:nonzero;stroke:none" transform="matrix(1.84655 0 0 -1.84655 330.03 314.734)"/><path d="M0 0" style="fill:#2056ae;fill-opacity:1;fill-rule:nonzero;stroke:none" transform="matrix(1.84655 0 0 -1.84655 326.182 317.954)"/><path d="M0 0" style="fill:#2056ae;fill-opacity:1;fill-rule:nonzero;stroke:none" transform="matrix(1.84655 0 0 -1.84655 265.138 326.292)"/><path d="m0 0-.081.031L0 0" style="fill:#2056ae;fill-opacity:1;fill-rule:nonzero;stroke:none" transform="matrix(1.84655 0 0 -1.84655 248.816 319.981)"/><path d="M0 0" style="fill:#2056ae;fill-opacity:1;fill-rule:nonzero;stroke:none" transform="matrix(1.84655 0 0 -1.84655 296.325 330.458)"/><path d="M0 0" style="fill:#2056ae;fill-opacity:1;fill-rule:nonzero;stroke:none" transform="matrix(1.84655 0 0 -1.84655 259.477 324.24)"/><path d="M0 0" style="fill:#2056ae;fill-opacity:1;fill-rule:nonzero;stroke:none" transform="matrix(1.84655 0 0 -1.84655 304.244 329.044)"/><path d="M0 0" style="fill:#2056ae;fill-opacity:1;fill-rule:nonzero;stroke:none" transform="matrix(1.84655 0 0 -1.84655 307.71 328.024)"/><path d="M0 0" style="fill:#2056ae;fill-opacity:1;fill-rule:nonzero;stroke:none" transform="matrix(1.84655 0 0 -1.84655 300.455 329.874)"/><path d="M0 0" style="fill:#2056ae;fill-opacity:1;fill-rule:nonzero;stroke:none" transform="matrix(1.84655 0 0 -1.84655 347.407 293.992)"/><path d="M0 0" style="fill:#2056ae;fill-opacity:1;fill-rule:nonzero;stroke:none" transform="matrix(1.84655 0 0 -1.84655 334.762 310.113)"/><path d="M0 0" style="fill:#2056ae;fill-opacity:1;fill-rule:nonzero;stroke:none" transform="matrix(1.84655 0 0 -1.84655 52.834 318.044)"/><path d="M0 0" style="fill:#2056ae;fill-opacity:1;fill-rule:nonzero;stroke:none" transform="matrix(1.84655 0 0 -1.84655 56.656 320.414)"/><path d="M0 0c.28.107.533.195.817.307 2.84 1.101 6.006 1.955 9.38 2.605-.114-.021-.235-.039-.348-.06" style="fill:none;stroke:#2056ae;stroke-width:.007;stroke-linecap:butt;stroke-linejoin:miter;stroke-miterlimit:4;stroke-dasharray:none;stroke-opacity:1" transform="matrix(1.84655 0 0 -1.84655 123.966 317.896)"/><path d="M0 0" style="fill:#2056ae;fill-opacity:1;fill-rule:nonzero;stroke:none" transform="matrix(1.84655 0 0 -1.84655 340.388 303.687)"/><path d="M0 0c3.013-.113 6.404.275 10.454 1.25" style="fill:none;stroke:#2056ae;stroke-width:.007;stroke-linecap:butt;stroke-linejoin:miter;stroke-miterlimit:4;stroke-dasharray:none;stroke-opacity:1" transform="matrix(1.84655 0 0 -1.84655 80.488 327.998)"/><path d="M0 0c.255 0 .51.002.765 0C.509.002.255 0 0 0" style="fill:#2056ae;fill-opacity:1;fill-rule:nonzero;stroke:none" transform="matrix(1.84655 0 0 -1.84655 177.015 309.53)"/><path d="M0 0" style="fill:#2056ae;fill-opacity:1;fill-rule:nonzero;stroke:none" transform="matrix(1.84655 0 0 -1.84655 60.402 322.495)"/><path d="M0 0" style="fill:#2056ae;fill-opacity:1;fill-rule:nonzero;stroke:none" transform="matrix(1.84655 0 0 -1.84655 343.847 299.15)"/><path d="M0 0c-.145.014-.291.021-.435.033 5.681-.474 11.164-1.262 16.078-2.271-.069.013-.127.029-.196.043" style="fill:none;stroke:#2056ae;stroke-width:.007;stroke-linecap:butt;stroke-linejoin:miter;stroke-miterlimit:4;stroke-dasharray:none;stroke-opacity:1" transform="matrix(1.84655 0 0 -1.84655 200.032 310.503)"/><path d="M0 0" style="fill:#2056ae;fill-opacity:1;fill-rule:nonzero;stroke:none" transform="matrix(1.84655 0 0 -1.84655 351.832 286.88)"/><path d="M0 0c4.729-1.58 9.881-2.652 15.225-2.361" style="fill:none;stroke:#2056ae;stroke-width:.007;stroke-linecap:butt;stroke-linejoin:miter;stroke-miterlimit:4;stroke-dasharray:none;stroke-opacity:1" transform="matrix(1.84655 0 0 -1.84655 265.275 326.336)"/><path d="M0 0" style="fill:#2056ae;fill-opacity:1;fill-rule:nonzero;stroke:none" transform="matrix(1.84655 0 0 -1.84655 170.133 309.641)"/><path d="M0 0" style="fill:#2056ae;fill-opacity:1;fill-rule:nonzero;stroke:none" transform="matrix(1.84655 0 0 -1.84655 199.23 310.442)"/><path d="M0 0" style="fill:#2056ae;fill-opacity:1;fill-rule:nonzero;stroke:none" transform="matrix(1.84655 0 0 -1.84655 191.908 309.933)"/><path d="M0 0" style="fill:#2056ae;fill-opacity:1;fill-rule:nonzero;stroke:none" transform="matrix(1.84655 0 0 -1.84655 162.57 310.027)"/><path d="M0 0" style="fill:#2056ae;fill-opacity:1;fill-rule:nonzero;stroke:none" transform="matrix(1.84655 0 0 -1.84655 178.427 309.53)"/><path d="M0 0" style="fill:#2056ae;fill-opacity:1;fill-rule:nonzero;stroke:none" transform="matrix(1.84655 0 0 -1.84655 177.015 309.53)"/><path d="M0 0" style="fill:#2056ae;fill-opacity:1;fill-rule:nonzero;stroke:none" transform="matrix(1.84655 0 0 -1.84655 148.796 311.488)"/><path d="M0 0" style="fill:#2056ae;fill-opacity:1;fill-rule:nonzero;stroke:none" transform="matrix(1.84655 0 0 -1.84655 155.179 310.68)"/><path d="M0 0c-.348-.104-.715-.221-1.054-.316C-.715-.221-.348-.104 0 0" style="fill:#2056ae;fill-opacity:1;fill-rule:nonzero;stroke:none" transform="matrix(1.84655 0 0 -1.84655 106.955 323.746)"/><path d="M0 0c-.121-.043-.229-.076-.348-.119.119.043.227.076.348.119" style="fill:#2056ae;fill-opacity:1;fill-rule:nonzero;stroke:none" transform="matrix(1.84655 0 0 -1.84655 117.226 320.392)"/><path d="M0 0v.004c-.357-.135-.695-.258-1.044-.389C-.69-.252-.361-.139 0 0" style="fill:#2056ae;fill-opacity:1;fill-rule:nonzero;stroke:none" transform="matrix(1.84655 0 0 -1.84655 123.966 317.904)"/><path d="M0 0c.329.08.688.184 1.025.271C.683.182.333.09 0 .01Z" style="fill:#2056ae;fill-opacity:1;fill-rule:nonzero;stroke:none" transform="matrix(1.84655 0 0 -1.84655 99.792 325.708)"/><path d="M0 0c-.228.047-.46.088-.687.143C-.461.088-.228.047 0 0" style="fill:#2056ae;fill-opacity:1;fill-rule:nonzero;stroke:none" transform="matrix(1.84655 0 0 -1.84655 73.018 327.097)"/><path d="M0 0c-.215.068-.434.125-.647.197C-.434.125-.214.066 0 0" style="fill:#2056ae;fill-opacity:1;fill-rule:nonzero;stroke:none" transform="matrix(1.84655 0 0 -1.84655 69.082 326.083)"/><path d="M0 0c-.194.098-.389.182-.583.283C-.389.184-.194.096 0 0" style="fill:#2056ae;fill-opacity:1;fill-rule:nonzero;stroke:none" transform="matrix(1.84655 0 0 -1.84655 61.48 323.018)"/><path d="M0 0c-.203.084-.41.156-.612.244C-.41.156-.203.084 0 0" style="fill:#2056ae;fill-opacity:1;fill-rule:nonzero;stroke:none" transform="matrix(1.84655 0 0 -1.84655 65.256 324.72)"/><path d="M0 0c-.173.109-.339.207-.513.32C-.339.207-.172.109 0 0" style="fill:#2056ae;fill-opacity:1;fill-rule:nonzero;stroke:none" transform="matrix(1.84655 0 0 -1.84655 53.782 318.636)"/><path d="M0 0v.016C-.089.02-.183.018-.271.021-.179.018-.093.004 0 0" style="fill:#2056ae;fill-opacity:1;fill-rule:nonzero;stroke:none" transform="matrix(1.84655 0 0 -1.84655 80.488 328.027)"/><path d="M0 0c-.187.107-.371.203-.559.314C-.371.203-.187.107 0 0" style="fill:#2056ae;fill-opacity:1;fill-rule:nonzero;stroke:none" transform="matrix(1.84655 0 0 -1.84655 57.689 320.994)"/><path d="M0 0c-.25.027-.504.049-.75.084C-.505.049-.25.027 0 0" style="fill:#2056ae;fill-opacity:1;fill-rule:nonzero;stroke:none" transform="matrix(1.84655 0 0 -1.84655 77.15 327.75)"/><path d="M0 0c-.236-.336-.474-.658-.71-.982.236.324.474.646.71.982" style="fill:#2056ae;fill-opacity:1;fill-rule:nonzero;stroke:none" transform="matrix(1.84655 0 0 -1.84655 345.158 297.336)"/><path d="M0 0c-.193-.068-.387-.143-.58-.205.193.062.387.137.58.205" style="fill:#2056ae;fill-opacity:1;fill-rule:nonzero;stroke:none" transform="matrix(1.84655 0 0 -1.84655 308.78 327.645)"/><path d="M0 0c-.23-.24-.459-.486-.689-.719.23.233.459.479.689.719" style="fill:#2056ae;fill-opacity:1;fill-rule:nonzero;stroke:none" transform="matrix(1.84655 0 0 -1.84655 334.762 310.113)"/><path d="M0 0c-.23-.141-.46-.27-.69-.4.23.13.46.259.69.4" style="fill:#2056ae;fill-opacity:1;fill-rule:nonzero;stroke:none" transform="matrix(1.84655 0 0 -1.84655 319.542 322.545)"/><path d="M0 0c-.224-.096-.447-.193-.672-.285.225.092.448.189.672.285" style="fill:#2056ae;fill-opacity:1;fill-rule:nonzero;stroke:none" transform="matrix(1.84655 0 0 -1.84655 312.438 326.213)"/><path d="M0 0" style="fill:#2056ae;fill-opacity:1;fill-rule:nonzero;stroke:none" transform="matrix(1.84655 0 0 -1.84655 341.75 301.963)"/><path d="M0 0c-.094-.023-.187-.055-.279-.078.092.023.185.055.279.078" style="fill:#2056ae;fill-opacity:1;fill-rule:nonzero;stroke:none" transform="matrix(1.84655 0 0 -1.84655 304.76 328.9)"/><path d="M0 0" style="fill:#2056ae;fill-opacity:1;fill-rule:nonzero;stroke:none" transform="matrix(1.84655 0 0 -1.84655 316.008 324.522)"/><path d="M0 0c.07.004.141.014.211.018L0 .008Z" style="fill:#2056ae;fill-opacity:1;fill-rule:nonzero;stroke:none" transform="matrix(1.84655 0 0 -1.84655 293.388 330.71)"/><path d="M0 0c-.201-.141-.402-.266-.604-.4.202.134.403.259.604.4" style="fill:#2056ae;fill-opacity:1;fill-rule:nonzero;stroke:none" transform="matrix(1.84655 0 0 -1.84655 323.052 320.273)"/><path d="M0 0c-.246-.285-.49-.572-.736-.848.246.276.49.563.736.848" style="fill:#2056ae;fill-opacity:1;fill-rule:nonzero;stroke:none" transform="matrix(1.84655 0 0 -1.84655 338.297 306.204)"/><path d="M0 0c-.064-.051-.131-.094-.195-.145.066.051.131.094.195.145" style="fill:#2056ae;fill-opacity:1;fill-rule:nonzero;stroke:none" transform="matrix(1.84655 0 0 -1.84655 326.543 317.687)"/><path d="M0 0c-.18-.166-.357-.344-.535-.502.178.158.355.336.535.502" style="fill:#2056ae;fill-opacity:1;fill-rule:nonzero;stroke:none" transform="matrix(1.84655 0 0 -1.84655 331.019 313.807)"/><path d="M0 0c-.041-.008-.08-.012-.12-.02.04.008.079.012.12.02" style="fill:#2056ae;fill-opacity:1;fill-rule:nonzero;stroke:none" transform="matrix(1.84655 0 0 -1.84655 300.677 329.838)"/><path d="M0 0c-.199-.313-.4-.604-.6-.906.2.302.401.593.6.906" style="fill:#2056ae;fill-opacity:1;fill-rule:nonzero;stroke:none" transform="matrix(1.84655 0 0 -1.84655 348.514 292.319)"/><path d="M0 0c-.161-.02-.322-.031-.483-.049.161.018.322.029.483.049" style="fill:#2056ae;fill-opacity:1;fill-rule:nonzero;stroke:none" transform="matrix(1.84655 0 0 -1.84655 297.218 330.368)"/><path d="M0 0" style="fill:#2056ae;fill-opacity:1;fill-rule:nonzero;stroke:none" transform="matrix(1.84655 0 0 -1.84655 248.667 319.923)"/><path d="M0 0v.004a1.6 1.6 0 0 1-.074.023C-.049.02-.025.01 0 0" style="fill:#2056ae;fill-opacity:1;fill-rule:nonzero;stroke:none" transform="matrix(1.84655 0 0 -1.84655 265.275 326.343)"/><path d="M0 0" style="fill:#2056ae;fill-opacity:1;fill-rule:nonzero;stroke:none" transform="matrix(1.84655 0 0 -1.84655 242.543 317.968)"/><path d="M0 0" style="fill:#2056ae;fill-opacity:1;fill-rule:nonzero;stroke:none" transform="matrix(1.84655 0 0 -1.84655 235.74 316.162)"/><path d="m0 0-.071.025L0 0" style="fill:#2056ae;fill-opacity:1;fill-rule:nonzero;stroke:none" transform="matrix(1.84655 0 0 -1.84655 259.609 324.287)"/><path d="M0 0" style="fill:#2056ae;fill-opacity:1;fill-rule:nonzero;stroke:none" transform="matrix(1.84655 0 0 -1.84655 254.039 322.004)"/><path d="m0 0-13.646-1.409-20.49-2.116-14.34-1.481-19.537-2.017-22.273-2.301-13.577-1.401v-.002l-9.272-.957-34.948-3.609c3.369-8.132 9.458-20.585 16.849-25.642.653-.447 1.288-.869 1.916-1.279l.581-.371c.458-.291.912-.573 1.361-.842.199-.119.4-.242.598-.358a40.206 40.206 0 0 1 1.768-.978c.16-.084.321-.154.48-.235.438-.218.878-.427 1.317-.623.243-.107.49-.209.734-.31.38-.156.763-.301 1.147-.438.242-.084.483-.177.728-.256a23.562 23.562 0 0 1 1.717-.484c.269-.064.548-.113.821-.17.365-.074.733-.142 1.106-.201.318-.049.641-.09.966-.129.36-.039.729-.066 1.099-.09.259-.019.505-.054.77-.064v.015c3.018-.111 6.401.276 10.454 1.25v-.009c.329.08.688.183 1.025.269.593.153 1.179.299 1.799.477.34.095.707.213 1.054.318 1.637.485 3.362 1.043 5.214 1.695.121.043.228.077.35.12.834.295 1.724.632 2.605.962.354.133.682.249 1.044.385v.004c.28.108.533.195.818.307 2.839 1.099 6.007 1.955 9.379 2.605 1.066.205 2.146.395 3.25.561.073.01.147.017.219.029 1.063.154 2.144.287 3.238.406.206.022.41.047.618.069 1.116.113 2.245.207 3.385.285.226.017.453.029.68.043 1.13.07 2.268.127 3.415.166l.168.006c1.181.037 2.369.05 3.559.054h.765c1.153-.004 2.31-.021 3.465-.054.228-.006.456-.016.684-.026 1.052-.033 2.104-.08 3.151-.138.194-.012.387-.02.579-.032 1.136-.066 2.265-.152 3.386-.244 5.795-.484 11.377-1.299 16.365-2.336.699-.146 1.369-.302 2.045-.457.588-.134 1.185-.263 1.752-.404.724-.18 1.404-.369 2.092-.559.475-.13.971-.255 1.428-.39.759-.225 1.46-.459 2.162-.692.338-.113.705-.218 1.029-.334a44.355 44.355 0 0 0 2.809-1.089 94.726 94.726 0 0 1 2.701-1.112c.285-.111.574-.213.86-.322a65.643 65.643 0 0 1 1.962-.711c.191-.066.371-.141.562-.205v.018c4.733-1.579 9.879-2.667 15.225-2.374v-.009c.07.004.141.013.211.019.459.028.918.069 1.38.119.161.016.322.028.483.047.583.073 1.168.16 1.754.268.039.008.079.012.119.019.642.119 1.287.264 1.932.43.093.023.185.055.278.078.532.143 1.065.299 1.599.475.193.064.386.136.58.205.435.152.872.314 1.308.49.225.09.449.19.674.287.409.176.819.363 1.23.563.234.115.469.23.702.351.408.211.816.438 1.224.67.229.133.459.262.69.401.433.259.865.543 1.297.83.201.134.402.259.603.4a35.89 35.89 0 0 1 1.696 1.256c.066.051.131.094.195.146.631.5 1.261 1.034 1.889 1.598.177.16.357.336.535.502.445.414.892.834 1.338 1.281.23.233.459.479.689.719.393.412.785.832 1.178 1.271.246.274.49.559.736.846.379.442.756.897 1.133 1.363a60.803 60.803 0 0 1 1.873 2.457c.236.327.474.647.71.983.407.582.814 1.193 1.218 1.809.199.304.4.595.599.908.602.945 1.202 1.92 1.797 2.945 5.268 9.063 9.676 19.324 12.736 30.185z" style="fill:#2056ae;fill-opacity:1;fill-rule:nonzero;stroke:none" transform="matrix(1.84655 0 0 -1.84655 291.453 239.83)"/><path d="m0 0-2.268 96.291c-.048 2.065-1.247 2.977-2.622 3.852-1.837 1.17-4.75.412-6.125-1.5-1.203-1.675-1.621-3.337-2.9-5.162-1.349-1.926-3.229-3.59-5.334-4.644-5.568-2.786-10.822 1.933-14.09 6.062-.809 1.024-1.51 1.699-1.949 2.955-.383 1.093-.514 2.284-1.354 3.159-1.306 1.361-4.192 1.409-6.317.409-.708-.333-2.5-2.625-2.625-5.25L-48.476-5.006l-.91-33.267c5.448-.469 10.71-1.23 15.448-2.195l-.198 36.943-.401 74.584c3.602 4.126 11.964 10.794 21.525-1.389l-.634-71.079-.408-45.442c4.731-1.58 9.883-2.656 15.225-2.365z" style="fill:#fff;fill-opacity:1;fill-rule:nonzero;stroke:none" transform="matrix(1.84655 0 0 -1.84655 291.226 239.83)"/><path d="m0 0-1.413 59.377a3.587 3.587 0 1 1-7.174 0v-1.666c-.006-.037-.006-.107-.006-.199-.717-1.415-5.921-10.705-14.119.863l-.048-.09v1.461a3.59 3.59 0 0 1-3.591 3.588 3.587 3.587 0 0 1-3.585-3.588l-1.73-63.016-.99-36.079c3.013-.113 6.403.281 10.454 1.256l-.193 35.782-.236 43.809c2.375 2.719 7.885 7.11 14.185-.916L-8.817-.91l-.294-32.957c.272.104.538.203.818.311 2.741 1.064 5.785 1.904 9.031 2.545z" style="fill:#fff;fill-opacity:1;fill-rule:nonzero;stroke:none" transform="matrix(1.84655 0 0 -1.84655 140.79 255.367)"/><path d="M0 0c1.304-2.976 11.673-12.906 11.673-12.906S11.177 2.259 9.688 5.373z" style="fill:#ec0a68;fill-opacity:1;fill-rule:nonzero;stroke:none" transform="matrix(1.84655 0 0 -1.84655 369.78 19.377)"/><path d="M0 0c2.256-.722 16.185 1.896 16.185 1.896S3.148 7.217.959 7.771z" style="fill:#ec0a68;fill-opacity:1;fill-rule:nonzero;stroke:none" transform="matrix(1.84655 0 0 -1.84655 360.704 46.097)"/><path d="M0 0c2.038 1.646 8.966 16.46 8.966 16.46S-3.718 9.053-5.758 7.482z" style="fill:#ec0a68;fill-opacity:1;fill-rule:nonzero;stroke:none" transform="matrix(1.84655 0 0 -1.84655 375.356 71.933)"/><path d="M0 0c-2.461.676-18.698-1.757-18.698-1.757S-3.945-8.745-1.534-9.401z" style="fill:#ec0a68;fill-opacity:1;fill-rule:nonzero;stroke:none" transform="matrix(1.84655 0 0 -1.84655 425.333 39.392)"/><path d="M0 0c.025 3.608-13.799 14.391-13.799 14.391s.805-15.128.789-18.658z" style="fill:#ec0a68;fill-opacity:1;fill-rule:nonzero;stroke:none" transform="matrix(1.84655 0 0 -1.84655 416.158 68.85)"/><path d="M0 0c-1.668-2.923-8.595-17.027-8.595-17.027S5.256-9.43 7.102-6.619z" style="fill:#ec0a68;fill-opacity:1;fill-rule:nonzero;stroke:none" transform="matrix(1.84655 0 0 -1.84655 406.723 11.234)"/><path d="M0 0c.589-1.344 5.27-5.829 5.27-5.829s-.222 6.848-.895 8.255z" style="fill:#fff;fill-opacity:1;fill-rule:nonzero;stroke:none" transform="matrix(1.84655 0 0 -1.84655 328.413 74.08)"/><path d="M0 0c1.02-.327 7.309.855 7.309.855S1.422 3.259.432 3.508z" style="fill:#fff;fill-opacity:1;fill-rule:nonzero;stroke:none" transform="matrix(1.84655 0 0 -1.84655 324.314 86.146)"/><path d="M0 0c.922.745 4.053 7.435 4.053 7.435S-1.678 4.09-2.599 3.38z" style="fill:#fff;fill-opacity:1;fill-rule:nonzero;stroke:none" transform="matrix(1.84655 0 0 -1.84655 330.928 97.817)"/><path d="M0 0c-1.111.305-8.444-.792-8.444-.792s6.663-3.157 7.752-3.453z" style="fill:#fff;fill-opacity:1;fill-rule:nonzero;stroke:none" transform="matrix(1.84655 0 0 -1.84655 353.502 83.12)"/><path d="M0 0c.012 1.63-6.232 6.5-6.232 6.5s.363-6.833.355-8.427z" style="fill:#fff;fill-opacity:1;fill-rule:nonzero;stroke:none" transform="matrix(1.84655 0 0 -1.84655 349.358 96.423)"/><path d="M0 0c-.756-1.319-3.885-7.688-3.885-7.688S2.371-4.259 3.204-2.99z" style="fill:#fff;fill-opacity:1;fill-rule:nonzero;stroke:none" transform="matrix(1.84655 0 0 -1.84655 345.1 70.404)"/><path d="M0 0c.31-.706 2.769-3.061 2.769-3.061S2.651.535 2.298 1.274z" style="fill:#fff;fill-opacity:1;fill-rule:nonzero;stroke:none" transform="matrix(1.84655 0 0 -1.84655 313.89 108.374)"/><path d="M0 0c.536-.169 3.836.451 3.836.451S.746 1.711.227 1.842z" style="fill:#fff;fill-opacity:1;fill-rule:nonzero;stroke:none" transform="matrix(1.84655 0 0 -1.84655 311.738 114.711)"/><path d="M0 0c.48.391 2.123 3.902 2.123 3.902S-.883 2.147-1.366 1.774z" style="fill:#fff;fill-opacity:1;fill-rule:nonzero;stroke:none" transform="matrix(1.84655 0 0 -1.84655 315.215 120.835)"/><path d="M0 0c-.583.16-4.433-.418-4.433-.418S-.935-2.074-.362-2.23z" style="fill:#fff;fill-opacity:1;fill-rule:nonzero;stroke:none" transform="matrix(1.84655 0 0 -1.84655 327.06 113.119)"/><path d="M0 0c.004.855-3.271 3.413-3.271 3.413s.188-3.588.186-4.424z" style="fill:#fff;fill-opacity:1;fill-rule:nonzero;stroke:none" transform="matrix(1.84655 0 0 -1.84655 324.887 120.106)"/><path d="M0 0c-.396-.693-2.038-4.038-2.038-4.038s3.284 1.802 3.723 2.469z" style="fill:#fff;fill-opacity:1;fill-rule:nonzero;stroke:none" transform="matrix(1.84655 0 0 -1.84655 322.65 106.444)"/><path d="m0 0 .008-2.07 55.699 8.151.127 4.644z" style="fill:#4dc6f4;fill-opacity:1;fill-rule:nonzero;stroke:none" transform="matrix(1.84655 0 0 -1.84655 99.345 241.576)"/><path d="m0 0 36.277 5.309.05 1.668z" style="fill:#4dc6f4;fill-opacity:1;fill-rule:nonzero;stroke:none" transform="matrix(1.84655 0 0 -1.84655 15.699 257.643)"/><path d="m0 0-90.109-17.309.027-5.254L0-9.379s17.804 1.685 18.069 7.011C18.377 3.773 0 0 0 0" style="fill:#4dc6f4;fill-opacity:1;fill-rule:nonzero;stroke:none" transform="matrix(1.84655 0 0 -1.84655 394.425 184.899)"/><path d="M0 0c0-2.537-18.635-4.6-41.628-4.6-22.988 0-41.624 2.063-41.624 4.6 0 2.541 18.636 4.6 41.624 4.6C-18.635 4.6 0 2.541 0 0" style="fill:#4dc6f4;fill-opacity:1;fill-rule:nonzero;stroke:none" transform="matrix(1.84655 0 0 -1.84655 261.33 391.506)"/><path d="M0 0c0-5.063-28.648-9.166-63.989-9.166-35.337 0-63.985 4.103-63.985 9.166 0 5.063 28.648 9.164 63.985 9.164C-28.648 9.164 0 5.063 0 0" style="fill:#4dc6f4;fill-opacity:1;fill-rule:nonzero;stroke:none" transform="matrix(1.84655 0 0 -1.84655 302.62 354.762)"/><path d="M0 0v.002zm6.587-5.449-.085.033-1.615 1.471c-.002.002-1.158.959-2.366 1.939C1.437-1.119.198-.146-.024.006c-.015.002-.033.006-.055.008a5.406 5.406 0 0 1-.343.041c-.297.029-.713.064-1.209.099-.994.073-2.319.159-3.713.241-2.793.169-5.861.337-7.176.439-.421.045-.507.016-.792.104-4.988.943-12.858 2.037-15.112 2.152l-.023-.024c-.303 0-.106.028-.106.028h-.067l-12.893 3.127-9.81-.498-8.441-3.766-.063-.01c-3.235-.533-9.754-2.826-9.763-2.832l-.251-.088-1.318.971-11.529-5.113-.035-.01c-4.287-1.109-7.593-1.305-9.393-1.305-.963 0-1.494.055-1.51.057l.112.316c.002 0 .482-.095 1.407-.093 1.721-.002 5.106.234 9.281 1.312l.474.305L-71.034.572l1.223-1.222c1.218.421 6.936 2.293 9.969 2.812l1.079.467 7.201 3.508 10.146.511 12.715-3.158c.076.002-.279-.156-.078-.156l.172.031c2.109-.062 10.062-1.031 15.671-2.281l.018.773.008.014c.076-.008.193-.596.336-.607v.576c.288-.022.695-.627 1.185-.658v.576c.981-.063 2.297-.717 3.69-.797v.576C-4.912 1.373-1.826.615-.464.488v.576c.43-.056.558-.607.853-.72V.92C.747.725 1.909-.805 3.15-1.807v.577c1.213-.985 2.371-2.518 2.391-2.536l-.057-.41 1.065-.912c.334-.119 2.086-.832 4.265-1.344v.016a45.67 45.67 0 0 1 10.141-1.172l-.031.016c.336 0 .748.008 1.094.015l-.075.713 3.522 2.098.605-.219-3.781-2.871-.161-.004a49.13 49.13 0 0 0-1.207-.017c-8.196.002-14.298 2.394-14.334 2.408" style="fill:#2056ae;fill-opacity:1;fill-rule:nonzero;stroke:none" transform="matrix(1.84655 0 0 -1.84655 252.775 316.205)"/></svg>