<svg xmlns="http://www.w3.org/2000/svg" xml:space="preserve" width="537.48022" height="300" viewBox="0 0 537.48022 300"><path d="M104.522-14.336C43.112-26.52 1.504-50.056 1.504-77.088c0-39.545 89.036-71.603 198.86-71.603 109.827 0 198.861 32.058 198.861 71.603 0 27.11-41.853 50.706-103.562 62.86l-.17-17.594c45.26-9.81 75.02-26.423 75.02-45.266 0-30.148-76.18-54.59-170.149-54.59-93.97 0-170.146 24.442-170.146 54.59 0 18.743 29.443 35.28 74.302 45.11l.002 17.642" style="fill:#2e3192;fill-opacity:1;fill-rule:nonzero;stroke:none;stroke-width:.30078" transform="matrix(1.3514 0 0 -1.3514 -2.032 99.06)"/><path d="M278.568 73.302H120.156V-81.015s4.128 59.007 34.409 89.636l45.799-13.522-14.287 45.243c30.455 30.453 92.491 32.96 92.491 32.96" style="fill:#2e3192;fill-opacity:1;fill-rule:nonzero;stroke:none;stroke-width:.30078" transform="matrix(1.3514 0 0 -1.3514 -2.032 99.06)"/><path d="m207.509 23.799 19.083-53.11-55.364 16.595s-21.133-22.067-18.989-68.3h126.329V43.726c-46.245 1.88-71.06-19.926-71.06-19.926" style="fill:#00a650;fill-opacity:1;fill-rule:nonzero;stroke:none;stroke-width:.30078" transform="matrix(1.3514 0 0 -1.3514 -2.032 99.06)"/></svg>