<svg xmlns="http://www.w3.org/2000/svg" width="934.60248mm" height="500mm" viewBox="0 0 934.60245 500"><defs><clipPath id="a" clipPathUnits="userSpaceOnUse"><path d="M212.245 583.879c6.691-6.105 10.258-19.58 10.051-34.35.425.042 1.009-.072 2.049-.54 2.92-1.319 4.649-1.64 6.501-1.49 1.854.149 2.381-.499 4.496-1.628 1.271-.677 2.279-.625 3.198-.572.611.035 1.181.069 1.765-.107.855-.26 1.17-.085 1.515.09.246.125.505.249.984.219.041-.003.078-.009.111-.013 1.391 21.483-3.702 41.382-12.984 45.427-1.339.583-2.72.865-4.126.865-4.454.001-9.155-2.833-13.56-7.901"/></clipPath><clipPath id="c" clipPathUnits="userSpaceOnUse"><path d="M182.934 567.868c-1.928-2.358-3.804-5.148-5.564-8.302-2.136-3.821-4.108-8.175-5.806-12.954.611-.152 1.315-.144 1.947-.19 1.078-.075 1.078-1.537 1.615-2.384.374-.587.6-.58.96-.573.158.003.343.005.578-.041.77-.155 1.922-1.463 3.384-1.729 1.46-.27 4.193-.619 6.424-.043 1.309.338 2.248.735 3.053 1.27.538 2.669 1.207 5.97 1.317 6.513 1.866 9.163 4.686 17.559 8.143 24.858a87.302 87.302 0 0 0 1.557 3.106 6.836 6.836 0 0 1-2.305.381c-4.696 0-10.592-4.142-15.303-9.912"/></clipPath><clipPath id="e" clipPathUnits="userSpaceOnUse"><path d="M204.319 571.601c-2.853-5.767-5.34-12.574-7.229-20.18-.249-1.003-.85-3.78-1.438-6.581 1.226-.114.992-.244 2.124.867 1.156 1.13 2.998 1.33 6.115 1.792 2.291.34 3.145-.068 4.675-.109.691 10.569-.391 20.25-3.48 25.722a75.927 75.927 0 0 1-.767-1.511"/></clipPath><clipPath id="g" clipPathUnits="userSpaceOnUse"><path d="M207.304 619.403c-2.771-.789-5.009-.235-6.438-.829-.273-.11-.47-.063-.769-.098-.304-.037-.767-.301-1.102-.496-.336-.197-1.547-.374-1.755-.428-.215-.053-.232-.174-.534-.267-.129-.051-.288-.043-.456-.036-.177.008-.364.016-.535-.044l-.038-.024c-.179-.072-1.153 0-1.527.052-.369.052-.603-.088-.956-.16-.356-.071-.482-.106-.764-.14-.07-.027-.121-.006-.177.014-.075.027-.162.055-.32-.03-.318-.18-.975-.109-1.261-.056-.212.036-.477.177-.744.141-.393.018-.668.333-1.49.429-.779.086-1.225-.338-1.703-.429-.13-.064-.527-.084-1.223-.355-.128-.123-.479-.14-.695-.14-.241.025-.358.078-.457.158-.14.196-.356.159-.518.355-.156.073-.247.232-.378.365-.521.221-1.022.38-1.668.369a.915.915 0 0 0-.256.013c-.075.012-.149.024-.235.016a2.491 2.491 0 0 0-.475-.014c-.096.005-.157.012-.258-.013a1.216 1.216 0 0 0-.595-.015c-.131.024-.252.049-.444.006-.128-.057-.243-.029-.372-.002-.105.021-.219.044-.355.02-.753-.17-1.248-.242-1.996-.413-1.056-.279-2.529-.671-3.33-.63-1.041.096-1.469-.047-2.27-.378-.578-.109-.886-.227-1.454-.442-.179-.069-.429-.172-.502-.315-.634-.356-1.457-.312-1.987-.486-.542-.178-1.128-.111-1.657-.044-.467.06-.89.119-1.195.009-.678-.248-1.783-.826-2.464-1.083a11.924 11.924 0 0 1-.836-.368c-.113-.194-.39-.228-.549-.356-.181-.229-.197-.177-.531-.442-.155-.162-.596-.351-.762-.487-.463-.207-.695-.384-1.385-.736-.533-.254-.814-.265-1.475-.428-.425-.106-.707-.285-1.134-.443-.276-.11-.817-.317-1.102-.302a1.888 1.888 0 0 1-.965-.209c-.297-.124-.518-.378-.718-.521-.245-.188-.442-.274-.719-.563-.184-.211-.265-.363-.526-.525-.278-.175-.581-.274-.676-.317-.181-.081-.36-.146-.487-.215-.215-.075-.247-.103-.475-.201-.138-.031-.258-.052-.44-.17-.163-.158-.324-.248-.56-.386-.439-.231-.864-.518-1.201-.743-1.637-.775-2.531-1.037-4.236-2.213-.267-.185-.667-.346-.981-.657-.152-.13-.467-.246-.744-.374-.371-.17-.694-.25-1.27-.485-.665-.222-1.113-.429-1.784-.724-.302-.143-.834-.489-1.057-.602a9.365 9.365 0 0 1-.861-.552c-.232-.17-.755-.636-1.248-.93-.194-.107-.25-.131-.301-.14-1.293-.304-2.325-3.352-3.49-2.964-.681-.19-.886-.505-.808-1.315 0 0-.844-1.51-.456-2.01.385-.5.501-1.23-.095-1.536-.596-.304 0-.2-.328-1.927-.328-1.726.191-3.65.731-4.766.539-1.115 1.116-2.347 1.153-3.152.04-.81.536-1.54.822-1.513.288.025.41-.333.577-1.036.723-3.021 2.103-3.682 3.332-4.067 1.23-.383 1.075-.766 1.075-1.633-.002-.865.231-1.251.696-1.134.458.114 2.113-1.501 3.22-2.989 1.109-1.493 1.546-.933 1.852-3.78.308-2.845 1.462-4.151 2.458-5.58.993-1.428 2.765-1.348 3.925-2.57.486-.513.875-.495 1.27-.476.544.025 1.098.05 1.924-1.332 1.42-2.386 3.844-1.614 4.767-2.925.924-1.304 3.727-2.537 4.769-2.763 1.038-.234 2.076-.734 3-2.083.396-.579 1.054-.822 1.715-.9 1.714 5.042 3.769 9.751 6.071 14.024a77.045 77.045 0 0 0 4.393 7.208c8.005 11.609 19.086 19.689 27.847 18.555.379-.048.748-.114 1.116-.2 8.442 11.603 18.748 17.846 28.456 16.015 14.632-2.759 25.031-26.363 25-52.693.432.127.47.309.808.595.558.394 1.757.493 1.853 1.364-.055.456.031.716.333.774a.486.486 0 0 0 .254.051c.084 0 .16-.001.27.085.133.112.507.427.677.555.233.181-.016.447-.016.809.056.322.085.553.143.88.174.243.617.478.677.505.418.301.468.678.306.869-.161.298.03.706.646.889.449.144.722.393.935.823-.125 1.267.873.641 1.592 1.209.559.489.518.953.647 1.227.245.404.734.288 1.382.651 1.055.776 2.063 1.469 2.639 3.344.391 1.428-.028 1.889-.04 3.3.084.665-.188.968.231 1.313.971.343.46.867.46 1.789-.029.763-.479.835-.33 1.471.371.937.286 1.18.475 2.277.185.779-.824 1.227-.468 2.138.653 1.34 1.39 1.093 1.606 1.987.446 1.055 1.239.865 1.05 2.387-.097.483-.143.757-.112 1.176.056.465.186.718.119 1.284-.339 2.264-.624 3.575-.797 5.35-.056.341-.016.878-.047 1.241a710.43 710.43 0 0 0-.364 3.373c-.147 1.231-.452 1.384-.873 2.278-.151.239-.288.879-.405 1.153-.257.482-.564.282-.825.977-.176.28.02.536-.099.984-.127.388-.314.354-.816 1.024-.162.258-.299.411-.318.588-.253.339-.853.204-1.297.68-.265.263-.163.42-.481.694-.232.163-1.54.778-1.807 1.649-.073.265-.085.327-.382.601-.38.228-.757.076-1.079.335-.638.516-.955 1.782-1.72 2.259-1.199.518-2.02.941-3.509.863a2.41 2.41 0 0 0-.592.079c-.198.047-.363.093-.51.073-.761-.074-.667.414-.969.586-.17.033-.287.022-.405.012a1.304 1.304 0 0 0-.462.023c-.271.064-.578.02-.844.319-.223.238-.137.582-.227.795-.262.486-.967.263-1.426.178-.591-.235-1.177.188-1.612.214-.669.114-1.8 1.155-2.638 1.4-1.284.405-2.365.189-3.776.447-.319.086-.81.204-1.156.33-.244.046-.404.234-.691.377-.231.073-.042.215-.39.333-.389.199-.711.231-1.095.416-.247.116-.666.303-.976.417-.412.094-.832.18-1.248.275a4.722 4.722 0 0 0-.544.174c-.26.072-.436.157-.723.238-.557.18-1.052.992-1.624 1.189a171.99 171.99 0 0 0-1.894-.066c-.146.026-.234-.006-.327-.039a.67.67 0 0 0-.367-.039c-.336.09-.59.109-.749.144-.741.117-.454.664-.972.899-.942.423-1.292.37-1.723.399-.547 0-.961.114-1.141-.299-.462-.248-.937.083-1.807.352 0 0-.169.006-.283.12-.114.116-.433.403-.794.318-.272-.072-.362-.146-.603-.536-.26-.357-.563-.589-.867-.878-.488-.11-.922-1.411-2.248-1.176-1.327.308-2.164 1.061-3.324 1.826-.337.217-.528.72-.893.726-.406.012-.248.204-.486.384a.503.503 0 0 1-.393.202c-.453-.006-.775.128-1.185.269-.302.108-.531.355-1.065.441-.566-.015-.755.022-1.331-.086-.233 0-.392 0-.567.017l-1.595-.306c-.133.014-.301-.041-.459-.095-.158-.054-.305-.108-.395-.094-.396-.087-.691.054-1.062.14-.411.054-.588.252-.836.32-.618.134-.533.019-1.063.161-.322.087-.82.292-1.028.411-.186.099-.456.136-.753.136-.73 0-1.621-.221-1.816-.276"/></clipPath><clipPath id="i" clipPathUnits="userSpaceOnUse"><path d="M229.931 590.915c9.282-4.045 14.375-23.944 12.984-45.427 1.017-.127.749-.934 1.544-1.643.823-.734 2.343-.461 3.477-.275 1.13.189 1.327.853 2.096 1.277.77.424 1.27.191 2.016.556.747.368 1.254.596 1.754 1.597.501.997 1.019 1.296 2.114 1.419 1.095.124 1.123.224 1.123.224.421.234.433.706.554 1.149.811.042 1.419-.003 1.99.487.134.021.242.048.337.073.031 26.33-10.368 49.934-25 52.693z"/></clipPath><clipPath id="k" clipPathUnits="userSpaceOnUse"><path d="M198.985 574.293c-3.457-7.299-6.277-15.695-8.143-24.858-.11-.543-.779-3.844-1.317-6.513.563.375 1.062.821 1.577 1.368 1.248 1.325 3.175.672 4.481.557.028-.001.046-.005.069-.007.588 2.801 1.189 5.578 1.438 6.581 1.889 7.606 4.376 14.413 7.229 20.18.253.513.509 1.016.767 1.511-1.183 2.095-2.654 3.58-4.441 4.253-.033.012-.071.02-.103.034a87.302 87.302 0 0 1-1.557-3.106"/></clipPath><clipPath id="m" clipPathUnits="userSpaceOnUse"><path d="M206.464 587.03c2.125-.487 4.055-1.577 5.781-3.151 5.794 6.667 12.103 9.468 17.686 7.036l4.989 12.13a18.219 18.219 0 0 1-3.388.315c-8.679.001-17.602-6.068-25.068-16.33"/></clipPath><clipPath id="o" clipPathUnits="userSpaceOnUse"><path d="M177.501 568.675a77.045 77.045 0 0 1-4.393-7.208c-2.302-4.273-4.357-8.982-6.071-14.024.874-.1 1.763.084 2.09.172.577.154.692.46 1.355-.367.274-.343.654-.529 1.082-.636 1.698 4.779 3.67 9.133 5.806 12.954 1.76 3.154 3.636 5.944 5.564 8.302 5.521 6.762 12.67 11.288 17.608 9.531a79.876 79.876 0 0 0 3.247 5.688 70.287 70.287 0 0 0 2.675 3.943c-.368.086-.737.152-1.116.2-.549.071-1.108.106-1.675.106-8.465 0-18.669-7.78-26.172-18.661"/></clipPath><clipPath id="q" clipPathUnits="userSpaceOnUse"><path d="M210.471 581.698c-1.881-2.468-3.692-5.347-5.385-8.586 3.089-5.472 4.171-15.153 3.48-25.722.553-.015 1.191.016 2.013.147 3.116.501 3.156 1.306 4.732 1.731 1.576.424 2.061.081 4.422-.193 1.522-.177 1.786.386 2.563.454.207 14.77-3.36 28.245-10.051 34.35a42.953 42.953 0 0 1-1.774-2.181"/></clipPath><clipPath id="s" clipPathUnits="userSpaceOnUse"><path d="M0 841.89h595.28V0H0Z"/></clipPath><clipPath id="t" clipPathUnits="userSpaceOnUse"><path d="M204.869 314.212c6.228-5.683 9.55-18.23 9.354-31.983.398.041.941-.065 1.909-.502 2.719-1.229 4.33-1.53 6.054-1.389 1.727.141 2.219-.465 4.187-1.514 1.184-.633 2.123-.583 2.979-.533.567.032 1.099.066 1.642-.099.796-.244 1.09-.081 1.411.082.229.116.471.232.917.202a.664.664 0 0 0 .105-.011c1.291 20.004-3.449 38.535-12.09 42.299a9.554 9.554 0 0 1-3.844.806c-4.148 0-8.525-2.638-12.624-7.358"/></clipPath><clipPath id="v" clipPathUnits="userSpaceOnUse"><path d="M177.574 299.307c-1.795-2.197-3.541-4.795-5.182-7.73-1.987-3.559-3.825-7.616-5.406-12.063.571-.144 1.227-.134 1.813-.177 1.005-.072 1.005-1.431 1.507-2.222.346-.547.556-.54.892-.533.148.002.32.005.537-.038.717-.146 1.792-1.36 3.152-1.61 1.361-.252 3.904-.574 5.979-.04 1.221.315 2.094.684 2.846 1.183l1.225 6.062c1.736 8.531 4.364 16.353 7.582 23.147.468.989.956 1.949 1.451 2.894a6.376 6.376 0 0 1-2.147.354c-4.374 0-9.864-3.856-14.249-9.227"/></clipPath><clipPath id="x" clipPathUnits="userSpaceOnUse"><path d="M197.486 302.782c-2.656-5.372-4.972-11.709-6.731-18.79-.232-.936-.788-3.52-1.338-6.131 1.141-.108.923-.226 1.978.809 1.076 1.051 2.789 1.24 5.693 1.668 2.131.316 2.929-.061 4.353-.101.644 9.84-.363 18.855-3.239 23.95a79.896 79.896 0 0 1-.716-1.405"/></clipPath><clipPath id="z" clipPathUnits="userSpaceOnUse"><path d="M200.265 347.291c-2.58-.736-4.663-.219-5.993-.771-.257-.104-.437-.06-.717-.092-.282-.033-.712-.28-1.026-.463-.313-.181-1.438-.348-1.635-.397-.199-.05-.215-.165-.495-.25-.12-.047-.269-.04-.426-.034-.166.007-.339.014-.499-.04l-.035-.022c-.167-.068-1.075 0-1.422.048-.344.048-.561-.081-.891-.15-.332-.065-.447-.097-.708-.13-.066-.025-.113-.006-.165.014-.07.025-.151.051-.3-.028-.297-.17-.91-.101-1.172-.052-.201.031-.447.164-.694.131-.365.018-.622.31-1.386.398-.727.082-1.142-.312-1.588-.398-.122-.057-.494-.079-1.14-.328-.118-.118-.447-.131-.644-.131-.225.021-.336.072-.429.144-.128.184-.33.151-.479.333-.146.068-.234.214-.351.338-.487.206-.955.355-1.557.343-.091-.01-.166.002-.24.013a.915.915 0 0 1-.215.017 2.422 2.422 0 0 0-.446-.016c-.088.006-.144.011-.237-.011a1.148 1.148 0 0 0-.555-.013c-.122.022-.235.046-.414.007-.119-.056-.228-.03-.349-.005a.846.846 0 0 1-.327.02c-.701-.159-1.16-.225-1.857-.385-.985-.261-2.357-.625-3.102-.587-.969.089-1.367-.043-2.112-.352-.54-.1-.825-.212-1.355-.411-.168-.065-.399-.16-.466-.294-.591-.331-1.358-.29-1.851-.452-.505-.165-1.051-.103-1.543-.041-.436.055-.829.11-1.114.008-.632-.231-1.66-.769-2.293-1.008a9.761 9.761 0 0 1-.78-.344c-.105-.182-.362-.211-.509-.328-.169-.215-.186-.167-.495-.413-.144-.151-.557-.327-.71-.455-.432-.19-.647-.356-1.292-.685-.493-.236-.756-.246-1.373-.398-.394-.1-.657-.265-1.056-.412-.256-.102-.76-.297-1.023-.283a1.727 1.727 0 0 1-.9-.194c-.276-.115-.484-.351-.668-.484-.228-.176-.412-.256-.671-.526-.172-.196-.247-.335-.489-.488-.26-.163-.539-.255-.63-.295-.169-.075-.336-.137-.456-.199-.197-.072-.227-.099-.44-.188-.128-.029-.24-.05-.408-.157-.153-.148-.302-.232-.522-.362-.409-.212-.803-.481-1.118-.692-1.524-.72-2.356-.963-3.945-2.058-.25-.171-.621-.324-.913-.615-.144-.116-.433-.227-.692-.347-.343-.157-.649-.231-1.184-.45-.618-.205-1.036-.399-1.662-.675-.278-.135-.777-.456-.984-.561a8.37 8.37 0 0 1-.798-.513c-.218-.16-.706-.592-1.162-.868-.182-.098-.233-.12-.281-.129-1.206-.285-2.165-3.119-3.253-2.762-.634-.178-.824-.467-.748-1.223 0 0-.787-1.405-.427-1.872.358-.461.466-1.143-.091-1.429-.553-.282 0-.185-.303-1.796-.305-1.606.177-3.394.679-4.436.503-1.04 1.041-2.183 1.074-2.935.037-.753.499-1.434.766-1.406.267.022.382-.311.536-.969.676-2.813 1.959-3.428 3.105-3.785 1.145-.354 1-.715 1-1.522 0-.806.215-1.164.648-1.055.428.106 1.966-1.399 2.997-2.782 1.035-1.393 1.438-.871 1.727-3.52.286-2.649 1.361-3.863 2.289-5.198.925-1.328 2.574-1.254 3.652-2.393.453-.477.816-.46 1.183-.443.507.025 1.022.049 1.795-1.239 1.321-2.222 3.577-1.505 4.437-2.723.86-1.215 3.467-2.365 4.44-2.573.968-.217 1.933-.683 2.794-1.938.366-.542.979-.769 1.596-.839 1.596 4.693 3.507 9.078 5.652 13.055a71.429 71.429 0 0 0 4.091 6.714c7.453 10.809 17.772 18.332 25.929 17.277.351-.044.697-.106 1.04-.186 7.859 10.803 17.458 16.619 26.495 14.912 13.626-2.569 23.311-24.546 23.279-49.065.402.118.438.287.75.555.525.367 1.638.46 1.73 1.271-.051.425.028.665.308.719.099.05.171.05.237.049.078 0 .148-.001.249.079.127.103.474.397.632.517.218.167-.015.416-.015.752.053.3.082.515.135.82.161.226.573.443.63.469.39.283.435.633.286.812-.152.275.027.659.6.826.418.133.671.365.87.766-.115 1.18.814.598 1.483 1.127.521.455.481.884.602 1.142.228.374.686.266 1.285.604.983.725 1.923 1.369 2.46 3.115.364 1.331-.027 1.758-.039 3.073.08.617-.173.904.213 1.222.906.32.431.808.431 1.666-.025.711-.443.778-.309 1.371.348.873.27 1.098.443 2.119.175.725-.766 1.142-.435 1.99.61 1.249 1.293 1.018 1.495 1.85.415.984 1.153.807.976 2.222-.09.451-.13.705-.101 1.097.051.432.173.669.11 1.196-.318 2.107-.58 3.329-.742 4.983-.053.315-.015.815-.045 1.153-.114 1.046-.225 2.093-.34 3.139-.133 1.147-.42 1.29-.811 2.125-.14.222-.266.816-.378 1.071-.238.45-.524.264-.769.908-.163.264.021.501-.089.917-.119.363-.293.332-.762.955-.148.242-.278.384-.293.547-.24.314-.797.193-1.21.634-.245.246-.151.389-.448.648-.215.151-1.435.723-1.683 1.534-.067.246-.078.303-.353.559-.355.212-.708.072-1.005.312-.598.481-.892 1.66-1.605 2.104-1.117.482-1.88.877-3.265.802a2.25 2.25 0 0 0-.551.073c-.185.044-.339.087-.475.07-.711-.068-.621.385-.903.545-.158.03-.268.02-.377.011-.121-.009-.243-.02-.431.022-.252.06-.537.022-.785.297-.208.221-.125.543-.212.74-.246.453-.9.246-1.327.168-.55-.22-1.098.172-1.502.197-.623.108-1.675 1.077-2.455 1.303-1.193.379-2.202.176-3.518.418-.296.079-.753.19-1.074.306-.229.044-.377.22-.647.352-.213.067-.038.198-.361.31-.36.184-.664.214-1.018.387a12.33 12.33 0 0 1-.91.388c-.385.088-.774.169-1.165.256-.172.043-.338.1-.505.16-.24.069-.403.148-.671.224-.52.168-.98.924-1.511 1.107a130.33 130.33 0 0 0-1.767-.061c-.133.024-.214-.006-.302-.037a.63.63 0 0 0-.341-.036c-.315.086-.551.101-.701.134-.687.11-.421.618-.904.837-.875.394-1.203.344-1.604.374-.509 0-.894.104-1.063-.279-.43-.233-.868.076-1.681.326 0 0-.158.005-.264.112-.105.109-.402.376-.739.296-.253-.066-.338-.138-.562-.499-.243-.334-.524-.549-.807-.817-.455-.103-.859-1.316-2.096-1.096-1.232.288-2.013.987-3.093 1.7-.313.202-.491.672-.831.676-.378.011-.23.191-.451.358a.479.479 0 0 1-.369.188c-.42-.004-.722.119-1.101.252-.283.1-.495.33-.995.409-.527-.012-.698.022-1.235-.079-.22 0-.366 0-.529.015-.492-.093-.988-.191-1.486-.284-.122.011-.279-.038-.425-.088-.148-.051-.286-.101-.37-.089-.367-.082-.643.05-.99.13-.382.051-.545.234-.778.3-.573.124-.495.017-.991.149a5.17 5.17 0 0 0-.955.382c-.173.092-.425.126-.702.126-.679 0-1.508-.205-1.691-.256"/></clipPath><clipPath id="B" clipPathUnits="userSpaceOnUse"><path d="M221.337 320.764c8.641-3.764 13.381-22.295 12.09-42.299.946-.118.694-.869 1.436-1.528.766-.683 2.183-.431 3.237-.256 1.052.175 1.235.793 1.953 1.189.713.394 1.18.177 1.876.515.693.347 1.168.557 1.632 1.488.465.931.947 1.209 1.968 1.322 1.021.115 1.046.207 1.046.207.394.217.402.661.516 1.073.754.039 1.323-.005 1.854.452.125.02.223.045.313.067.032 24.519-9.653 46.496-23.279 49.065z"/></clipPath><clipPath id="D" clipPathUnits="userSpaceOnUse"><path d="M192.519 305.286c-3.218-6.794-5.846-14.616-7.582-23.147l-1.225-6.062c.523.347.988.765 1.468 1.274 1.16 1.231 2.957.624 4.172.519.025-.001.043-.007.065-.009.55 2.611 1.106 5.195 1.338 6.131 1.759 7.081 4.075 13.418 6.731 18.79.235.474.477.946.716 1.405-1.102 1.951-2.475 3.335-4.136 3.961-.031.012-.067.02-.096.032a79.663 79.663 0 0 1-1.451-2.894"/></clipPath><clipPath id="F" clipPathUnits="userSpaceOnUse"><path d="M199.484 317.147c1.978-.45 3.777-1.469 5.385-2.935 5.393 6.21 11.268 8.817 16.468 6.552l4.642 11.295a16.92 16.92 0 0 1-3.155.295c-8.079 0-16.39-5.653-23.34-15.207"/></clipPath><clipPath id="H" clipPathUnits="userSpaceOnUse"><path d="M172.515 300.056a71.429 71.429 0 0 1-4.091-6.714c-2.145-3.977-4.056-8.362-5.652-13.055.811-.094 1.64.076 1.947.16.537.142.642.427 1.262-.341.253-.323.607-.495 1.005-.592 1.581 4.447 3.419 8.504 5.406 12.063 1.641 2.935 3.387 5.533 5.182 7.73 5.14 6.294 11.796 10.509 16.396 8.873a74.624 74.624 0 0 0 3.023 5.294 62.46 62.46 0 0 0 2.491 3.673c-.343.08-.689.142-1.04.186-.512.066-1.033.098-1.56.098-7.881.001-17.384-7.244-24.369-17.375"/></clipPath><clipPath id="J" clipPathUnits="userSpaceOnUse"><path d="M203.215 312.184c-1.75-2.3-3.438-4.981-5.013-7.997 2.876-5.095 3.883-14.11 3.239-23.95a9.952 9.952 0 0 1 1.875.136c2.902.467 2.936 1.217 4.404 1.611 1.47.397 1.92.079 4.117-.18 1.421-.162 1.666.361 2.386.425.196 13.753-3.126 26.3-9.354 31.983a37.69 37.69 0 0 1-1.654-2.028"/></clipPath><clipPath id="L" clipPathUnits="userSpaceOnUse"><path d="M400.864 314.518c6.521-5.951 9.999-19.092 9.796-33.495.416.042.983-.068 1.998-.527 2.85-1.283 4.533-1.601 6.34-1.451 1.805.144 2.324-.489 4.385-1.588 1.239-.661 2.221-.609 3.118-.557.594.034 1.151.07 1.722-.103.833-.256 1.142-.085 1.479.086.239.121.493.242.956.213.041-.004.075-.007.112-.012 1.353 20.946-3.614 40.35-12.664 44.29a9.972 9.972 0 0 1-4.027.847c-4.341 0-8.923-2.764-13.215-7.703"/></clipPath><clipPath id="N" clipPathUnits="userSpaceOnUse"><path d="M372.281 298.906c-1.881-2.3-3.709-5.021-5.428-8.095-2.079-3.726-4.004-7.97-5.66-12.629.6-.15 1.282-.141 1.898-.188 1.054-.074 1.054-1.5 1.579-2.324.362-.573.582-.566.933-.559.155.003.334.005.563-.039.752-.154 1.877-1.425 3.301-1.691 1.426-.262 4.09-.598 6.261-.038 1.276.33 2.194.716 2.979 1.24.525 2.601 1.178 5.819 1.283 6.349 1.821 8.933 4.57 17.12 7.941 24.236a86.45 86.45 0 0 0 1.521 3.03 6.679 6.679 0 0 1-2.251.372c-4.58.001-10.329-4.039-14.92-9.664"/></clipPath><clipPath id="P" clipPathUnits="userSpaceOnUse"><path d="M393.134 302.544c-2.782-5.622-5.206-12.258-7.05-19.677-.244-.978-.826-3.683-1.402-6.418 1.197-.111.966-.235 2.072.845 1.127 1.107 2.922 1.3 5.963 1.751 2.232.333 3.066-.065 4.558-.11.673 10.309-.382 19.748-3.396 25.081-.248-.48-.5-.971-.745-1.472"/></clipPath><clipPath id="R" clipPathUnits="userSpaceOnUse"><path d="M396.041 349.156c-2.7-.77-4.881-.23-6.272-.807-.271-.108-.46-.062-.753-.098-.295-.036-.749-.294-1.073-.486-.332-.188-1.507-.361-1.716-.415-.205-.05-.222-.17-.518-.258-.126-.051-.281-.043-.445-.037-.173.008-.355.016-.522-.043l-.035-.023c-.176-.072-1.125 0-1.491.048-.361.055-.587-.084-.931-.155-.347-.068-.471-.101-.742-.136-.069-.026-.119-.006-.174.015-.074.027-.159.055-.316-.029-.309-.177-.95-.106-1.225-.053-.209.032-.466.17-.726.135-.381.018-.653.327-1.451.419-.763.084-1.198-.331-1.663-.419-.131-.058-.513-.082-1.195-.345-.123-.123-.467-.137-.676-.137-.232.022-.35.076-.449.153-.135.194-.344.155-.5.347-.157.07-.244.227-.369.357-.506.215-.998.368-1.629.358a.824.824 0 0 0-.248.014c-.073.011-.145.023-.228.016a2.374 2.374 0 0 0-.469-.015c-.09.005-.149.012-.247-.011a1.2 1.2 0 0 0-.584-.016c-.127.023-.245.048-.433.007-.122-.057-.235-.031-.361-.004a.912.912 0 0 1-.348.019c-.731-.165-1.211-.233-1.943-.401-1.031-.274-2.465-.654-3.246-.613-1.015.092-1.432-.047-2.212-.372-.567-.102-.865-.22-1.42-.429-.175-.07-.416-.168-.489-.307-.62-.347-1.422-.302-1.938-.473-.527-.174-1.098-.108-1.612-.043-.456.057-.869.115-1.168.007-.663-.24-1.738-.806-2.4-1.055a10.705 10.705 0 0 1-.818-.358c-.11-.192-.38-.224-.535-.347-.178-.225-.194-.171-.516-.431-.154-.162-.586-.342-.746-.478-.451-.198-.675-.37-1.352-.715-.516-.25-.793-.258-1.436-.418-.415-.102-.688-.28-1.106-.433-.269-.105-.794-.308-1.072-.295a1.83 1.83 0 0 1-.942-.202c-.289-.124-.507-.367-.703-.506-.237-.186-.428-.268-.7-.551-.178-.207-.259-.354-.511-.514-.274-.17-.57-.267-.66-.305-.176-.084-.352-.145-.477-.212-.206-.075-.238-.104-.462-.197-.134-.03-.25-.052-.427-.163-.16-.158-.315-.242-.547-.38-.429-.223-.841-.502-1.172-.724-1.596-.754-2.466-1.01-4.132-2.156-.259-.179-.647-.339-.957-.643-.147-.122-.452-.237-.723-.361-.359-.169-.677-.245-1.24-.474-.646-.215-1.083-.418-1.741-.707-.29-.139-.812-.478-1.028-.586a9.535 9.535 0 0 1-.838-.539c-.227-.165-.741-.621-1.215-.91-.19-.1-.246-.124-.296-.136-1.263-.294-2.267-3.263-3.403-2.89-.665-.187-.866-.49-.786-1.28 0 0-.823-1.47-.447-1.962.377-.482.492-1.199-.092-1.497-.582-.293 0-.192-.319-1.878-.319-1.682.186-3.557.712-4.645.527-1.089 1.09-2.29 1.125-3.074.037-.792.521-1.501.8-1.473.28.024.401-.325.563-1.015.707-2.945 2.049-3.591 3.252-3.965 1.195-.371 1.044-.744 1.044-1.59 0-.845.227-1.223.679-1.107.449.112 2.061-1.464 3.14-2.912 1.084-1.459 1.506-.914 1.807-3.688.3-2.774 1.425-4.047 2.397-5.439.972-1.393 2.694-1.314 3.826-2.51.472-.499.852-.481 1.235-.463.532.025 1.072.05 1.88-1.298 1.385-2.327 3.748-1.575 4.646-2.85.902-1.273 3.635-2.478 4.653-2.696 1.011-.226 2.023-.716 2.924-2.032.385-.563 1.026-.8 1.674-.878 1.667 4.916 3.671 9.508 5.917 13.674a75.666 75.666 0 0 0 4.283 7.027c7.805 11.321 18.611 19.203 27.155 18.096.367-.048.73-.109 1.085-.195 8.235 11.312 18.282 17.403 27.747 15.615 14.271-2.692 24.41-25.705 24.377-51.381.424.124.459.305.789.582.546.385 1.715.483 1.808 1.331-.053.443.03.696.323.753a.473.473 0 0 0 .247.051c.082 0 .156 0 .263.085.132.106.494.415.659.542.231.173-.013.432-.013.785.055.315.084.539.14.857.169.237.6.465.661.492.408.296.456.663.301.848-.161.291.028.692.626.87.438.135.704.38.913.798-.124 1.239.851.627 1.552 1.18.545.479.504.929.631 1.196.237.396.719.283 1.345.636 1.03.758 2.015 1.431 2.577 3.261.381 1.393-.03 1.84-.041 3.218.084.646-.182.943.225 1.279.943.336.449.845.449 1.744-.028.744-.465.816-.324 1.438.364.911.281 1.15.464 2.22.182.756-.803 1.195-.455 2.083.637 1.306 1.354 1.064 1.567 1.936.434 1.031 1.205.843 1.025 2.327-.099.472-.142.739-.111 1.148.054.453.181.701.117 1.252-.336 2.205-.609 3.487-.777 5.219-.057.33-.018.854-.049 1.205-.12 1.098-.235 2.194-.356 3.289-.138 1.202-.437 1.352-.849 2.224-.145.235-.28.856-.395 1.125-.252.472-.548.276-.808.95-.166.276.023.525-.094.961-.122.38-.303.343-.795.999-.155.253-.291.399-.31.574-.247.329-.831.201-1.265.662-.255.257-.157.41-.466.678-.23.159-1.506.757-1.762 1.605-.074.259-.086.321-.377.586-.365.224-.736.077-1.047.326-.625.508-.933 1.738-1.681 2.207-1.168.503-1.969.915-3.418.84a2.342 2.342 0 0 0-.582.076c-.193.046-.354.092-.497.074-.742-.075-.65.401-.943.567-.166.032-.281.023-.398.014a1.323 1.323 0 0 0-.449.022c-.262.065-.559.02-.82.313-.219.23-.134.567-.222.773-.257.475-.941.256-1.392.174-.574-.229-1.147.184-1.571.209-.654.113-1.756 1.125-2.57 1.363-1.254.396-2.306.184-3.686.44-.307.082-.788.198-1.125.321-.24.041-.394.227-.674.368-.227.067-.042.206-.382.325-.379.193-.691.222-1.067.406-.239.111-.648.295-.953.406-.399.088-.81.174-1.218.264-.179.044-.351.107-.528.169-.252.074-.421.156-.703.235-.542.177-1.027.967-1.584 1.161-.615-.027-1.233-.047-1.847-.065-.142.026-.227-.007-.32-.039a.658.658 0 0 0-.358-.038c-.326.088-.572.106-.731.142-.718.115-.443.645-.948.877-.915.413-1.259.359-1.676.386-.534 0-.94.115-1.115-.288-.449-.246-.911.079-1.761.341 0 0-.165.007-.277.118-.112.112-.424.395-.773.31-.264-.072-.356-.145-.586-.522-.256-.35-.552-.577-.846-.857-.479-.109-.9-1.377-2.195-1.149-1.289.304-2.11 1.035-3.24 1.783-.328.211-.514.7-.869.706-.399.011-.243.203-.477.377a.481.481 0 0 1-.385.194c-.437-.005-.754.127-1.154.262-.293.107-.518.348-1.039.434-.555-.016-.733.02-1.295-.086-.229 0-.381 0-.555.018l-1.555-.302c-.128.015-.292-.038-.447-.091-.153-.052-.296-.104-.384-.09-.386-.086-.674.05-1.035.134-.403.054-.575.245-.818.314-.599.129-.519.017-1.036.155a5.602 5.602 0 0 0-1 .401c-.182.097-.447.133-.738.133-.711 0-1.576-.214-1.77-.268"/></clipPath><clipPath id="T" clipPathUnits="userSpaceOnUse"><path d="M418.106 321.374c9.05-3.94 14.017-23.344 12.664-44.29.99-.125.726-.911 1.505-1.599.797-.717 2.282-.454 3.387-.272 1.1.185 1.293.83 2.045 1.246.75.412 1.235.186 1.966.542.728.359 1.223.583 1.708 1.555.49.975.992 1.267 2.061 1.384 1.07.12 1.095.22 1.095.22.414.228.422.69.543 1.12.789.041 1.383-.003 1.937.474.132.023.237.047.329.07.033 25.676-10.106 48.689-24.377 51.381z"/></clipPath><clipPath id="V" clipPathUnits="userSpaceOnUse"><path d="M387.931 305.168c-3.371-7.116-6.12-15.303-7.941-24.236-.105-.53-.758-3.748-1.283-6.349.547.362 1.037.802 1.539 1.334 1.213 1.29 3.095.653 4.369.542l.067-.01c.576 2.735 1.158 5.44 1.402 6.418 1.844 7.419 4.268 14.055 7.05 19.677.245.501.497.992.745 1.472-1.151 2.046-2.586 3.496-4.328 4.15-.034.012-.072.02-.099.032a86.45 86.45 0 0 1-1.521-3.03"/></clipPath><clipPath id="X" clipPathUnits="userSpaceOnUse"><path d="M395.222 317.59c2.073-.475 3.959-1.537 5.642-3.072 5.648 6.499 11.8 9.233 17.242 6.856l4.863 11.831a17.77 17.77 0 0 1-3.305.308c-8.461.001-17.159-5.919-24.442-15.923"/></clipPath><clipPath id="Z" clipPathUnits="userSpaceOnUse"><path d="M366.982 299.689a75.666 75.666 0 0 1-4.283-7.027c-2.246-4.166-4.25-8.758-5.917-13.674.849-.098 1.718.083 2.036.169.561.15.674.447 1.322-.356.266-.337.638-.516 1.053-.619 1.656 4.659 3.581 8.903 5.66 12.629 1.719 3.074 3.547 5.795 5.428 8.095 5.382 6.594 12.356 11.009 17.171 9.292a77.242 77.242 0 0 0 3.165 5.547 67.346 67.346 0 0 0 2.605 3.845c-.355.086-.718.147-1.085.195-.537.069-1.083.103-1.636.103-8.254.001-18.204-7.589-25.519-18.199"/></clipPath><clipPath id="ab" clipPathUnits="userSpaceOnUse"><path d="M399.131 312.393c-1.832-2.407-3.6-5.218-5.252-8.377 3.014-5.333 4.069-14.772 3.396-25.081.538-.014 1.159.018 1.961.145 3.041.489 3.077 1.275 4.612 1.688 1.541.414 2.013.082 4.312-.189 1.488-.168 1.744.38 2.5.444.203 14.403-3.275 27.544-9.796 33.495a39.762 39.762 0 0 1-1.733-2.125"/></clipPath><clipPath id="ad" clipPathUnits="userSpaceOnUse"><path d="M0 841.89h595.28V0H0Z"/></clipPath><clipPath id="ae" clipPathUnits="userSpaceOnUse"><path d="M208.816 143.97c5.925-5.407 9.083-17.338 8.899-30.416.377.036.894-.063 1.816-.479 2.584-1.167 4.116-1.452 5.755-1.318 1.642.132 2.109-.441 3.982-1.442 1.125-.6 2.018-.553 2.832-.506.54.031 1.046.061 1.562-.095.757-.231 1.037-.075 1.342.081.217.109.448.22.871.193.037-.003.069-.009.099-.012 1.231 19.022-3.279 36.643-11.498 40.223a9.065 9.065 0 0 1-3.654.767c-3.943 0-8.107-2.509-12.006-6.996"/></clipPath><clipPath id="ag" clipPathUnits="userSpaceOnUse"><path d="M182.862 129.793c-1.706-2.087-3.369-4.56-4.926-7.352-1.892-3.383-3.638-7.237-5.141-11.469.54-.135 1.164-.128 1.724-.169.954-.067.954-1.36 1.429-2.112.331-.519.531-.513.85-.507.14.002.304.005.513-.036.681-.136 1.703-1.295 2.995-1.532 1.293-.238 3.713-.546 5.689-.036 1.159.298 1.991.65 2.704 1.123.476 2.363 1.069 5.287 1.166 5.768 1.652 8.113 4.149 15.547 7.209 22.011.446.939.91 1.852 1.38 2.751a6.065 6.065 0 0 1-2.041.336c-4.158.001-9.379-3.667-13.551-8.776"/></clipPath><clipPath id="ai" clipPathUnits="userSpaceOnUse"><path d="M201.798 133.097c-2.526-5.106-4.728-11.133-6.401-17.867-.22-.89-.752-3.347-1.273-5.829 1.084-.1.878-.215 1.881.768 1.023 1.001 2.654 1.179 5.415 1.588 2.028.3 2.784-.06 4.138-.096.612 9.358-.345 17.929-3.081 22.776a69.648 69.648 0 0 1-.679-1.34"/></clipPath><clipPath id="ak" clipPathUnits="userSpaceOnUse"><path d="M204.441 175.426c-2.453-.7-4.436-.21-5.701-.733-.241-.099-.416-.058-.68-.088-.27-.034-.679-.267-.976-.441-.298-.174-1.369-.329-1.555-.377-.189-.047-.205-.155-.472-.238-.114-.044-.255-.038-.402-.032-.158.007-.324.014-.475-.039l-.034-.02c-.159-.064-1.021 0-1.352.045-.326.046-.535-.078-.847-.14-.315-.064-.426-.095-.676-.125-.062-.024-.107-.006-.157.012-.066.024-.143.049-.283-.027-.283-.158-.864-.097-1.116-.05-.189.033-.423.158-.66.126-.347.016-.591.294-1.32.379-.689.078-1.084-.299-1.507-.379-.115-.056-.467-.074-1.084-.314-.112-.109-.424-.124-.614-.124-.215.024-.318.069-.405.139-.124.173-.315.142-.458.315-.14.064-.22.204-.335.323-.461.197-.906.337-1.478.326a.83.83 0 0 0-.222.012c-.067.01-.134.021-.212.014a2.224 2.224 0 0 0-.419-.013c-.085.006-.14.011-.231-.011a1.09 1.09 0 0 0-.525-.013c-.116.022-.224.043-.393.005-.114-.05-.217-.026-.33-.002a.786.786 0 0 1-.315.019c-.667-.152-1.105-.213-1.768-.366-.934-.246-2.239-.595-2.947-.559-.922.085-1.302-.039-2.011-.333-.512-.097-.784-.202-1.288-.393-.158-.061-.379-.151-.444-.277-.561-.315-1.291-.277-1.761-.43-.478-.159-.998-.099-1.466-.04-.414.053-.788.105-1.058.008-.6-.219-1.579-.733-2.182-.96a10.13 10.13 0 0 1-.739-.325c-.101-.171-.346-.203-.487-.314-.16-.203-.174-.158-.469-.391-.138-.146-.528-.313-.675-.434-.411-.182-.616-.34-1.228-.652-.47-.223-.719-.233-1.306-.378-.375-.094-.625-.252-1.003-.393-.245-.097-.725-.28-.976-.266-.32.004-.52-.029-.855-.186-.263-.109-.458-.335-.635-.461-.216-.166-.391-.242-.637-.498-.163-.188-.235-.322-.466-.463-.245-.157-.514-.245-.598-.282-.16-.073-.32-.131-.432-.192-.19-.064-.218-.091-.421-.177-.122-.028-.227-.047-.388-.151-.146-.139-.287-.219-.497-.341-.388-.205-.765-.459-1.063-.658-1.45-.687-2.241-.918-3.751-1.959-.236-.165-.59-.308-.869-.583-.135-.115-.413-.218-.658-.331-.329-.149-.615-.221-1.124-.43-.589-.196-.986-.379-1.581-.641-.266-.127-.739-.434-.936-.531a8.346 8.346 0 0 1-.762-.49c-.205-.151-.669-.562-1.105-.824-.172-.095-.221-.115-.267-.123-1.145-.27-2.058-2.969-3.091-2.627-.603-.167-.783-.445-.713-1.164 0 0-.748-1.336-.405-1.778.34-.443.444-1.09-.085-1.359-.527-.271 0-.178-.289-1.708-.291-1.528.169-3.232.646-4.22.478-.986.989-2.077 1.021-2.792.037-.716.475-1.363.728-1.338.257.023.363-.296.512-.918.64-2.676 1.861-3.261 2.95-3.601 1.088-.34.952-.679.952-1.447-.002-.765.205-1.106.617-1.004.404.102 1.869-1.328 2.85-2.647.982-1.322 1.368-.827 1.64-3.346.273-2.519 1.294-3.674 2.176-4.939.881-1.266 2.449-1.196 3.476-2.279.431-.454.775-.437 1.124-.421.483.024.972.046 1.704-1.178 1.257-2.113 3.404-1.43 4.221-2.59.818-1.156 3.301-2.247 4.223-2.447.92-.207 1.84-.65 2.656-1.843.351-.513.933-.729 1.52-.799 1.516 4.465 3.335 8.635 5.374 12.418a68.188 68.188 0 0 0 3.89 6.383c7.089 10.278 16.901 17.434 24.658 16.431.335-.043.662-.102.988-.179 7.475 10.275 16.601 15.804 25.196 14.181 12.957-2.444 22.166-23.344 22.138-46.657.382.112.416.274.715.527.495.35 1.556.436 1.641 1.207-.048.404.028.634.295.685.094.046.161.046.224.046a.32.32 0 0 1 .24.076c.118.098.449.376.599.491.207.16-.014.396-.014.716.051.286.075.489.126.779.155.215.548.424.601.447.37.268.415.6.271.771-.143.262.026.625.571.786.398.127.639.349.828.727-.111 1.122.773.568 1.41 1.072.495.433.459.843.572 1.087.217.358.652.254 1.225.577.933.686 1.826 1.299 2.336 2.96.346 1.264-.025 1.674-.037 2.922.076.588-.165.859.206 1.161.86.304.407.768.407 1.586-.024.675-.424.739-.292 1.303.329.829.254 1.046.42 2.016.165.688-.729 1.086-.414 1.893.579 1.186 1.231.968 1.423 1.759.395.933 1.096.764.929 2.113-.086.429-.126.67-.098 1.043.048.409.163.634.105 1.136-.301 2.004-.553 3.166-.706 4.736-.051.303-.014.778-.042 1.1-.11.994-.217 1.988-.322 2.986-.131 1.091-.401 1.226-.773 2.019-.133.21-.254.777-.358 1.02-.228.427-.5.25-.732.863-.154.252.019.476-.087.873-.113.343-.278.314-.722.906-.144.229-.265.364-.282.522-.225.299-.756.181-1.148.602-.235.233-.145.371-.426.615-.205.144-1.364.687-1.6 1.46-.065.233-.076.289-.339.531-.335.203-.671.068-.955.298-.565.456-.846 1.577-1.523 1.999-1.062.458-1.789.833-3.107.765a2.102 2.102 0 0 0-.525.069c-.175.041-.322.082-.452.065-.673-.066-.59.366-.856.519-.151.028-.256.019-.361.01a1.198 1.198 0 0 0-.407.02c-.24.056-.512.02-.749.285-.196.208-.12.513-.201.702-.232.431-.855.234-1.262.158-.523-.208-1.041.166-1.427.191-.594.098-1.595 1.021-2.336 1.236-1.136.361-2.093.17-3.344.397-.282.078-.717.182-1.023.293-.217.04-.357.209-.613.335-.204.064-.037.19-.344.295-.345.173-.631.202-.969.368-.22.101-.59.267-.865.368-.365.085-.737.16-1.106.244-.163.04-.325.096-.481.155-.231.063-.386.138-.639.208-.494.161-.933.881-1.439 1.055-.558-.024-1.12-.043-1.677-.059-.129.023-.207-.006-.29-.034a.584.584 0 0 0-.325-.035c-.298.081-.523.097-.663.128-.656.104-.403.587-.861.797-.833.372-1.144.327-1.525.352-.485 0-.852.101-1.011-.265-.409-.22-.83.074-1.599.311 0 0-.149.006-.251.108-.101.102-.384.356-.702.28-.242-.063-.321-.129-.535-.473-.23-.317-.499-.523-.768-.779-.432-.097-.816-1.248-1.99-1.041-1.176.274-1.916.939-2.944 1.617-.298.192-.467.639-.79.642-.36.012-.22.182-.431.341a.452.452 0 0 1-.348.179c-.401-.005-.687.113-1.049.237-.267.096-.47.314-.944.391-.502-.012-.667.02-1.178-.077-.206 0-.347 0-.502.017l-1.412-.272c-.117.012-.267-.036-.408-.084-.138-.047-.269-.095-.349-.083-.35-.077-.611.049-.94.125-.363.048-.521.222-.739.282-.547.12-.473.019-.942.143a4.961 4.961 0 0 0-.91.364c-.165.088-.404.12-.667.12-.646 0-1.435-.195-1.608-.243"/></clipPath><clipPath id="am" clipPathUnits="userSpaceOnUse"><path d="M224.476 150.199c8.219-3.58 12.729-21.201 11.498-40.223.9-.112.663-.828 1.366-1.456.73-.649 2.075-.407 3.079-.242 1.001.167 1.175.755 1.856 1.131.682.374 1.125.168 1.785.492.661.326 1.111.529 1.554 1.415.442.883.901 1.146 1.871 1.256.97.11.995.196.995.196.373.209.383.627.49 1.019.718.037 1.257-.003 1.763.432.118.017.213.041.298.064.028 23.313-9.181 44.213-22.138 46.657z"/></clipPath><clipPath id="ao" clipPathUnits="userSpaceOnUse"><path d="M197.074 135.482c-3.06-6.464-5.557-13.898-7.209-22.011-.097-.481-.69-3.405-1.166-5.768.498.332.94.728 1.395 1.212 1.106 1.174 2.812.595 3.969.494l.061-.008c.521 2.482 1.053 4.939 1.273 5.829 1.673 6.734 3.875 12.761 6.401 17.867.223.455.452.901.679 1.34-1.047 1.855-2.35 3.168-3.933 3.764-.029.012-.063.018-.09.032a80.169 80.169 0 0 1-1.38-2.751"/></clipPath><clipPath id="aq" clipPathUnits="userSpaceOnUse"><path d="M203.697 146.759c1.882-.429 3.591-1.396 5.119-2.789 5.13 5.903 10.717 8.383 15.66 6.229l4.417 10.741c-.994.187-1.996.279-3.001.28-7.684 0-15.584-5.375-22.195-14.461"/></clipPath><clipPath id="as" clipPathUnits="userSpaceOnUse"><path d="M178.051 130.507a68.188 68.188 0 0 1-3.89-6.383c-2.039-3.783-3.858-7.953-5.374-12.418.773-.087 1.561.076 1.849.151.511.138.613.409 1.201-.323.242-.304.578-.468.958-.562 1.503 4.232 3.249 8.086 5.141 11.469 1.557 2.792 3.22 5.265 4.926 7.352 4.889 5.987 11.219 9.995 15.592 8.44a70.637 70.637 0 0 0 2.874 5.034 62.757 62.757 0 0 0 2.369 3.492 9.592 9.592 0 0 1-.988.179c-.486.063-.981.093-1.483.093-7.494.001-16.53-6.89-23.175-16.524"/></clipPath><clipPath id="au" clipPathUnits="userSpaceOnUse"><path d="M207.246 142.039c-1.666-2.185-3.27-4.734-4.769-7.602 2.736-4.847 3.693-13.418 3.081-22.776a9.39 9.39 0 0 1 1.783.129c2.759.444 2.794 1.156 4.19 1.533 1.396.375 1.825.072 3.916-.171 1.348-.156 1.581.343 2.268.402.184 13.078-2.974 25.009-8.899 30.416a38.062 38.062 0 0 1-1.57-1.931"/></clipPath><linearGradient id="b" x1="0" x2="1" y1="0" y2="0" gradientTransform="matrix(77.84268 -91.59431 -91.59431 -77.84267 173.377 633.156)" gradientUnits="userSpaceOnUse" spreadMethod="pad"><stop offset="0" style="stop-opacity:1;stop-color:#0099d9"/><stop offset="0.747192" style="stop-opacity:1;stop-color:#004098"/><stop offset="1" style="stop-opacity:1;stop-color:#004387"/></linearGradient><linearGradient id="d" x1="0" x2="1" y1="0" y2="0" gradientTransform="matrix(77.0273 -90.63489 -90.63489 -77.02728 146.006 609.127)" gradientUnits="userSpaceOnUse" spreadMethod="pad"><stop offset="0" style="stop-opacity:1;stop-color:#0099d9"/><stop offset="0.747192" style="stop-opacity:1;stop-color:#004098"/><stop offset="1" style="stop-opacity:1;stop-color:#004387"/></linearGradient><linearGradient id="f" x1="0" x2="1" y1="0" y2="0" gradientTransform="scale(121.1253 -121.1253) rotate(49.64 6.125 -1.187)" gradientUnits="userSpaceOnUse" spreadMethod="pad"><stop offset="0" style="stop-opacity:1;stop-color:#0099d9"/><stop offset="0.747192" style="stop-opacity:1;stop-color:#004098"/><stop offset="1" style="stop-opacity:1;stop-color:#004387"/></linearGradient><linearGradient id="h" x1="0" x2="1" y1="0" y2="0" gradientTransform="matrix(78.31702 -92.15245 -92.15245 -78.317 167.497 629.125)" gradientUnits="userSpaceOnUse" spreadMethod="pad"><stop offset="0" style="stop-opacity:1;stop-color:#0099d9"/><stop offset="0.747192" style="stop-opacity:1;stop-color:#004098"/><stop offset="1" style="stop-opacity:1;stop-color:#004387"/></linearGradient><linearGradient id="j" x1="0" x2="1" y1="0" y2="0" gradientTransform="scale(-47.36604 47.36604) rotate(74.421 -10.283 2.257)" gradientUnits="userSpaceOnUse" spreadMethod="pad"><stop offset="0" style="stop-opacity:1;stop-color:#fff"/><stop offset="0.11574867" style="stop-opacity:1;stop-color:#fff"/><stop offset="0.359543" style="stop-opacity:1;stop-color:#fdd10d"/><stop offset="0.39062167" style="stop-opacity:1;stop-color:#fdd10d"/><stop offset="0.747192" style="stop-opacity:1;stop-color:#fabf00"/><stop offset="1" style="stop-opacity:1;stop-color:#fabf00"/></linearGradient><linearGradient id="l" x1="0" x2="1" y1="0" y2="0" gradientTransform="scale(-74.6801 74.6801) rotate(87.665 -5.08 2.221)" gradientUnits="userSpaceOnUse" spreadMethod="pad"><stop offset="0" style="stop-opacity:1;stop-color:#fff"/><stop offset="0.0730286" style="stop-opacity:1;stop-color:#fff"/><stop offset="0.16526697" style="stop-opacity:1;stop-color:#fff"/><stop offset="0.359543" style="stop-opacity:1;stop-color:#fdd10d"/><stop offset="0.39062167" style="stop-opacity:1;stop-color:#fdd10d"/><stop offset="0.747192" style="stop-opacity:1;stop-color:#fabf00"/><stop offset="1" style="stop-opacity:1;stop-color:#fabf00"/></linearGradient><linearGradient id="n" x1="0" x2="1" y1="0" y2="0" gradientTransform="matrix(-2.96841 72.78273 72.78273 2.96843 222.928 540.195)" gradientUnits="userSpaceOnUse" spreadMethod="pad"><stop offset="0" style="stop-opacity:1;stop-color:#fff"/><stop offset="0.11574867" style="stop-opacity:1;stop-color:#fff"/><stop offset="0.359543" style="stop-opacity:1;stop-color:#fdd10d"/><stop offset="0.39062167" style="stop-opacity:1;stop-color:#fdd10d"/><stop offset="0.747192" style="stop-opacity:1;stop-color:#fabf00"/><stop offset="1" style="stop-opacity:1;stop-color:#fabf00"/></linearGradient><linearGradient id="p" x1="0" x2="1" y1="0" y2="0" gradientTransform="scale(35.0877 -35.0877) rotate(-64.524 -9.776 -11.7)" gradientUnits="userSpaceOnUse" spreadMethod="pad"><stop offset="0" style="stop-opacity:1;stop-color:#fff"/><stop offset="0.07369965" style="stop-opacity:1;stop-color:#fff"/><stop offset="0.337082" style="stop-opacity:1;stop-color:#abce24"/><stop offset="0.56711675" style="stop-opacity:1;stop-color:#46b035"/><stop offset="0.730331" style="stop-opacity:1;stop-color:#46b035"/><stop offset="1" style="stop-opacity:1;stop-color:#46b035"/></linearGradient><linearGradient id="r" x1="0" x2="1" y1="0" y2="0" gradientTransform="scale(-75.98863 75.98863) rotate(83.962 -5.42 2.026)" gradientUnits="userSpaceOnUse" spreadMethod="pad"><stop offset="0" style="stop-opacity:1;stop-color:#fff"/><stop offset="0.0337067" style="stop-opacity:1;stop-color:#fff"/><stop offset="0.10003671" style="stop-opacity:1;stop-color:#fff"/><stop offset="0.337082" style="stop-opacity:1;stop-color:#abce24"/><stop offset="0.56711675" style="stop-opacity:1;stop-color:#46b035"/><stop offset="0.730331" style="stop-opacity:1;stop-color:#46b035"/><stop offset="1" style="stop-opacity:1;stop-color:#46b035"/></linearGradient><linearGradient id="u" x1="0" x2="1" y1="0" y2="0" gradientTransform="scale(111.9245 -111.9245) rotate(49.64 4.232 .02)" gradientUnits="userSpaceOnUse" spreadMethod="pad"><stop offset="0" style="stop-opacity:1;stop-color:#0099d9"/><stop offset="0.747192" style="stop-opacity:1;stop-color:#004098"/><stop offset="1" style="stop-opacity:1;stop-color:#004387"/></linearGradient><linearGradient id="w" x1="0" x2="1" y1="0" y2="0" gradientTransform="matrix(71.72424 -84.395 -84.395 -71.72423 143.188 337.726)" gradientUnits="userSpaceOnUse" spreadMethod="pad"><stop offset="0" style="stop-opacity:1;stop-color:#0099d9"/><stop offset="0.747192" style="stop-opacity:1;stop-color:#004098"/><stop offset="1" style="stop-opacity:1;stop-color:#004387"/></linearGradient><linearGradient id="y" x1="0" x2="1" y1="0" y2="0" gradientTransform="matrix(73.04431 -85.94827 -85.94827 -73.0443 148.662 344.146)" gradientUnits="userSpaceOnUse" spreadMethod="pad"><stop offset="0" style="stop-opacity:1;stop-color:#0099d9"/><stop offset="0.747192" style="stop-opacity:1;stop-color:#004098"/><stop offset="1" style="stop-opacity:1;stop-color:#004387"/></linearGradient><linearGradient id="A" x1="0" x2="1" y1="0" y2="0" gradientTransform="matrix(72.82123 -85.68578 -85.68578 -72.82121 163.201 356.342)" gradientUnits="userSpaceOnUse" spreadMethod="pad"><stop offset="0" style="stop-opacity:1;stop-color:#0099d9"/><stop offset="0.747192" style="stop-opacity:1;stop-color:#004098"/><stop offset="1" style="stop-opacity:1;stop-color:#004387"/></linearGradient><linearGradient id="C" x1="0" x2="1" y1="0" y2="0" gradientTransform="scale(-44.10302 44.10302) rotate(74.421 -6.94 -.451)" gradientUnits="userSpaceOnUse" spreadMethod="pad"><stop offset="0" style="stop-opacity:1;stop-color:#fff"/><stop offset="0.11574867" style="stop-opacity:1;stop-color:#fff"/><stop offset="0.359543" style="stop-opacity:1;stop-color:#fdd10d"/><stop offset="0.39062167" style="stop-opacity:1;stop-color:#fdd10d"/><stop offset="0.747192" style="stop-opacity:1;stop-color:#fabf00"/><stop offset="1" style="stop-opacity:1;stop-color:#fabf00"/></linearGradient><linearGradient id="E" x1="0" x2="1" y1="0" y2="0" gradientTransform="scale(-69.5306 69.5306) rotate(87.664 -3.413 .517)" gradientUnits="userSpaceOnUse" spreadMethod="pad"><stop offset="0" style="stop-opacity:1;stop-color:#fff"/><stop offset="0.0730286" style="stop-opacity:1;stop-color:#fff"/><stop offset="0.16526697" style="stop-opacity:1;stop-color:#fff"/><stop offset="0.359543" style="stop-opacity:1;stop-color:#fdd10d"/><stop offset="0.39062167" style="stop-opacity:1;stop-color:#fdd10d"/><stop offset="0.747192" style="stop-opacity:1;stop-color:#fabf00"/><stop offset="1" style="stop-opacity:1;stop-color:#fabf00"/></linearGradient><linearGradient id="G" x1="0" x2="1" y1="0" y2="0" gradientTransform="scale(-67.8265 67.8265) rotate(87.664 -3.684 .367)" gradientUnits="userSpaceOnUse" spreadMethod="pad"><stop offset="0" style="stop-opacity:1;stop-color:#fff"/><stop offset="0.11574867" style="stop-opacity:1;stop-color:#fff"/><stop offset="0.359543" style="stop-opacity:1;stop-color:#fdd10d"/><stop offset="0.39062167" style="stop-opacity:1;stop-color:#fdd10d"/><stop offset="0.747192" style="stop-opacity:1;stop-color:#fabf00"/><stop offset="1" style="stop-opacity:1;stop-color:#fabf00"/></linearGradient><linearGradient id="I" x1="0" x2="1" y1="0" y2="0" gradientTransform="scale(32.67098 -32.67098) rotate(-64.524 -4.102 -8.363)" gradientUnits="userSpaceOnUse" spreadMethod="pad"><stop offset="0" style="stop-opacity:1;stop-color:#fff"/><stop offset="0.07369965" style="stop-opacity:1;stop-color:#fff"/><stop offset="0.337082" style="stop-opacity:1;stop-color:#abce24"/><stop offset="0.56711675" style="stop-opacity:1;stop-color:#46b035"/><stop offset="0.730331" style="stop-opacity:1;stop-color:#46b035"/><stop offset="1" style="stop-opacity:1;stop-color:#46b035"/></linearGradient><linearGradient id="K" x1="0" x2="1" y1="0" y2="0" gradientTransform="scale(-70.7569 70.7569) rotate(83.962 -3.67 .347)" gradientUnits="userSpaceOnUse" spreadMethod="pad"><stop offset="0" style="stop-opacity:1;stop-color:#fff"/><stop offset="0.0337067" style="stop-opacity:1;stop-color:#fff"/><stop offset="0.10003671" style="stop-opacity:1;stop-color:#fff"/><stop offset="0.337082" style="stop-opacity:1;stop-color:#abce24"/><stop offset="0.56711675" style="stop-opacity:1;stop-color:#46b035"/><stop offset="0.730331" style="stop-opacity:1;stop-color:#46b035"/><stop offset="1" style="stop-opacity:1;stop-color:#46b035"/></linearGradient><linearGradient id="M" x1="0" x2="1" y1="0" y2="0" gradientTransform="matrix(75.89629 -89.30408 -89.30408 -75.89627 362.966 362.56)" gradientUnits="userSpaceOnUse" spreadMethod="pad"><stop offset="0" style="stop-opacity:1;stop-color:#0099d9"/><stop offset="0.747192" style="stop-opacity:1;stop-color:#004098"/><stop offset="1" style="stop-opacity:1;stop-color:#004387"/></linearGradient><linearGradient id="O" x1="0" x2="1" y1="0" y2="0" gradientTransform="matrix(75.10323 -88.37091 -88.37091 -75.10321 336.276 339.134)" gradientUnits="userSpaceOnUse" spreadMethod="pad"><stop offset="0" style="stop-opacity:1;stop-color:#0099d9"/><stop offset="0.747192" style="stop-opacity:1;stop-color:#004098"/><stop offset="1" style="stop-opacity:1;stop-color:#004387"/></linearGradient><linearGradient id="Q" x1="0" x2="1" y1="0" y2="0" gradientTransform="scale(118.12405 -118.12405) rotate(49.64 4.613 1.666)" gradientUnits="userSpaceOnUse" spreadMethod="pad"><stop offset="0" style="stop-opacity:1;stop-color:#0099d9"/><stop offset="0.747192" style="stop-opacity:1;stop-color:#004098"/><stop offset="1" style="stop-opacity:1;stop-color:#004387"/></linearGradient><linearGradient id="S" x1="0" x2="1" y1="0" y2="0" gradientTransform="matrix(76.2582 -89.7299 -89.7299 -76.25818 357.23 358.636)" gradientUnits="userSpaceOnUse" spreadMethod="pad"><stop offset="0" style="stop-opacity:1;stop-color:#0099d9"/><stop offset="0.747192" style="stop-opacity:1;stop-color:#004098"/><stop offset="1" style="stop-opacity:1;stop-color:#004387"/></linearGradient><linearGradient id="U" x1="0" x2="1" y1="0" y2="0" gradientTransform="scale(-46.19281 46.19281) rotate(74.421 -8.748 -3.265)" gradientUnits="userSpaceOnUse" spreadMethod="pad"><stop offset="0" style="stop-opacity:1;stop-color:#fff"/><stop offset="0.11574867" style="stop-opacity:1;stop-color:#fff"/><stop offset="0.359543" style="stop-opacity:1;stop-color:#fdd10d"/><stop offset="0.39062167" style="stop-opacity:1;stop-color:#fdd10d"/><stop offset="0.747192" style="stop-opacity:1;stop-color:#fabf00"/><stop offset="1" style="stop-opacity:1;stop-color:#fabf00"/></linearGradient><linearGradient id="W" x1="0" x2="1" y1="0" y2="0" gradientTransform="matrix(-2.967 72.7479 72.7479 2.967 387.082 269.912)" gradientUnits="userSpaceOnUse" spreadMethod="pad"><stop offset="0" style="stop-opacity:1;stop-color:#fff"/><stop offset="0.0730286" style="stop-opacity:1;stop-color:#fff"/><stop offset="0.16526697" style="stop-opacity:1;stop-color:#fff"/><stop offset="0.359543" style="stop-opacity:1;stop-color:#fdd10d"/><stop offset="0.39062167" style="stop-opacity:1;stop-color:#fdd10d"/><stop offset="0.747192" style="stop-opacity:1;stop-color:#fabf00"/><stop offset="1" style="stop-opacity:1;stop-color:#fabf00"/></linearGradient><linearGradient id="Y" x1="0" x2="1" y1="0" y2="0" gradientTransform="scale(-71.01886 71.01886) rotate(87.665 -4.89 -1.102)" gradientUnits="userSpaceOnUse" spreadMethod="pad"><stop offset="0" style="stop-opacity:1;stop-color:#fff"/><stop offset="0.11574867" style="stop-opacity:1;stop-color:#fff"/><stop offset="0.359543" style="stop-opacity:1;stop-color:#fdd10d"/><stop offset="0.39062167" style="stop-opacity:1;stop-color:#fdd10d"/><stop offset="0.747192" style="stop-opacity:1;stop-color:#fabf00"/><stop offset="1" style="stop-opacity:1;stop-color:#fabf00"/></linearGradient><linearGradient id="aa" x1="0" x2="1" y1="0" y2="0" gradientTransform="scale(34.2126 -34.2126) rotate(-64.524 -1.043 -12.465)" gradientUnits="userSpaceOnUse" spreadMethod="pad"><stop offset="0" style="stop-opacity:1;stop-color:#fff"/><stop offset="0.07369965" style="stop-opacity:1;stop-color:#fff"/><stop offset="0.337082" style="stop-opacity:1;stop-color:#abce24"/><stop offset="0.56711675" style="stop-opacity:1;stop-color:#46b035"/><stop offset="0.730331" style="stop-opacity:1;stop-color:#46b035"/><stop offset="1" style="stop-opacity:1;stop-color:#46b035"/></linearGradient><linearGradient id="ac" x1="0" x2="1" y1="0" y2="0" gradientTransform="scale(-74.0956 74.0956) rotate(83.962 -4.818 -1.148)" gradientUnits="userSpaceOnUse" spreadMethod="pad"><stop offset="0" style="stop-opacity:1;stop-color:#fff"/><stop offset="0.0337067" style="stop-opacity:1;stop-color:#fff"/><stop offset="0.10003671" style="stop-opacity:1;stop-color:#fff"/><stop offset="0.337082" style="stop-opacity:1;stop-color:#abce24"/><stop offset="0.56711675" style="stop-opacity:1;stop-color:#46b035"/><stop offset="0.730331" style="stop-opacity:1;stop-color:#46b035"/><stop offset="1" style="stop-opacity:1;stop-color:#46b035"/></linearGradient><linearGradient id="af" x1="0" x2="1" y1="0" y2="0" gradientTransform="matrix(68.92804 -81.10481 -81.10481 -68.92802 174.399 187.604)" gradientUnits="userSpaceOnUse" spreadMethod="pad"><stop offset="0" style="stop-opacity:1;stop-color:#0099d9"/><stop offset="0.747192" style="stop-opacity:1;stop-color:#004098"/><stop offset="1" style="stop-opacity:1;stop-color:#004387"/></linearGradient><linearGradient id="ah" x1="0" x2="1" y1="0" y2="0" gradientTransform="matrix(68.20497 -80.25401 -80.25401 -68.20496 150.165 166.326)" gradientUnits="userSpaceOnUse" spreadMethod="pad"><stop offset="0" style="stop-opacity:1;stop-color:#0099d9"/><stop offset="0.747192" style="stop-opacity:1;stop-color:#004098"/><stop offset="1" style="stop-opacity:1;stop-color:#004387"/></linearGradient><linearGradient id="aj" x1="0" x2="1" y1="0" y2="0" gradientTransform="scale(107.25409 -107.25409) rotate(49.64 2.462 .762)" gradientUnits="userSpaceOnUse" spreadMethod="pad"><stop offset="0" style="stop-opacity:1;stop-color:#0099d9"/><stop offset="0.747192" style="stop-opacity:1;stop-color:#004098"/><stop offset="1" style="stop-opacity:1;stop-color:#004387"/></linearGradient><linearGradient id="al" x1="0" x2="1" y1="0" y2="0" gradientTransform="matrix(69.34755 -81.59843 -81.59843 -69.34753 169.193 184.034)" gradientUnits="userSpaceOnUse" spreadMethod="pad"><stop offset="0" style="stop-opacity:1;stop-color:#0099d9"/><stop offset="0.747192" style="stop-opacity:1;stop-color:#004098"/><stop offset="1" style="stop-opacity:1;stop-color:#004387"/></linearGradient><linearGradient id="an" x1="0" x2="1" y1="0" y2="0" gradientTransform="scale(-41.9441 41.9441) rotate(74.421 -4.675 -2.517)" gradientUnits="userSpaceOnUse" spreadMethod="pad"><stop offset="0" style="stop-opacity:1;stop-color:#fff"/><stop offset="0.11574867" style="stop-opacity:1;stop-color:#fff"/><stop offset="0.359543" style="stop-opacity:1;stop-color:#fdd10d"/><stop offset="0.39062167" style="stop-opacity:1;stop-color:#fdd10d"/><stop offset="0.747192" style="stop-opacity:1;stop-color:#fabf00"/><stop offset="1" style="stop-opacity:1;stop-color:#fabf00"/></linearGradient><linearGradient id="ap" x1="0" x2="1" y1="0" y2="0" gradientTransform="scale(-66.1238 66.1238) rotate(87.665 -2.3 -.764)" gradientUnits="userSpaceOnUse" spreadMethod="pad"><stop offset="0" style="stop-opacity:1;stop-color:#fff"/><stop offset="0.0730286" style="stop-opacity:1;stop-color:#fff"/><stop offset="0.16526697" style="stop-opacity:1;stop-color:#fff"/><stop offset="0.359543" style="stop-opacity:1;stop-color:#fdd10d"/><stop offset="0.39062167" style="stop-opacity:1;stop-color:#fdd10d"/><stop offset="0.747192" style="stop-opacity:1;stop-color:#fabf00"/><stop offset="1" style="stop-opacity:1;stop-color:#fabf00"/></linearGradient><linearGradient id="ar" x1="0" x2="1" y1="0" y2="0" gradientTransform="scale(-64.47963 64.47963) rotate(87.665 -2.543 -.946)" gradientUnits="userSpaceOnUse" spreadMethod="pad"><stop offset="0" style="stop-opacity:1;stop-color:#fff"/><stop offset="0.11574867" style="stop-opacity:1;stop-color:#fff"/><stop offset="0.359543" style="stop-opacity:1;stop-color:#fdd10d"/><stop offset="0.39062167" style="stop-opacity:1;stop-color:#fdd10d"/><stop offset="0.747192" style="stop-opacity:1;stop-color:#fabf00"/><stop offset="1" style="stop-opacity:1;stop-color:#fabf00"/></linearGradient><linearGradient id="at" x1="0" x2="1" y1="0" y2="0" gradientTransform="scale(31.06864 -31.06864) rotate(-64.524 .07 -6.228)" gradientUnits="userSpaceOnUse" spreadMethod="pad"><stop offset="0" style="stop-opacity:1;stop-color:#fff"/><stop offset="0.07369965" style="stop-opacity:1;stop-color:#fff"/><stop offset="0.337082" style="stop-opacity:1;stop-color:#abce24"/><stop offset="0.56711675" style="stop-opacity:1;stop-color:#46b035"/><stop offset="0.730331" style="stop-opacity:1;stop-color:#46b035"/><stop offset="1" style="stop-opacity:1;stop-color:#46b035"/></linearGradient><linearGradient id="av" x1="0" x2="1" y1="0" y2="0" gradientTransform="scale(-67.28021 67.28021) rotate(83.962 -2.495 -.919)" gradientUnits="userSpaceOnUse" spreadMethod="pad"><stop offset="0" style="stop-opacity:1;stop-color:#fff"/><stop offset="0.0337067" style="stop-opacity:1;stop-color:#fff"/><stop offset="0.10003671" style="stop-opacity:1;stop-color:#fff"/><stop offset="0.337082" style="stop-opacity:1;stop-color:#abce24"/><stop offset="0.56711675" style="stop-opacity:1;stop-color:#46b035"/><stop offset="0.730331" style="stop-opacity:1;stop-color:#46b035"/><stop offset="1" style="stop-opacity:1;stop-color:#46b035"/></linearGradient></defs><g clip-path="url(#a)" transform="matrix(.35278 0 0 -.35278 -156.471 128.939)"><path d="M212.245 583.879c6.691-6.105 10.258-19.58 10.051-34.35.425.042 1.009-.072 2.049-.54 2.92-1.319 4.649-1.64 6.501-1.49 1.854.149 2.381-.499 4.496-1.628 1.271-.677 2.279-.625 3.198-.572.611.035 1.181.069 1.765-.107.855-.26 1.17-.085 1.515.09.246.125.505.249.984.219.041-.003.078-.009.111-.013 1.391 21.483-3.702 41.382-12.984 45.427-1.339.583-2.72.865-4.126.865-4.454.001-9.155-2.833-13.56-7.901" style="fill:url(#b);stroke:none"/></g><g clip-path="url(#c)" transform="matrix(.35278 0 0 -.35278 -156.471 128.939)"><path d="M182.934 567.868c-1.928-2.358-3.804-5.148-5.564-8.302-2.136-3.821-4.108-8.175-5.806-12.954.611-.152 1.315-.144 1.947-.19 1.078-.075 1.078-1.537 1.615-2.384.374-.587.6-.58.96-.573.158.003.343.005.578-.041.77-.155 1.922-1.463 3.384-1.729 1.46-.27 4.193-.619 6.424-.043 1.309.338 2.248.735 3.053 1.27.538 2.669 1.207 5.97 1.317 6.513 1.866 9.163 4.686 17.559 8.143 24.858a87.302 87.302 0 0 0 1.557 3.106 6.836 6.836 0 0 1-2.305.381c-4.696 0-10.592-4.142-15.303-9.912" style="fill:url(#d);stroke:none"/></g><g clip-path="url(#e)" transform="matrix(.35278 0 0 -.35278 -156.471 128.939)"><path d="M204.319 571.601c-2.853-5.767-5.34-12.574-7.229-20.18-.249-1.003-.85-3.78-1.438-6.581 1.226-.114.992-.244 2.124.867 1.156 1.13 2.998 1.33 6.115 1.792 2.291.34 3.145-.068 4.675-.109.691 10.569-.391 20.25-3.48 25.722a75.927 75.927 0 0 1-.767-1.511" style="fill:url(#f);stroke:none"/></g><g clip-path="url(#g)" transform="matrix(.35278 0 0 -.35278 -156.471 128.939)"><path d="M207.304 619.403c-2.771-.789-5.009-.235-6.438-.829-.273-.11-.47-.063-.769-.098-.304-.037-.767-.301-1.102-.496-.336-.197-1.547-.374-1.755-.428-.215-.053-.232-.174-.534-.267-.129-.051-.288-.043-.456-.036-.177.008-.364.016-.535-.044l-.038-.024c-.179-.072-1.153 0-1.527.052-.369.052-.603-.088-.956-.16-.356-.071-.482-.106-.764-.14-.07-.027-.121-.006-.177.014-.075.027-.162.055-.32-.03-.318-.18-.975-.109-1.261-.056-.212.036-.477.177-.744.141-.393.018-.668.333-1.49.429-.779.086-1.225-.338-1.703-.429-.13-.064-.527-.084-1.223-.355-.128-.123-.479-.14-.695-.14-.241.025-.358.078-.457.158-.14.196-.356.159-.518.355-.156.073-.247.232-.378.365-.521.221-1.022.38-1.668.369a.915.915 0 0 0-.256.013c-.075.012-.149.024-.235.016a2.491 2.491 0 0 0-.475-.014c-.096.005-.157.012-.258-.013a1.216 1.216 0 0 0-.595-.015c-.131.024-.252.049-.444.006-.128-.057-.243-.029-.372-.002-.105.021-.219.044-.355.02-.753-.17-1.248-.242-1.996-.413-1.056-.279-2.529-.671-3.33-.63-1.041.096-1.469-.047-2.27-.378-.578-.109-.886-.227-1.454-.442-.179-.069-.429-.172-.502-.315-.634-.356-1.457-.312-1.987-.486-.542-.178-1.128-.111-1.657-.044-.467.06-.89.119-1.195.009-.678-.248-1.783-.826-2.464-1.083a11.924 11.924 0 0 1-.836-.368c-.113-.194-.39-.228-.549-.356-.181-.229-.197-.177-.531-.442-.155-.162-.596-.351-.762-.487-.463-.207-.695-.384-1.385-.736-.533-.254-.814-.265-1.475-.428-.425-.106-.707-.285-1.134-.443-.276-.11-.817-.317-1.102-.302a1.888 1.888 0 0 1-.965-.209c-.297-.124-.518-.378-.718-.521-.245-.188-.442-.274-.719-.563-.184-.211-.265-.363-.526-.525-.278-.175-.581-.274-.676-.317-.181-.081-.36-.146-.487-.215-.215-.075-.247-.103-.475-.201-.138-.031-.258-.052-.44-.17-.163-.158-.324-.248-.56-.386-.439-.231-.864-.518-1.201-.743-1.637-.775-2.531-1.037-4.236-2.213-.267-.185-.667-.346-.981-.657-.152-.13-.467-.246-.744-.374-.371-.17-.694-.25-1.27-.485-.665-.222-1.113-.429-1.784-.724-.302-.143-.834-.489-1.057-.602a9.365 9.365 0 0 1-.861-.552c-.232-.17-.755-.636-1.248-.93-.194-.107-.25-.131-.301-.14-1.293-.304-2.325-3.352-3.49-2.964-.681-.19-.886-.505-.808-1.315 0 0-.844-1.51-.456-2.01.385-.5.501-1.23-.095-1.536-.596-.304 0-.2-.328-1.927-.328-1.726.191-3.65.731-4.766.539-1.115 1.116-2.347 1.153-3.152.04-.81.536-1.54.822-1.513.288.025.41-.333.577-1.036.723-3.021 2.103-3.682 3.332-4.067 1.23-.383 1.075-.766 1.075-1.633-.002-.865.231-1.251.696-1.134.458.114 2.113-1.501 3.22-2.989 1.109-1.493 1.546-.933 1.852-3.78.308-2.845 1.462-4.151 2.458-5.58.993-1.428 2.765-1.348 3.925-2.57.486-.513.875-.495 1.27-.476.544.025 1.098.05 1.924-1.332 1.42-2.386 3.844-1.614 4.767-2.925.924-1.304 3.727-2.537 4.769-2.763 1.038-.234 2.076-.734 3-2.083.396-.579 1.054-.822 1.715-.9 1.714 5.042 3.769 9.751 6.071 14.024a77.045 77.045 0 0 0 4.393 7.208c8.005 11.609 19.086 19.689 27.847 18.555.379-.048.748-.114 1.116-.2 8.442 11.603 18.748 17.846 28.456 16.015 14.632-2.759 25.031-26.363 25-52.693.432.127.47.309.808.595.558.394 1.757.493 1.853 1.364-.055.456.031.716.333.774a.486.486 0 0 0 .254.051c.084 0 .16-.001.27.085.133.112.507.427.677.555.233.181-.016.447-.016.809.056.322.085.553.143.88.174.243.617.478.677.505.418.301.468.678.306.869-.161.298.03.706.646.889.449.144.722.393.935.823-.125 1.267.873.641 1.592 1.209.559.489.518.953.647 1.227.245.404.734.288 1.382.651 1.055.776 2.063 1.469 2.639 3.344.391 1.428-.028 1.889-.04 3.3.084.665-.188.968.231 1.313.971.343.46.867.46 1.789-.029.763-.479.835-.33 1.471.371.937.286 1.18.475 2.277.185.779-.824 1.227-.468 2.138.653 1.34 1.39 1.093 1.606 1.987.446 1.055 1.239.865 1.05 2.387-.097.483-.143.757-.112 1.176.056.465.186.718.119 1.284-.339 2.264-.624 3.575-.797 5.35-.056.341-.016.878-.047 1.241a710.43 710.43 0 0 0-.364 3.373c-.147 1.231-.452 1.384-.873 2.278-.151.239-.288.879-.405 1.153-.257.482-.564.282-.825.977-.176.28.02.536-.099.984-.127.388-.314.354-.816 1.024-.162.258-.299.411-.318.588-.253.339-.853.204-1.297.68-.265.263-.163.42-.481.694-.232.163-1.54.778-1.807 1.649-.073.265-.085.327-.382.601-.38.228-.757.076-1.079.335-.638.516-.955 1.782-1.72 2.259-1.199.518-2.02.941-3.509.863a2.41 2.41 0 0 0-.592.079c-.198.047-.363.093-.51.073-.761-.074-.667.414-.969.586-.17.033-.287.022-.405.012a1.304 1.304 0 0 0-.462.023c-.271.064-.578.02-.844.319-.223.238-.137.582-.227.795-.262.486-.967.263-1.426.178-.591-.235-1.177.188-1.612.214-.669.114-1.8 1.155-2.638 1.4-1.284.405-2.365.189-3.776.447-.319.086-.81.204-1.156.33-.244.046-.404.234-.691.377-.231.073-.042.215-.39.333-.389.199-.711.231-1.095.416-.247.116-.666.303-.976.417-.412.094-.832.18-1.248.275a4.722 4.722 0 0 0-.544.174c-.26.072-.436.157-.723.238-.557.18-1.052.992-1.624 1.189a171.99 171.99 0 0 0-1.894-.066c-.146.026-.234-.006-.327-.039a.67.67 0 0 0-.367-.039c-.336.09-.59.109-.749.144-.741.117-.454.664-.972.899-.942.423-1.292.37-1.723.399-.547 0-.961.114-1.141-.299-.462-.248-.937.083-1.807.352 0 0-.169.006-.283.12-.114.116-.433.403-.794.318-.272-.072-.362-.146-.603-.536-.26-.357-.563-.589-.867-.878-.488-.11-.922-1.411-2.248-1.176-1.327.308-2.164 1.061-3.324 1.826-.337.217-.528.72-.893.726-.406.012-.248.204-.486.384a.503.503 0 0 1-.393.202c-.453-.006-.775.128-1.185.269-.302.108-.531.355-1.065.441-.566-.015-.755.022-1.331-.086-.233 0-.392 0-.567.017l-1.595-.306c-.133.014-.301-.041-.459-.095-.158-.054-.305-.108-.395-.094-.396-.087-.691.054-1.062.14-.411.054-.588.252-.836.32-.618.134-.533.019-1.063.161-.322.087-.82.292-1.028.411-.186.099-.456.136-.753.136-.73 0-1.621-.221-1.816-.276" style="fill:url(#h);stroke:none"/></g><g clip-path="url(#i)" transform="matrix(.35278 0 0 -.35278 -156.471 128.939)"><path d="M229.931 590.915c9.282-4.045 14.375-23.944 12.984-45.427 1.017-.127.749-.934 1.544-1.643.823-.734 2.343-.461 3.477-.275 1.13.189 1.327.853 2.096 1.277.77.424 1.27.191 2.016.556.747.368 1.254.596 1.754 1.597.501.997 1.019 1.296 2.114 1.419 1.095.124 1.123.224 1.123.224.421.234.433.706.554 1.149.811.042 1.419-.003 1.99.487.134.021.242.048.337.073.031 26.33-10.368 49.934-25 52.693z" style="fill:url(#j);stroke:none"/></g><g clip-path="url(#k)" transform="matrix(.35278 0 0 -.35278 -156.471 128.939)"><path d="M198.985 574.293c-3.457-7.299-6.277-15.695-8.143-24.858-.11-.543-.779-3.844-1.317-6.513.563.375 1.062.821 1.577 1.368 1.248 1.325 3.175.672 4.481.557.028-.001.046-.005.069-.007.588 2.801 1.189 5.578 1.438 6.581 1.889 7.606 4.376 14.413 7.229 20.18.253.513.509 1.016.767 1.511-1.183 2.095-2.654 3.58-4.441 4.253-.033.012-.071.02-.103.034a87.302 87.302 0 0 1-1.557-3.106" style="fill:url(#l);stroke:none"/></g><g clip-path="url(#m)" transform="matrix(.35278 0 0 -.35278 -156.471 128.939)"><path d="M206.464 587.03c2.125-.487 4.055-1.577 5.781-3.151 5.794 6.667 12.103 9.468 17.686 7.036l4.989 12.13a18.219 18.219 0 0 1-3.388.315c-8.679.001-17.602-6.068-25.068-16.33" style="fill:url(#n);stroke:none"/></g><g clip-path="url(#o)" transform="matrix(.35278 0 0 -.35278 -156.471 128.939)"><path d="M177.501 568.675a77.045 77.045 0 0 1-4.393-7.208c-2.302-4.273-4.357-8.982-6.071-14.024.874-.1 1.763.084 2.09.172.577.154.692.46 1.355-.367.274-.343.654-.529 1.082-.636 1.698 4.779 3.67 9.133 5.806 12.954 1.76 3.154 3.636 5.944 5.564 8.302 5.521 6.762 12.67 11.288 17.608 9.531a79.876 79.876 0 0 0 3.247 5.688 70.287 70.287 0 0 0 2.675 3.943c-.368.086-.737.152-1.116.2-.549.071-1.108.106-1.675.106-8.465 0-18.669-7.78-26.172-18.661" style="fill:url(#p);stroke:none"/></g><g clip-path="url(#q)" transform="matrix(.35278 0 0 -.35278 -156.471 128.939)"><path d="M210.471 581.698c-1.881-2.468-3.692-5.347-5.385-8.586 3.089-5.472 4.171-15.153 3.48-25.722.553-.015 1.191.016 2.013.147 3.116.501 3.156 1.306 4.732 1.731 1.576.424 2.061.081 4.422-.193 1.522-.177 1.786.386 2.563.454.207 14.77-3.36 28.245-10.051 34.35a42.953 42.953 0 0 1-1.774-2.181" style="fill:url(#r);stroke:none"/></g><g clip-path="url(#s)" transform="matrix(.35278 0 0 -.35278 -156.471 128.939)"><path d="M0 0c.032-.014.07-.022.104-.034 1.786-.674 3.257-2.158 4.44-4.253C6.237-1.049 8.049 1.831 9.93 4.298a42.021 42.021 0 0 0 1.774 2.182C9.978 8.054 8.047 9.145 5.922 9.631a70.31 70.31 0 0 1-2.674-3.944A80.468 80.468 0 0 1 0 0" style="fill:#f9f27f;fill-opacity:1;fill-rule:nonzero;stroke:none" transform="translate(200.542 577.4)"/><path d="M0 0s-.799-2.913-.961-3.519h-7.328l-1.672-6.258h7.328c-.213-.77-1.189-4.071-1.322-4.563h-7.326l-1.625-6.172h7.326l-.91-3.342h9.486L9.488 0Z" style="fill:#004098;fill-opacity:1;fill-rule:nonzero;stroke:none" transform="translate(338.71 597.582)"/><path d="m0 0-5.535-20.508c-.475-1.735-.289-3.307.5-4.31.937-1.18 2.189-1.782 3.726-1.782h9.137c-.295-1.076-2.389-8.768-2.568-9.419h-17.682l-1.625-6.007h44.918l1.627 6.007H14.816c.293 1.079 2.389 8.769 2.569 9.419l14.898.005 1.655 6.013H4.137C4.447-19.431 7.9-6.584 8.09-5.896h29.785L39.455 0Z" style="fill:#004098;fill-opacity:1;fill-rule:nonzero;stroke:none" transform="translate(361.717 596.627)"/><path d="M0 0c-2.578 1.427-6.008 2.15-10.201 2.15-5.063 0-9.5-.984-13.19-2.925a19.759 19.759 0 0 1-3.484-2.333c-1.367-1.419-2.924-3.285-2.959-6.572-.055-4.904 6.258-6.452 8.395-6.852.425-.05.431.147.246.425l.017.007c-.566.819-1.484 2.226-1.303 3.904.295 2.76 2.737 5.06 5.145 6.535 2.045 1.257 4.543 2.096 6.688 2.089 1.681-.003 3.435-.34 4.439-1.384 1.076-1.12 2.568-4.151-1.617-8.809-6.621-7.373-20.467-5.919-21.881-5.414-.645.229-1.068.34-.947.082.689-.82 1.572-1.537 2.666-2.139 2.574-1.426 6.006-2.147 10.205-2.147 5.166 0 9.699 1.034 13.472 3.075 4.172 2.251 6.922 5.473 8.17 9.568.317 1.033.498 2.035.553 2.969C4.596-4.358 3.111-1.745 0 0" style="fill:#004098;fill-opacity:1;fill-rule:nonzero;stroke:none" transform="translate(336.791 571.035)"/><path d="M0 0c-.934 1.183-2.188 1.783-3.721 1.783h-33.847l-1.557-5.896h30.037c-.31-1.153-4.019-14.752-4.207-15.435h-33.58l-1.67-6.006h19.106c-.329-1.203-4.547-16.736-4.547-16.736l9.615.007s4.348 16.002 4.547 16.729l17.838.001 1.689 6.005h-3.314L.506-4.31C.975-2.574.793-1.001 0 0" style="fill:#004098;fill-opacity:1;fill-rule:nonzero;stroke:none" transform="translate(452.606 594.844)"/><path d="M0 0c-2.654-5.57-6.646-6.318-8.963-5.61-2.187.666-3.689 5.024-1.098 9.405 2.165 3.655 4.403 5.277 7.434 5.15C.928 8.796 1.93 4.049 0 0m3.492-8.118c3.287 2.259 5.36 5.478 6.164 9.567.203 1.025.299 2.019.291 2.952-.06 2.91-1.468 5.722-4.199 7.542-2.189 1.459-4.859 2.373-8.309 2.373a18.881 18.881 0 0 1-10.56-3.201c-3.399-2.258-5.711-5.628-6.488-9.43-.219-1.073-.328-2.091-.321-3.025.026-3.391 1.374-5.985 4.006-7.702 2.194-1.447 5.061-2.175 8.516-2.175 4.242 0 7.912 1.04 10.9 3.099" style="fill:#004098;fill-opacity:1;fill-rule:nonzero;stroke:none" transform="translate(316.139 583.51)"/><path d="M0 0s-.647-2.357-.773-2.854h-5.935l-1.355-5.06h5.93c-.169-.628-.956-3.301-1.07-3.696h-5.922l-1.325-4.999h5.934c-.19-.692-.736-2.71-.736-2.71h7.673L7.682 0Z" style="fill:#004098;fill-opacity:1;fill-rule:nonzero;stroke:none" transform="translate(168.753 259.367)"/><path d="m0 0-4.478-16.611c-.381-1.399-.234-2.676.409-3.482.754-.956 1.763-1.445 3.016-1.445h7.395c-.234-.872-1.937-7.101-2.078-7.625h-14.313l-1.319-4.867h36.365l1.313 4.867H12c.235.874 1.934 7.097 2.076 7.625h12.068l1.338 4.87H3.349c.26.931 3.05 11.334 3.199 11.883l24.114.016L31.951 0Z" style="fill:#004098;fill-opacity:1;fill-rule:nonzero;stroke:none" transform="translate(187.38 258.594)"/><path d="M0 0c-2.081 1.164-4.863 1.74-8.258 1.74-4.105 0-7.689-.79-10.676-2.361a16.381 16.381 0 0 1-2.823-1.891c-1.111-1.147-2.368-2.667-2.399-5.327-.045-3.971 5.077-5.219 6.798-5.544.344-.04.347.118.195.345h.022c-.461.669-1.2 1.807-1.055 3.169.238 2.229 2.211 4.096 4.16 5.286 1.66 1.013 3.682 1.707 5.412 1.698 1.37-.009 2.787-.281 3.603-1.125.87-.902 2.074-3.362-1.311-7.141-5.363-5.964-16.578-4.784-17.72-4.376-.517.189-.86.273-.767.069.562-.664 1.276-1.246 2.162-1.733 2.089-1.156 4.863-1.741 8.261-1.741 4.187 0 7.856.841 10.912 2.491 3.381 1.822 5.604 4.429 6.611 7.748.258.839.405 1.638.447 2.403C3.729-3.521 2.528-1.411 0 0" style="fill:#004098;fill-opacity:1;fill-rule:nonzero;stroke:none" transform="translate(167.2 237.868)"/><path d="M0 0c-.748.958-1.759 1.445-3.008 1.445h-27.401l-1.262-4.785h24.318c-.252-.93-3.253-11.933-3.405-12.489h-27.189l-1.347-4.862h15.461l-3.684-13.549 7.79.004s3.519 12.953 3.685 13.545h14.438l1.371 4.862h-2.684L.417-3.489C.8-2.083.648-.81 0 0" style="fill:#004098;fill-opacity:1;fill-rule:nonzero;stroke:none" transform="translate(260.966 257.148)"/><path d="M0 0c-2.148-4.507-5.377-5.111-7.258-4.539-1.763.541-2.985 4.067-.885 7.617 1.756 2.959 3.568 4.27 6.01 4.165C.75 7.127 1.563 3.284 0 0m2.829-6.573c2.663 1.836 4.345 4.442 4.993 7.752.161.832.241 1.631.228 2.382-.042 2.361-1.186 4.641-3.399 6.108-1.766 1.185-3.93 1.922-6.723 1.922a15.26 15.26 0 0 1-8.545-2.587c-2.757-1.836-4.627-4.56-5.253-7.64a12.39 12.39 0 0 1-.267-2.45c.019-2.742 1.116-4.847 3.246-6.229 1.776-1.173 4.096-1.765 6.888-1.765 3.439 0 6.405.845 8.832 2.507" style="fill:#004098;fill-opacity:1;fill-rule:nonzero;stroke:none" transform="translate(150.48 247.968)"/></g><g clip-path="url(#t)" transform="matrix(.35278 0 0 -.35278 -156.471 128.939)"><path d="M204.869 314.212c6.228-5.683 9.55-18.23 9.354-31.983.398.041.941-.065 1.909-.502 2.719-1.229 4.33-1.53 6.054-1.389 1.727.141 2.219-.465 4.187-1.514 1.184-.633 2.123-.583 2.979-.533.567.032 1.099.066 1.642-.099.796-.244 1.09-.081 1.411.082.229.116.471.232.917.202a.664.664 0 0 0 .105-.011c1.291 20.004-3.449 38.535-12.09 42.299a9.554 9.554 0 0 1-3.844.806c-4.148 0-8.525-2.638-12.624-7.358" style="fill:url(#u);stroke:none"/></g><g clip-path="url(#v)" transform="matrix(.35278 0 0 -.35278 -156.471 128.939)"><path d="M177.574 299.307c-1.795-2.197-3.541-4.795-5.182-7.73-1.987-3.559-3.825-7.616-5.406-12.063.571-.144 1.227-.134 1.813-.177 1.005-.072 1.005-1.431 1.507-2.222.346-.547.556-.54.892-.533.148.002.32.005.537-.038.717-.146 1.792-1.36 3.152-1.61 1.361-.252 3.904-.574 5.979-.04 1.221.315 2.094.684 2.846 1.183l1.225 6.062c1.736 8.531 4.364 16.353 7.582 23.147.468.989.956 1.949 1.451 2.894a6.376 6.376 0 0 1-2.147.354c-4.374 0-9.864-3.856-14.249-9.227" style="fill:url(#w);stroke:none"/></g><g clip-path="url(#x)" transform="matrix(.35278 0 0 -.35278 -156.471 128.939)"><path d="M197.486 302.782c-2.656-5.372-4.972-11.709-6.731-18.79-.232-.936-.788-3.52-1.338-6.131 1.141-.108.923-.226 1.978.809 1.076 1.051 2.789 1.24 5.693 1.668 2.131.316 2.929-.061 4.353-.101.644 9.84-.363 18.855-3.239 23.95a79.896 79.896 0 0 1-.716-1.405" style="fill:url(#y);stroke:none"/></g><g clip-path="url(#z)" transform="matrix(.35278 0 0 -.35278 -156.471 128.939)"><path d="M200.265 347.291c-2.58-.736-4.663-.219-5.993-.771-.257-.104-.437-.06-.717-.092-.282-.033-.712-.28-1.026-.463-.313-.181-1.438-.348-1.635-.397-.199-.05-.215-.165-.495-.25-.12-.047-.269-.04-.426-.034-.166.007-.339.014-.499-.04l-.035-.022c-.167-.068-1.075 0-1.422.048-.344.048-.561-.081-.891-.15-.332-.065-.447-.097-.708-.13-.066-.025-.113-.006-.165.014-.07.025-.151.051-.3-.028-.297-.17-.91-.101-1.172-.052-.201.031-.447.164-.694.131-.365.018-.622.31-1.386.398-.727.082-1.142-.312-1.588-.398-.122-.057-.494-.079-1.14-.328-.118-.118-.447-.131-.644-.131-.225.021-.336.072-.429.144-.128.184-.33.151-.479.333-.146.068-.234.214-.351.338-.487.206-.955.355-1.557.343-.091-.01-.166.002-.24.013a.915.915 0 0 1-.215.017 2.422 2.422 0 0 0-.446-.016c-.088.006-.144.011-.237-.011a1.148 1.148 0 0 0-.555-.013c-.122.022-.235.046-.414.007-.119-.056-.228-.03-.349-.005a.846.846 0 0 1-.327.02c-.701-.159-1.16-.225-1.857-.385-.985-.261-2.357-.625-3.102-.587-.969.089-1.367-.043-2.112-.352-.54-.1-.825-.212-1.355-.411-.168-.065-.399-.16-.466-.294-.591-.331-1.358-.29-1.851-.452-.505-.165-1.051-.103-1.543-.041-.436.055-.829.11-1.114.008-.632-.231-1.66-.769-2.293-1.008a9.761 9.761 0 0 1-.78-.344c-.105-.182-.362-.211-.509-.328-.169-.215-.186-.167-.495-.413-.144-.151-.557-.327-.71-.455-.432-.19-.647-.356-1.292-.685-.493-.236-.756-.246-1.373-.398-.394-.1-.657-.265-1.056-.412-.256-.102-.76-.297-1.023-.283a1.727 1.727 0 0 1-.9-.194c-.276-.115-.484-.351-.668-.484-.228-.176-.412-.256-.671-.526-.172-.196-.247-.335-.489-.488-.26-.163-.539-.255-.63-.295-.169-.075-.336-.137-.456-.199-.197-.072-.227-.099-.44-.188-.128-.029-.24-.05-.408-.157-.153-.148-.302-.232-.522-.362-.409-.212-.803-.481-1.118-.692-1.524-.72-2.356-.963-3.945-2.058-.25-.171-.621-.324-.913-.615-.144-.116-.433-.227-.692-.347-.343-.157-.649-.231-1.184-.45-.618-.205-1.036-.399-1.662-.675-.278-.135-.777-.456-.984-.561a8.37 8.37 0 0 1-.798-.513c-.218-.16-.706-.592-1.162-.868-.182-.098-.233-.12-.281-.129-1.206-.285-2.165-3.119-3.253-2.762-.634-.178-.824-.467-.748-1.223 0 0-.787-1.405-.427-1.872.358-.461.466-1.143-.091-1.429-.553-.282 0-.185-.303-1.796-.305-1.606.177-3.394.679-4.436.503-1.04 1.041-2.183 1.074-2.935.037-.753.499-1.434.766-1.406.267.022.382-.311.536-.969.676-2.813 1.959-3.428 3.105-3.785 1.145-.354 1-.715 1-1.522 0-.806.215-1.164.648-1.055.428.106 1.966-1.399 2.997-2.782 1.035-1.393 1.438-.871 1.727-3.52.286-2.649 1.361-3.863 2.289-5.198.925-1.328 2.574-1.254 3.652-2.393.453-.477.816-.46 1.183-.443.507.025 1.022.049 1.795-1.239 1.321-2.222 3.577-1.505 4.437-2.723.86-1.215 3.467-2.365 4.44-2.573.968-.217 1.933-.683 2.794-1.938.366-.542.979-.769 1.596-.839 1.596 4.693 3.507 9.078 5.652 13.055a71.429 71.429 0 0 0 4.091 6.714c7.453 10.809 17.772 18.332 25.929 17.277.351-.044.697-.106 1.04-.186 7.859 10.803 17.458 16.619 26.495 14.912 13.626-2.569 23.311-24.546 23.279-49.065.402.118.438.287.75.555.525.367 1.638.46 1.73 1.271-.051.425.028.665.308.719.099.05.171.05.237.049.078 0 .148-.001.249.079.127.103.474.397.632.517.218.167-.015.416-.015.752.053.3.082.515.135.82.161.226.573.443.63.469.39.283.435.633.286.812-.152.275.027.659.6.826.418.133.671.365.87.766-.115 1.18.814.598 1.483 1.127.521.455.481.884.602 1.142.228.374.686.266 1.285.604.983.725 1.923 1.369 2.46 3.115.364 1.331-.027 1.758-.039 3.073.08.617-.173.904.213 1.222.906.32.431.808.431 1.666-.025.711-.443.778-.309 1.371.348.873.27 1.098.443 2.119.175.725-.766 1.142-.435 1.99.61 1.249 1.293 1.018 1.495 1.85.415.984 1.153.807.976 2.222-.09.451-.13.705-.101 1.097.051.432.173.669.11 1.196-.318 2.107-.58 3.329-.742 4.983-.053.315-.015.815-.045 1.153-.114 1.046-.225 2.093-.34 3.139-.133 1.147-.42 1.29-.811 2.125-.14.222-.266.816-.378 1.071-.238.45-.524.264-.769.908-.163.264.021.501-.089.917-.119.363-.293.332-.762.955-.148.242-.278.384-.293.547-.24.314-.797.193-1.21.634-.245.246-.151.389-.448.648-.215.151-1.435.723-1.683 1.534-.067.246-.078.303-.353.559-.355.212-.708.072-1.005.312-.598.481-.892 1.66-1.605 2.104-1.117.482-1.88.877-3.265.802a2.25 2.25 0 0 0-.551.073c-.185.044-.339.087-.475.07-.711-.068-.621.385-.903.545-.158.03-.268.02-.377.011-.121-.009-.243-.02-.431.022-.252.06-.537.022-.785.297-.208.221-.125.543-.212.74-.246.453-.9.246-1.327.168-.55-.22-1.098.172-1.502.197-.623.108-1.675 1.077-2.455 1.303-1.193.379-2.202.176-3.518.418-.296.079-.753.19-1.074.306-.229.044-.377.22-.647.352-.213.067-.038.198-.361.31-.36.184-.664.214-1.018.387a12.33 12.33 0 0 1-.91.388c-.385.088-.774.169-1.165.256-.172.043-.338.1-.505.16-.24.069-.403.148-.671.224-.52.168-.98.924-1.511 1.107a130.33 130.33 0 0 0-1.767-.061c-.133.024-.214-.006-.302-.037a.63.63 0 0 0-.341-.036c-.315.086-.551.101-.701.134-.687.11-.421.618-.904.837-.875.394-1.203.344-1.604.374-.509 0-.894.104-1.063-.279-.43-.233-.868.076-1.681.326 0 0-.158.005-.264.112-.105.109-.402.376-.739.296-.253-.066-.338-.138-.562-.499-.243-.334-.524-.549-.807-.817-.455-.103-.859-1.316-2.096-1.096-1.232.288-2.013.987-3.093 1.7-.313.202-.491.672-.831.676-.378.011-.23.191-.451.358a.479.479 0 0 1-.369.188c-.42-.004-.722.119-1.101.252-.283.1-.495.33-.995.409-.527-.012-.698.022-1.235-.079-.22 0-.366 0-.529.015-.492-.093-.988-.191-1.486-.284-.122.011-.279-.038-.425-.088-.148-.051-.286-.101-.37-.089-.367-.082-.643.05-.99.13-.382.051-.545.234-.778.3-.573.124-.495.017-.991.149a5.17 5.17 0 0 0-.955.382c-.173.092-.425.126-.702.126-.679 0-1.508-.205-1.691-.256" style="fill:url(#A);stroke:none"/></g><g clip-path="url(#B)" transform="matrix(.35278 0 0 -.35278 -156.471 128.939)"><path d="M221.337 320.764c8.641-3.764 13.381-22.295 12.09-42.299.946-.118.694-.869 1.436-1.528.766-.683 2.183-.431 3.237-.256 1.052.175 1.235.793 1.953 1.189.713.394 1.18.177 1.876.515.693.347 1.168.557 1.632 1.488.465.931.947 1.209 1.968 1.322 1.021.115 1.046.207 1.046.207.394.217.402.661.516 1.073.754.039 1.323-.005 1.854.452.125.02.223.045.313.067.032 24.519-9.653 46.496-23.279 49.065z" style="fill:url(#C);stroke:none"/></g><g clip-path="url(#D)" transform="matrix(.35278 0 0 -.35278 -156.471 128.939)"><path d="M192.519 305.286c-3.218-6.794-5.846-14.616-7.582-23.147l-1.225-6.062c.523.347.988.765 1.468 1.274 1.16 1.231 2.957.624 4.172.519.025-.001.043-.007.065-.009.55 2.611 1.106 5.195 1.338 6.131 1.759 7.081 4.075 13.418 6.731 18.79.235.474.477.946.716 1.405-1.102 1.951-2.475 3.335-4.136 3.961-.031.012-.067.02-.096.032a79.663 79.663 0 0 1-1.451-2.894" style="fill:url(#E);stroke:none"/></g><g clip-path="url(#F)" transform="matrix(.35278 0 0 -.35278 -156.471 128.939)"><path d="M199.484 317.147c1.978-.45 3.777-1.469 5.385-2.935 5.393 6.21 11.268 8.817 16.468 6.552l4.642 11.295a16.92 16.92 0 0 1-3.155.295c-8.079 0-16.39-5.653-23.34-15.207" style="fill:url(#G);stroke:none"/></g><g clip-path="url(#H)" transform="matrix(.35278 0 0 -.35278 -156.471 128.939)"><path d="M172.515 300.056a71.429 71.429 0 0 1-4.091-6.714c-2.145-3.977-4.056-8.362-5.652-13.055.811-.094 1.64.076 1.947.16.537.142.642.427 1.262-.341.253-.323.607-.495 1.005-.592 1.581 4.447 3.419 8.504 5.406 12.063 1.641 2.935 3.387 5.533 5.182 7.73 5.14 6.294 11.796 10.509 16.396 8.873a74.624 74.624 0 0 0 3.023 5.294 62.46 62.46 0 0 0 2.491 3.673c-.343.08-.689.142-1.04.186-.512.066-1.033.098-1.56.098-7.881.001-17.384-7.244-24.369-17.375" style="fill:url(#I);stroke:none"/></g><g clip-path="url(#J)" transform="matrix(.35278 0 0 -.35278 -156.471 128.939)"><path d="M203.215 312.184c-1.75-2.3-3.438-4.981-5.013-7.997 2.876-5.095 3.883-14.11 3.239-23.95a9.952 9.952 0 0 1 1.875.136c2.902.467 2.936 1.217 4.404 1.611 1.47.397 1.92.079 4.117-.18 1.421-.162 1.666.361 2.386.425.196 13.753-3.126 26.3-9.354 31.983a37.69 37.69 0 0 1-1.654-2.028" style="fill:url(#K);stroke:none"/></g><path d="M0 0c.029-.012.064-.02.096-.031 1.661-.627 3.033-2.011 4.135-3.961C5.808-.977 7.495 1.705 9.245 4.004a38.606 38.606 0 0 0 1.653 2.029C9.292 7.498 7.492 8.517 5.514 8.968a63.648 63.648 0 0 1-2.492-3.673A75.036 75.036 0 0 1 0 0" style="fill:#f9f27f;fill-opacity:1;fill-rule:nonzero;stroke:none" transform="matrix(.35278 0 0 -.35278 -88.043 20.22)"/><g clip-path="url(#L)" transform="matrix(6.54579 0 0 -6.54579 -2096.783 2287.255)"><path d="M400.864 314.518c6.521-5.951 9.999-19.092 9.796-33.495.416.042.983-.068 1.998-.527 2.85-1.283 4.533-1.601 6.34-1.451 1.805.144 2.324-.489 4.385-1.588 1.239-.661 2.221-.609 3.118-.557.594.034 1.151.07 1.722-.103.833-.256 1.142-.085 1.479.086.239.121.493.242.956.213.041-.004.075-.007.112-.012 1.353 20.946-3.614 40.35-12.664 44.29a9.972 9.972 0 0 1-4.027.847c-4.341 0-8.923-2.764-13.215-7.703" style="fill:url(#M);stroke:none"/></g><g clip-path="url(#N)" transform="matrix(6.54579 0 0 -6.54579 -2096.783 2287.255)"><path d="M372.281 298.906c-1.881-2.3-3.709-5.021-5.428-8.095-2.079-3.726-4.004-7.97-5.66-12.629.6-.15 1.282-.141 1.898-.188 1.054-.074 1.054-1.5 1.579-2.324.362-.573.582-.566.933-.559.155.003.334.005.563-.039.752-.154 1.877-1.425 3.301-1.691 1.426-.262 4.09-.598 6.261-.038 1.276.33 2.194.716 2.979 1.24.525 2.601 1.178 5.819 1.283 6.349 1.821 8.933 4.57 17.12 7.941 24.236a86.45 86.45 0 0 0 1.521 3.03 6.679 6.679 0 0 1-2.251.372c-4.58.001-10.329-4.039-14.92-9.664" style="fill:url(#O);stroke:none"/></g><g clip-path="url(#P)" transform="matrix(6.54579 0 0 -6.54579 -2096.783 2287.255)"><path d="M393.134 302.544c-2.782-5.622-5.206-12.258-7.05-19.677-.244-.978-.826-3.683-1.402-6.418 1.197-.111.966-.235 2.072.845 1.127 1.107 2.922 1.3 5.963 1.751 2.232.333 3.066-.065 4.558-.11.673 10.309-.382 19.748-3.396 25.081-.248-.48-.5-.971-.745-1.472" style="fill:url(#Q);stroke:none"/></g><g clip-path="url(#R)" transform="matrix(6.54579 0 0 -6.54579 -2096.783 2287.255)"><path d="M396.041 349.156c-2.7-.77-4.881-.23-6.272-.807-.271-.108-.46-.062-.753-.098-.295-.036-.749-.294-1.073-.486-.332-.188-1.507-.361-1.716-.415-.205-.05-.222-.17-.518-.258-.126-.051-.281-.043-.445-.037-.173.008-.355.016-.522-.043l-.035-.023c-.176-.072-1.125 0-1.491.048-.361.055-.587-.084-.931-.155-.347-.068-.471-.101-.742-.136-.069-.026-.119-.006-.174.015-.074.027-.159.055-.316-.029-.309-.177-.95-.106-1.225-.053-.209.032-.466.17-.726.135-.381.018-.653.327-1.451.419-.763.084-1.198-.331-1.663-.419-.131-.058-.513-.082-1.195-.345-.123-.123-.467-.137-.676-.137-.232.022-.35.076-.449.153-.135.194-.344.155-.5.347-.157.07-.244.227-.369.357-.506.215-.998.368-1.629.358a.824.824 0 0 0-.248.014c-.073.011-.145.023-.228.016a2.374 2.374 0 0 0-.469-.015c-.09.005-.149.012-.247-.011a1.2 1.2 0 0 0-.584-.016c-.127.023-.245.048-.433.007-.122-.057-.235-.031-.361-.004a.912.912 0 0 1-.348.019c-.731-.165-1.211-.233-1.943-.401-1.031-.274-2.465-.654-3.246-.613-1.015.092-1.432-.047-2.212-.372-.567-.102-.865-.22-1.42-.429-.175-.07-.416-.168-.489-.307-.62-.347-1.422-.302-1.938-.473-.527-.174-1.098-.108-1.612-.043-.456.057-.869.115-1.168.007-.663-.24-1.738-.806-2.4-1.055a10.705 10.705 0 0 1-.818-.358c-.11-.192-.38-.224-.535-.347-.178-.225-.194-.171-.516-.431-.154-.162-.586-.342-.746-.478-.451-.198-.675-.37-1.352-.715-.516-.25-.793-.258-1.436-.418-.415-.102-.688-.28-1.106-.433-.269-.105-.794-.308-1.072-.295a1.83 1.83 0 0 1-.942-.202c-.289-.124-.507-.367-.703-.506-.237-.186-.428-.268-.7-.551-.178-.207-.259-.354-.511-.514-.274-.17-.57-.267-.66-.305-.176-.084-.352-.145-.477-.212-.206-.075-.238-.104-.462-.197-.134-.03-.25-.052-.427-.163-.16-.158-.315-.242-.547-.38-.429-.223-.841-.502-1.172-.724-1.596-.754-2.466-1.01-4.132-2.156-.259-.179-.647-.339-.957-.643-.147-.122-.452-.237-.723-.361-.359-.169-.677-.245-1.24-.474-.646-.215-1.083-.418-1.741-.707-.29-.139-.812-.478-1.028-.586a9.535 9.535 0 0 1-.838-.539c-.227-.165-.741-.621-1.215-.91-.19-.1-.246-.124-.296-.136-1.263-.294-2.267-3.263-3.403-2.89-.665-.187-.866-.49-.786-1.28 0 0-.823-1.47-.447-1.962.377-.482.492-1.199-.092-1.497-.582-.293 0-.192-.319-1.878-.319-1.682.186-3.557.712-4.645.527-1.089 1.09-2.29 1.125-3.074.037-.792.521-1.501.8-1.473.28.024.401-.325.563-1.015.707-2.945 2.049-3.591 3.252-3.965 1.195-.371 1.044-.744 1.044-1.59 0-.845.227-1.223.679-1.107.449.112 2.061-1.464 3.14-2.912 1.084-1.459 1.506-.914 1.807-3.688.3-2.774 1.425-4.047 2.397-5.439.972-1.393 2.694-1.314 3.826-2.51.472-.499.852-.481 1.235-.463.532.025 1.072.05 1.88-1.298 1.385-2.327 3.748-1.575 4.646-2.85.902-1.273 3.635-2.478 4.653-2.696 1.011-.226 2.023-.716 2.924-2.032.385-.563 1.026-.8 1.674-.878 1.667 4.916 3.671 9.508 5.917 13.674a75.666 75.666 0 0 0 4.283 7.027c7.805 11.321 18.611 19.203 27.155 18.096.367-.048.73-.109 1.085-.195 8.235 11.312 18.282 17.403 27.747 15.615 14.271-2.692 24.41-25.705 24.377-51.381.424.124.459.305.789.582.546.385 1.715.483 1.808 1.331-.053.443.03.696.323.753a.473.473 0 0 0 .247.051c.082 0 .156 0 .263.085.132.106.494.415.659.542.231.173-.013.432-.013.785.055.315.084.539.14.857.169.237.6.465.661.492.408.296.456.663.301.848-.161.291.028.692.626.87.438.135.704.38.913.798-.124 1.239.851.627 1.552 1.18.545.479.504.929.631 1.196.237.396.719.283 1.345.636 1.03.758 2.015 1.431 2.577 3.261.381 1.393-.03 1.84-.041 3.218.084.646-.182.943.225 1.279.943.336.449.845.449 1.744-.028.744-.465.816-.324 1.438.364.911.281 1.15.464 2.22.182.756-.803 1.195-.455 2.083.637 1.306 1.354 1.064 1.567 1.936.434 1.031 1.205.843 1.025 2.327-.099.472-.142.739-.111 1.148.054.453.181.701.117 1.252-.336 2.205-.609 3.487-.777 5.219-.057.33-.018.854-.049 1.205-.12 1.098-.235 2.194-.356 3.289-.138 1.202-.437 1.352-.849 2.224-.145.235-.28.856-.395 1.125-.252.472-.548.276-.808.95-.166.276.023.525-.094.961-.122.38-.303.343-.795.999-.155.253-.291.399-.31.574-.247.329-.831.201-1.265.662-.255.257-.157.41-.466.678-.23.159-1.506.757-1.762 1.605-.074.259-.086.321-.377.586-.365.224-.736.077-1.047.326-.625.508-.933 1.738-1.681 2.207-1.168.503-1.969.915-3.418.84a2.342 2.342 0 0 0-.582.076c-.193.046-.354.092-.497.074-.742-.075-.65.401-.943.567-.166.032-.281.023-.398.014a1.323 1.323 0 0 0-.449.022c-.262.065-.559.02-.82.313-.219.23-.134.567-.222.773-.257.475-.941.256-1.392.174-.574-.229-1.147.184-1.571.209-.654.113-1.756 1.125-2.57 1.363-1.254.396-2.306.184-3.686.44-.307.082-.788.198-1.125.321-.24.041-.394.227-.674.368-.227.067-.042.206-.382.325-.379.193-.691.222-1.067.406-.239.111-.648.295-.953.406-.399.088-.81.174-1.218.264-.179.044-.351.107-.528.169-.252.074-.421.156-.703.235-.542.177-1.027.967-1.584 1.161-.615-.027-1.233-.047-1.847-.065-.142.026-.227-.007-.32-.039a.658.658 0 0 0-.358-.038c-.326.088-.572.106-.731.142-.718.115-.443.645-.948.877-.915.413-1.259.359-1.676.386-.534 0-.94.115-1.115-.288-.449-.246-.911.079-1.761.341 0 0-.165.007-.277.118-.112.112-.424.395-.773.31-.264-.072-.356-.145-.586-.522-.256-.35-.552-.577-.846-.857-.479-.109-.9-1.377-2.195-1.149-1.289.304-2.11 1.035-3.24 1.783-.328.211-.514.7-.869.706-.399.011-.243.203-.477.377a.481.481 0 0 1-.385.194c-.437-.005-.754.127-1.154.262-.293.107-.518.348-1.039.434-.555-.016-.733.02-1.295-.086-.229 0-.381 0-.555.018l-1.555-.302c-.128.015-.292-.038-.447-.091-.153-.052-.296-.104-.384-.09-.386-.086-.674.05-1.035.134-.403.054-.575.245-.818.314-.599.129-.519.017-1.036.155a5.602 5.602 0 0 0-1 .401c-.182.097-.447.133-.738.133-.711 0-1.576-.214-1.77-.268" style="fill:url(#S);stroke:none"/></g><g clip-path="url(#T)" transform="matrix(6.54579 0 0 -6.54579 -2096.783 2287.255)"><path d="M418.106 321.374c9.05-3.94 14.017-23.344 12.664-44.29.99-.125.726-.911 1.505-1.599.797-.717 2.282-.454 3.387-.272 1.1.185 1.293.83 2.045 1.246.75.412 1.235.186 1.966.542.728.359 1.223.583 1.708 1.555.49.975.992 1.267 2.061 1.384 1.07.12 1.095.22 1.095.22.414.228.422.69.543 1.12.789.041 1.383-.003 1.937.474.132.023.237.047.329.07.033 25.676-10.106 48.689-24.377 51.381z" style="fill:url(#U);stroke:none"/></g><g clip-path="url(#V)" transform="matrix(6.54579 0 0 -6.54579 -2096.783 2287.255)"><path d="M387.931 305.168c-3.371-7.116-6.12-15.303-7.941-24.236-.105-.53-.758-3.748-1.283-6.349.547.362 1.037.802 1.539 1.334 1.213 1.29 3.095.653 4.369.542l.067-.01c.576 2.735 1.158 5.44 1.402 6.418 1.844 7.419 4.268 14.055 7.05 19.677.245.501.497.992.745 1.472-1.151 2.046-2.586 3.496-4.328 4.15-.034.012-.072.02-.099.032a86.45 86.45 0 0 1-1.521-3.03" style="fill:url(#W);stroke:none"/></g><g clip-path="url(#X)" transform="matrix(6.54579 0 0 -6.54579 -2096.783 2287.255)"><path d="M395.222 317.59c2.073-.475 3.959-1.537 5.642-3.072 5.648 6.499 11.8 9.233 17.242 6.856l4.863 11.831a17.77 17.77 0 0 1-3.305.308c-8.461.001-17.159-5.919-24.442-15.923" style="fill:url(#Y);stroke:none"/></g><g clip-path="url(#Z)" transform="matrix(6.54579 0 0 -6.54579 -2096.783 2287.255)"><path d="M366.982 299.689a75.666 75.666 0 0 1-4.283-7.027c-2.246-4.166-4.25-8.758-5.917-13.674.849-.098 1.718.083 2.036.169.561.15.674.447 1.322-.356.266-.337.638-.516 1.053-.619 1.656 4.659 3.581 8.903 5.66 12.629 1.719 3.074 3.547 5.795 5.428 8.095 5.382 6.594 12.356 11.009 17.171 9.292a77.242 77.242 0 0 0 3.165 5.547 67.346 67.346 0 0 0 2.605 3.845c-.355.086-.718.147-1.085.195-.537.069-1.083.103-1.636.103-8.254.001-18.204-7.589-25.519-18.199" style="fill:url(#aa);stroke:none"/></g><g clip-path="url(#ab)" transform="matrix(6.54579 0 0 -6.54579 -2096.783 2287.255)"><path d="M399.131 312.393c-1.832-2.407-3.6-5.218-5.252-8.377 3.014-5.333 4.069-14.772 3.396-25.081.538-.014 1.159.018 1.961.145 3.041.489 3.077 1.275 4.612 1.688 1.541.414 2.013.082 4.312-.189 1.488-.168 1.744.38 2.5.444.203 14.403-3.275 27.544-9.796 33.495a39.762 39.762 0 0 1-1.733-2.125" style="fill:url(#ac);stroke:none"/></g><g clip-path="url(#ad)" transform="matrix(6.54579 0 0 -6.54579 -2096.783 2287.255)"><path d="M0 0c.027-.012.066-.021.1-.032 1.742-.655 3.177-2.104 4.328-4.15 1.652 3.16 3.42 5.97 5.252 8.376a40.275 40.275 0 0 0 1.732 2.126C9.73 7.854 7.844 8.917 5.771 9.392a66.168 66.168 0 0 1-2.605-3.846A78.157 78.157 0 0 1 0 0" style="fill:#f9f27f;fill-opacity:1;fill-rule:nonzero;stroke:none" transform="translate(389.451 308.198)"/></g><g clip-path="url(#ae)" transform="matrix(.35278 0 0 -.35278 -253.757 115.04)"><path d="M208.816 143.97c5.925-5.407 9.083-17.338 8.899-30.416.377.036.894-.063 1.816-.479 2.584-1.167 4.116-1.452 5.755-1.318 1.642.132 2.109-.441 3.982-1.442 1.125-.6 2.018-.553 2.832-.506.54.031 1.046.061 1.562-.095.757-.231 1.037-.075 1.342.081.217.109.448.22.871.193.037-.003.069-.009.099-.012 1.231 19.022-3.279 36.643-11.498 40.223a9.065 9.065 0 0 1-3.654.767c-3.943 0-8.107-2.509-12.006-6.996" style="fill:url(#af);stroke:none"/></g><g clip-path="url(#ag)" transform="matrix(.35278 0 0 -.35278 -253.757 115.04)"><path d="M182.862 129.793c-1.706-2.087-3.369-4.56-4.926-7.352-1.892-3.383-3.638-7.237-5.141-11.469.54-.135 1.164-.128 1.724-.169.954-.067.954-1.36 1.429-2.112.331-.519.531-.513.85-.507.14.002.304.005.513-.036.681-.136 1.703-1.295 2.995-1.532 1.293-.238 3.713-.546 5.689-.036 1.159.298 1.991.65 2.704 1.123.476 2.363 1.069 5.287 1.166 5.768 1.652 8.113 4.149 15.547 7.209 22.011.446.939.91 1.852 1.38 2.751a6.065 6.065 0 0 1-2.041.336c-4.158.001-9.379-3.667-13.551-8.776" style="fill:url(#ah);stroke:none"/></g><g clip-path="url(#ai)" transform="matrix(.35278 0 0 -.35278 -253.757 115.04)"><path d="M201.798 133.097c-2.526-5.106-4.728-11.133-6.401-17.867-.22-.89-.752-3.347-1.273-5.829 1.084-.1.878-.215 1.881.768 1.023 1.001 2.654 1.179 5.415 1.588 2.028.3 2.784-.06 4.138-.096.612 9.358-.345 17.929-3.081 22.776a69.648 69.648 0 0 1-.679-1.34" style="fill:url(#aj);stroke:none"/></g><g clip-path="url(#ak)" transform="matrix(.35278 0 0 -.35278 -253.757 115.04)"><path d="M204.441 175.426c-2.453-.7-4.436-.21-5.701-.733-.241-.099-.416-.058-.68-.088-.27-.034-.679-.267-.976-.441-.298-.174-1.369-.329-1.555-.377-.189-.047-.205-.155-.472-.238-.114-.044-.255-.038-.402-.032-.158.007-.324.014-.475-.039l-.034-.02c-.159-.064-1.021 0-1.352.045-.326.046-.535-.078-.847-.14-.315-.064-.426-.095-.676-.125-.062-.024-.107-.006-.157.012-.066.024-.143.049-.283-.027-.283-.158-.864-.097-1.116-.05-.189.033-.423.158-.66.126-.347.016-.591.294-1.32.379-.689.078-1.084-.299-1.507-.379-.115-.056-.467-.074-1.084-.314-.112-.109-.424-.124-.614-.124-.215.024-.318.069-.405.139-.124.173-.315.142-.458.315-.14.064-.22.204-.335.323-.461.197-.906.337-1.478.326a.83.83 0 0 0-.222.012c-.067.01-.134.021-.212.014a2.224 2.224 0 0 0-.419-.013c-.085.006-.14.011-.231-.011a1.09 1.09 0 0 0-.525-.013c-.116.022-.224.043-.393.005-.114-.05-.217-.026-.33-.002a.786.786 0 0 1-.315.019c-.667-.152-1.105-.213-1.768-.366-.934-.246-2.239-.595-2.947-.559-.922.085-1.302-.039-2.011-.333-.512-.097-.784-.202-1.288-.393-.158-.061-.379-.151-.444-.277-.561-.315-1.291-.277-1.761-.43-.478-.159-.998-.099-1.466-.04-.414.053-.788.105-1.058.008-.6-.219-1.579-.733-2.182-.96a10.13 10.13 0 0 1-.739-.325c-.101-.171-.346-.203-.487-.314-.16-.203-.174-.158-.469-.391-.138-.146-.528-.313-.675-.434-.411-.182-.616-.34-1.228-.652-.47-.223-.719-.233-1.306-.378-.375-.094-.625-.252-1.003-.393-.245-.097-.725-.28-.976-.266-.32.004-.52-.029-.855-.186-.263-.109-.458-.335-.635-.461-.216-.166-.391-.242-.637-.498-.163-.188-.235-.322-.466-.463-.245-.157-.514-.245-.598-.282-.16-.073-.32-.131-.432-.192-.19-.064-.218-.091-.421-.177-.122-.028-.227-.047-.388-.151-.146-.139-.287-.219-.497-.341-.388-.205-.765-.459-1.063-.658-1.45-.687-2.241-.918-3.751-1.959-.236-.165-.59-.308-.869-.583-.135-.115-.413-.218-.658-.331-.329-.149-.615-.221-1.124-.43-.589-.196-.986-.379-1.581-.641-.266-.127-.739-.434-.936-.531a8.346 8.346 0 0 1-.762-.49c-.205-.151-.669-.562-1.105-.824-.172-.095-.221-.115-.267-.123-1.145-.27-2.058-2.969-3.091-2.627-.603-.167-.783-.445-.713-1.164 0 0-.748-1.336-.405-1.778.34-.443.444-1.09-.085-1.359-.527-.271 0-.178-.289-1.708-.291-1.528.169-3.232.646-4.22.478-.986.989-2.077 1.021-2.792.037-.716.475-1.363.728-1.338.257.023.363-.296.512-.918.64-2.676 1.861-3.261 2.95-3.601 1.088-.34.952-.679.952-1.447-.002-.765.205-1.106.617-1.004.404.102 1.869-1.328 2.85-2.647.982-1.322 1.368-.827 1.64-3.346.273-2.519 1.294-3.674 2.176-4.939.881-1.266 2.449-1.196 3.476-2.279.431-.454.775-.437 1.124-.421.483.024.972.046 1.704-1.178 1.257-2.113 3.404-1.43 4.221-2.59.818-1.156 3.301-2.247 4.223-2.447.92-.207 1.84-.65 2.656-1.843.351-.513.933-.729 1.52-.799 1.516 4.465 3.335 8.635 5.374 12.418a68.188 68.188 0 0 0 3.89 6.383c7.089 10.278 16.901 17.434 24.658 16.431.335-.043.662-.102.988-.179 7.475 10.275 16.601 15.804 25.196 14.181 12.957-2.444 22.166-23.344 22.138-46.657.382.112.416.274.715.527.495.35 1.556.436 1.641 1.207-.048.404.028.634.295.685.094.046.161.046.224.046a.32.32 0 0 1 .24.076c.118.098.449.376.599.491.207.16-.014.396-.014.716.051.286.075.489.126.779.155.215.548.424.601.447.37.268.415.6.271.771-.143.262.026.625.571.786.398.127.639.349.828.727-.111 1.122.773.568 1.41 1.072.495.433.459.843.572 1.087.217.358.652.254 1.225.577.933.686 1.826 1.299 2.336 2.96.346 1.264-.025 1.674-.037 2.922.076.588-.165.859.206 1.161.86.304.407.768.407 1.586-.024.675-.424.739-.292 1.303.329.829.254 1.046.42 2.016.165.688-.729 1.086-.414 1.893.579 1.186 1.231.968 1.423 1.759.395.933 1.096.764.929 2.113-.086.429-.126.67-.098 1.043.048.409.163.634.105 1.136-.301 2.004-.553 3.166-.706 4.736-.051.303-.014.778-.042 1.1-.11.994-.217 1.988-.322 2.986-.131 1.091-.401 1.226-.773 2.019-.133.21-.254.777-.358 1.02-.228.427-.5.25-.732.863-.154.252.019.476-.087.873-.113.343-.278.314-.722.906-.144.229-.265.364-.282.522-.225.299-.756.181-1.148.602-.235.233-.145.371-.426.615-.205.144-1.364.687-1.6 1.46-.065.233-.076.289-.339.531-.335.203-.671.068-.955.298-.565.456-.846 1.577-1.523 1.999-1.062.458-1.789.833-3.107.765a2.102 2.102 0 0 0-.525.069c-.175.041-.322.082-.452.065-.673-.066-.59.366-.856.519-.151.028-.256.019-.361.01a1.198 1.198 0 0 0-.407.02c-.24.056-.512.02-.749.285-.196.208-.12.513-.201.702-.232.431-.855.234-1.262.158-.523-.208-1.041.166-1.427.191-.594.098-1.595 1.021-2.336 1.236-1.136.361-2.093.17-3.344.397-.282.078-.717.182-1.023.293-.217.04-.357.209-.613.335-.204.064-.037.19-.344.295-.345.173-.631.202-.969.368-.22.101-.59.267-.865.368-.365.085-.737.16-1.106.244-.163.04-.325.096-.481.155-.231.063-.386.138-.639.208-.494.161-.933.881-1.439 1.055-.558-.024-1.12-.043-1.677-.059-.129.023-.207-.006-.29-.034a.584.584 0 0 0-.325-.035c-.298.081-.523.097-.663.128-.656.104-.403.587-.861.797-.833.372-1.144.327-1.525.352-.485 0-.852.101-1.011-.265-.409-.22-.83.074-1.599.311 0 0-.149.006-.251.108-.101.102-.384.356-.702.28-.242-.063-.321-.129-.535-.473-.23-.317-.499-.523-.768-.779-.432-.097-.816-1.248-1.99-1.041-1.176.274-1.916.939-2.944 1.617-.298.192-.467.639-.79.642-.36.012-.22.182-.431.341a.452.452 0 0 1-.348.179c-.401-.005-.687.113-1.049.237-.267.096-.47.314-.944.391-.502-.012-.667.02-1.178-.077-.206 0-.347 0-.502.017l-1.412-.272c-.117.012-.267-.036-.408-.084-.138-.047-.269-.095-.349-.083-.35-.077-.611.049-.94.125-.363.048-.521.222-.739.282-.547.12-.473.019-.942.143a4.961 4.961 0 0 0-.91.364c-.165.088-.404.12-.667.12-.646 0-1.435-.195-1.608-.243" style="fill:url(#al);stroke:none"/></g><g clip-path="url(#am)" transform="matrix(.35278 0 0 -.35278 -253.757 115.04)"><path d="M224.476 150.199c8.219-3.58 12.729-21.201 11.498-40.223.9-.112.663-.828 1.366-1.456.73-.649 2.075-.407 3.079-.242 1.001.167 1.175.755 1.856 1.131.682.374 1.125.168 1.785.492.661.326 1.111.529 1.554 1.415.442.883.901 1.146 1.871 1.256.97.11.995.196.995.196.373.209.383.627.49 1.019.718.037 1.257-.003 1.763.432.118.017.213.041.298.064.028 23.313-9.181 44.213-22.138 46.657z" style="fill:url(#an);stroke:none"/></g><g clip-path="url(#ao)" transform="matrix(.35278 0 0 -.35278 -253.757 115.04)"><path d="M197.074 135.482c-3.06-6.464-5.557-13.898-7.209-22.011-.097-.481-.69-3.405-1.166-5.768.498.332.94.728 1.395 1.212 1.106 1.174 2.812.595 3.969.494l.061-.008c.521 2.482 1.053 4.939 1.273 5.829 1.673 6.734 3.875 12.761 6.401 17.867.223.455.452.901.679 1.34-1.047 1.855-2.35 3.168-3.933 3.764-.029.012-.063.018-.09.032a80.169 80.169 0 0 1-1.38-2.751" style="fill:url(#ap);stroke:none"/></g><g clip-path="url(#aq)" transform="matrix(.35278 0 0 -.35278 -253.757 115.04)"><path d="M203.697 146.759c1.882-.429 3.591-1.396 5.119-2.789 5.13 5.903 10.717 8.383 15.66 6.229l4.417 10.741c-.994.187-1.996.279-3.001.28-7.684 0-15.584-5.375-22.195-14.461" style="fill:url(#ar);stroke:none"/></g><g clip-path="url(#as)" transform="matrix(.35278 0 0 -.35278 -253.757 115.04)"><path d="M178.051 130.507a68.188 68.188 0 0 1-3.89-6.383c-2.039-3.783-3.858-7.953-5.374-12.418.773-.087 1.561.076 1.849.151.511.138.613.409 1.201-.323.242-.304.578-.468.958-.562 1.503 4.232 3.249 8.086 5.141 11.469 1.557 2.792 3.22 5.265 4.926 7.352 4.889 5.987 11.219 9.995 15.592 8.44a70.637 70.637 0 0 0 2.874 5.034 62.757 62.757 0 0 0 2.369 3.492 9.592 9.592 0 0 1-.988.179c-.486.063-.981.093-1.483.093-7.494.001-16.53-6.89-23.175-16.524" style="fill:url(#at);stroke:none"/></g><g clip-path="url(#au)" transform="matrix(.35278 0 0 -.35278 -253.757 115.04)"><path d="M207.246 142.039c-1.666-2.185-3.27-4.734-4.769-7.602 2.736-4.847 3.693-13.418 3.081-22.776a9.39 9.39 0 0 1 1.783.129c2.759.444 2.794 1.156 4.19 1.533 1.396.375 1.825.072 3.916-.171 1.348-.156 1.581.343 2.268.402.184 13.078-2.974 25.009-8.899 30.416a38.062 38.062 0 0 1-1.57-1.931" style="fill:url(#av);stroke:none"/></g><path d="M0 0c.028-.013.062-.02.091-.031C1.673-.627 2.976-1.94 4.023-3.796 5.522-.928 7.126 1.621 8.792 3.807c.518.68 1.041 1.321 1.571 1.931-1.529 1.392-3.238 2.36-5.119 2.789a61.678 61.678 0 0 1-2.369-3.492A71.055 71.055 0 0 1 0 0" style="fill:#f9f27f;fill-opacity:1;fill-rule:nonzero;stroke:none" transform="matrix(.35278 0 0 -.35278 -183.747 66.275)"/></svg>