<svg xmlns="http://www.w3.org/2000/svg" xml:space="preserve" width="799.98499" height="800" viewBox="0 0 799.98498 799.99998"><path d="M289.32 627.79c-77.968 0-141.233-63.269-141.233-141.236 0-77.97 63.265-141.236 141.233-141.236s141.234 63.266 141.234 141.236c0 77.967-63.266 141.236-141.234 141.236m0-272.495c-72.456 0-131.26 58.8-131.26 131.259 0 72.452 58.804 131.26 131.26 131.26 72.456 0 131.26-58.808 131.26-131.26 0-72.458-58.804-131.26-131.26-131.26z" style="fill:#00a878;fill-opacity:1;fill-rule:nonzero;stroke:none" transform="matrix(2.83214 0 0 -2.83214 -419.403 1777.99)"/><path d="M393.804 448.228c-3.938 0-7.353-3.155-7.353-6.566 0-6.822 7.876-4.984 7.876-9.713 0-2.628-7.349-12.078-22.05-12.078-32.293 0-43.316 64.582-103.697 64.582-41.475 0-75.604-29.668-79.542-69.83 14.439 27.04 44.102 46.201 76.394 46.201 55.39 0 68.253-46.728 103.693-46.728 25.202 0 31.505 24.682 31.505 28.094 0 3.41-2.892 6.039-6.826 6.039z" style="fill:#4e468e;fill-opacity:1;fill-rule:nonzero;stroke:none" transform="matrix(2.83214 0 0 -2.83214 -419.403 1777.99)"/><path d="M370.44 428.274c13.127 17.063 13.65 40.954.26 58.543-16.273 20.738-46.464 24.149-67.468 7.876-2.62-1.84-4.722-3.938-6.822-6.302 37.799-12.078 51.188-52.767 74.03-60.117z" style="fill:#c82128;fill-opacity:1;fill-rule:nonzero;stroke:none" transform="matrix(2.83214 0 0 -2.83214 -419.403 1777.99)"/><path d="M368.602 393.886c-2.888-2.365-5.776-4.729-8.927-7.093 3.41 1.837 6.566 4.201 8.927 7.093z" style="fill:#4e468e;fill-opacity:1;fill-rule:nonzero;stroke:none" transform="matrix(2.83214 0 0 -2.83214 -419.403 1777.99)"/><path d="M359.148 391.785c-23.101 0-46.203 37.017-96.867 37.017-26.253 0-49.355-12.078-59.332-29.668 7.877-7.876 16.803-14.699 26.78-20.21 9.186 8.923 21.524 18.11 44.366 18.11 32.292 0 44.626-15.49 63.529-15.49 7.876 0 15.749 1.838 22.05 5.249 3.152 2.364 6.04 4.729 8.928 7.093.26.263.523.52.523.52s-3.938-2.62-9.977-2.62z" style="fill:#4e468e;fill-opacity:1;fill-rule:nonzero;stroke:none" transform="matrix(2.83214 0 0 -2.83214 -419.403 1777.99)"/><path d="M263.067 438.515c30.451 0 59.069-12.605 86.368-39.381-16.536 29.668-54.076 51.978-84.53 51.978-31.501 0-58.017-17.326-68.514-44.102 14.698 18.9 38.85 31.505 66.676 31.505z" style="fill:#4e468e;fill-opacity:1;fill-rule:nonzero;stroke:none" transform="matrix(2.83214 0 0 -2.83214 -419.403 1777.99)"/><path d="M361.249 542.733c-12.074 0-22.838-4.992-30.45-12.864 3.41 6.563 5.248 13.911 5.248 21.787 0 26.517-21.265 48.04-47.777 48.04-26.513 0-48.04-21.523-48.04-48.04 0-8.923 2.624-17.326 6.825-24.41a43.37 43.37 0 0 1-28.88 11.023c-24.149 0-43.575-19.427-43.575-43.316 0-16.539 9.45-30.977 22.838-38.327 14.961 19.95 37.803 33.339 64.056 35.44 1.837.263 3.938.263 5.775.263v33.078h10.237v-33.342c1.578-.263 3.151-.527 4.989-.787v34.13h9.977v-33.079c1.31 2.1 3.147 4.201 4.985 6.04v27.038h9.977v-18.903c4.2 2.624 8.663 4.724 13.387 6.039 4.465 1.313 9.45 2.097 14.443 2.097 27.299 0 49.614-20.738 52.24-46.987 9.71 7.614 15.75 19.424 15.75 32.816 0 23.361-18.903 42.264-42.005 42.264m-89.255-10.504c-3.414 0-6.039 2.892-6.039 6.04 0 3.41 2.625 6.039 6.04 6.039 3.15 0 5.775-2.628 5.775-6.04 0-3.147-2.624-6.039-5.776-6.039m14.966 0c-3.415 0-6.04 2.892-6.04 6.04 0 3.41 2.625 6.039 6.04 6.039 3.147 0 6.035-2.628 6.035-6.04 0-3.147-2.888-6.039-6.035-6.039m14.962 0c-3.412 0-6.04 2.892-6.04 6.04 0 3.41 2.628 6.039 6.04 6.039 3.41 0 6.038-2.628 6.038-6.04 0-3.147-2.628-6.039-6.038-6.039z" style="fill:#00a878;fill-opacity:1;fill-rule:nonzero;stroke:none" transform="matrix(2.83214 0 0 -2.83214 -419.403 1777.99)"/></svg>